<?xml version="1.0" encoding="utf-8" standalone="no"?>
<!DOCTYPE svg PUBLIC "-//W3C//DTD SVG 1.1//EN"
  "http://www.w3.org/Graphics/SVG/1.1/DTD/svg11.dtd">
<svg xmlns:xlink="http://www.w3.org/1999/xlink" width="864pt" height="432pt" viewBox="0 0 864 432" xmlns="http://www.w3.org/2000/svg" version="1.1">
 <metadata>
  <rdf:RDF xmlns:dc="http://purl.org/dc/elements/1.1/" xmlns:cc="http://creativecommons.org/ns#" xmlns:rdf="http://www.w3.org/1999/02/22-rdf-syntax-ns#">
   <cc:Work>
    <dc:type rdf:resource="http://purl.org/dc/dcmitype/StillImage"/>
    <dc:date>2023-10-29T18:52:56.389999</dc:date>
    <dc:format>image/svg+xml</dc:format>
    <dc:creator>
     <cc:Agent>
      <dc:title>Matplotlib v3.8.0, https://matplotlib.org/</dc:title>
     </cc:Agent>
    </dc:creator>
   </cc:Work>
  </rdf:RDF>
 </metadata>
 <defs>
  <style type="text/css">*{stroke-linejoin: round; stroke-linecap: butt}</style>
 </defs>
 <g id="figure_1">
  <g id="patch_1">
   <path d="M 0 432 
L 864 432 
L 864 0 
L 0 0 
z
" style="fill: #ffffff"/>
  </g>
  <g id="axes_1">
   <g id="LineCollection_1">
    <path d="M 302.019675 240.194962 
L 324.563106 166.503572 
" clip-path="url(#p2248def12d)" style="fill: none; stroke: #000000"/>
    <path d="M 302.019675 240.194962 
L 452.104793 198.06145 
" clip-path="url(#p2248def12d)" style="fill: none; stroke: #000000"/>
    <path d="M 302.019675 240.194962 
L 299.652226 213.052399 
" clip-path="url(#p2248def12d)" style="fill: none; stroke: #000000"/>
    <path d="M 302.019675 240.194962 
L 131.706986 286.196422 
" clip-path="url(#p2248def12d)" style="fill: none; stroke: #000000"/>
    <path d="M 302.019675 240.194962 
L 182.198789 345.842369 
" clip-path="url(#p2248def12d)" style="fill: none; stroke: #000000"/>
    <path d="M 302.019675 240.194962 
L 132.628132 328.273356 
" clip-path="url(#p2248def12d)" style="fill: none; stroke: #000000"/>
    <path d="M 302.019675 240.194962 
L 287.967671 188.010898 
" clip-path="url(#p2248def12d)" style="fill: none; stroke: #000000"/>
    <path d="M 302.019675 240.194962 
L 488.649393 171.102066 
" clip-path="url(#p2248def12d)" style="fill: none; stroke: #000000"/>
    <path d="M 302.019675 240.194962 
L 197.680664 307.075818 
" clip-path="url(#p2248def12d)" style="fill: none; stroke: #000000"/>
    <path d="M 302.019675 240.194962 
L 312.685445 339.243656 
" clip-path="url(#p2248def12d)" style="fill: none; stroke: #000000"/>
    <path d="M 302.019675 240.194962 
L 169.592989 234.447234 
" clip-path="url(#p2248def12d)" style="fill: none; stroke: #000000"/>
    <path d="M 302.019675 240.194962 
L 404.955003 193.266822 
" clip-path="url(#p2248def12d)" style="fill: none; stroke: #000000"/>
    <path d="M 302.019675 240.194962 
L 197.349922 159.026357 
" clip-path="url(#p2248def12d)" style="fill: none; stroke: #000000"/>
    <path d="M 302.019675 240.194962 
L 407.340458 156.257491 
" clip-path="url(#p2248def12d)" style="fill: none; stroke: #000000"/>
    <path d="M 302.019675 240.194962 
L 177.487513 189.03574 
" clip-path="url(#p2248def12d)" style="fill: none; stroke: #000000"/>
    <path d="M 302.019675 240.194962 
L 576.724197 207.869937 
" clip-path="url(#p2248def12d)" style="fill: none; stroke: #000000"/>
    <path d="M 324.563106 166.503572 
L 452.104793 198.06145 
" clip-path="url(#p2248def12d)" style="fill: none; stroke: #000000"/>
    <path d="M 324.563106 166.503572 
L 299.652226 213.052399 
" clip-path="url(#p2248def12d)" style="fill: none; stroke: #000000"/>
    <path d="M 324.563106 166.503572 
L 287.967671 188.010898 
" clip-path="url(#p2248def12d)" style="fill: none; stroke: #000000"/>
    <path d="M 324.563106 166.503572 
L 404.955003 193.266822 
" clip-path="url(#p2248def12d)" style="fill: none; stroke: #000000"/>
    <path d="M 324.563106 166.503572 
L 197.349922 159.026357 
" clip-path="url(#p2248def12d)" style="fill: none; stroke: #000000"/>
    <path d="M 324.563106 166.503572 
L 407.340458 156.257491 
" clip-path="url(#p2248def12d)" style="fill: none; stroke: #000000"/>
    <path d="M 324.563106 166.503572 
L 177.487513 189.03574 
" clip-path="url(#p2248def12d)" style="fill: none; stroke: #000000"/>
    <path d="M 324.563106 166.503572 
L 490.936453 121.744457 
" clip-path="url(#p2248def12d)" style="fill: none; stroke: #000000"/>
    <path d="M 452.104793 198.06145 
L 299.652226 213.052399 
" clip-path="url(#p2248def12d)" style="fill: none; stroke: #000000"/>
    <path d="M 452.104793 198.06145 
L 287.967671 188.010898 
" clip-path="url(#p2248def12d)" style="fill: none; stroke: #000000"/>
    <path d="M 452.104793 198.06145 
L 488.649393 171.102066 
" clip-path="url(#p2248def12d)" style="fill: none; stroke: #000000"/>
    <path d="M 452.104793 198.06145 
L 593.743125 241.598408 
" clip-path="url(#p2248def12d)" style="fill: none; stroke: #000000"/>
    <path d="M 452.104793 198.06145 
L 404.955003 193.266822 
" clip-path="url(#p2248def12d)" style="fill: none; stroke: #000000"/>
    <path d="M 452.104793 198.06145 
L 582.727415 147.904114 
" clip-path="url(#p2248def12d)" style="fill: none; stroke: #000000"/>
    <path d="M 452.104793 198.06145 
L 542.667157 228.898729 
" clip-path="url(#p2248def12d)" style="fill: none; stroke: #000000"/>
    <path d="M 452.104793 198.06145 
L 648.539195 142.420636 
" clip-path="url(#p2248def12d)" style="fill: none; stroke: #000000"/>
    <path d="M 299.652226 213.052399 
L 287.967671 188.010898 
" clip-path="url(#p2248def12d)" style="fill: none; stroke: #000000"/>
    <path d="M 299.652226 213.052399 
L 169.592989 234.447234 
" clip-path="url(#p2248def12d)" style="fill: none; stroke: #000000"/>
    <path d="M 299.652226 213.052399 
L 404.955003 193.266822 
" clip-path="url(#p2248def12d)" style="fill: none; stroke: #000000"/>
    <path d="M 131.706986 286.196422 
L 132.628132 328.273356 
" clip-path="url(#p2248def12d)" style="fill: none; stroke: #000000"/>
    <path d="M 131.706986 286.196422 
L 197.680664 307.075818 
" clip-path="url(#p2248def12d)" style="fill: none; stroke: #000000"/>
    <path d="M 182.198789 345.842369 
L 132.628132 328.273356 
" clip-path="url(#p2248def12d)" style="fill: none; stroke: #000000"/>
    <path d="M 182.198789 345.842369 
L 197.680664 307.075818 
" clip-path="url(#p2248def12d)" style="fill: none; stroke: #000000"/>
    <path d="M 182.198789 345.842369 
L 74.975207 394.512397 
" clip-path="url(#p2248def12d)" style="fill: none; stroke: #000000"/>
    <path d="M 132.628132 328.273356 
L 74.975207 394.512397 
" clip-path="url(#p2248def12d)" style="fill: none; stroke: #000000"/>
    <path d="M 488.649393 171.102066 
L 490.936453 121.744457 
" clip-path="url(#p2248def12d)" style="fill: none; stroke: #000000"/>
    <path d="M 488.649393 171.102066 
L 648.539195 142.420636 
" clip-path="url(#p2248def12d)" style="fill: none; stroke: #000000"/>
    <path d="M 488.649393 171.102066 
L 616.053354 147.443219 
" clip-path="url(#p2248def12d)" style="fill: none; stroke: #000000"/>
    <path d="M 593.743125 241.598408 
L 616.053354 147.443219 
" clip-path="url(#p2248def12d)" style="fill: none; stroke: #000000"/>
    <path d="M 404.955003 193.266822 
L 616.053354 147.443219 
" clip-path="url(#p2248def12d)" style="fill: none; stroke: #000000"/>
    <path d="M 733.874165 208.450139 
L 648.539195 142.420636 
" clip-path="url(#p2248def12d)" style="fill: none; stroke: #000000"/>
    <path d="M 733.874165 208.450139 
L 616.053354 147.443219 
" clip-path="url(#p2248def12d)" style="fill: none; stroke: #000000"/>
    <path d="M 757.698142 93.386706 
L 648.539195 142.420636 
" clip-path="url(#p2248def12d)" style="fill: none; stroke: #000000"/>
    <path d="M 757.698142 93.386706 
L 616.053354 147.443219 
" clip-path="url(#p2248def12d)" style="fill: none; stroke: #000000"/>
    <path d="M 776.805109 159.701 
L 648.539195 142.420636 
" clip-path="url(#p2248def12d)" style="fill: none; stroke: #000000"/>
    <path d="M 776.805109 159.701 
L 616.053354 147.443219 
" clip-path="url(#p2248def12d)" style="fill: none; stroke: #000000"/>
    <path d="M 407.340458 156.257491 
L 616.053354 147.443219 
" clip-path="url(#p2248def12d)" style="fill: none; stroke: #000000"/>
    <path d="M 789.024793 123.621812 
L 648.539195 142.420636 
" clip-path="url(#p2248def12d)" style="fill: none; stroke: #000000"/>
    <path d="M 789.024793 123.621812 
L 616.053354 147.443219 
" clip-path="url(#p2248def12d)" style="fill: none; stroke: #000000"/>
    <path d="M 712.069197 72.197787 
L 648.539195 142.420636 
" clip-path="url(#p2248def12d)" style="fill: none; stroke: #000000"/>
    <path d="M 712.069197 72.197787 
L 616.053354 147.443219 
" clip-path="url(#p2248def12d)" style="fill: none; stroke: #000000"/>
    <path d="M 712.134964 135.399689 
L 773.592694 206.652134 
" clip-path="url(#p2248def12d)" style="fill: none; stroke: #000000"/>
    <path d="M 712.134964 135.399689 
L 582.727415 147.904114 
" clip-path="url(#p2248def12d)" style="fill: none; stroke: #000000"/>
    <path d="M 712.134964 135.399689 
L 659.733603 80.618126 
" clip-path="url(#p2248def12d)" style="fill: none; stroke: #000000"/>
    <path d="M 712.134964 135.399689 
L 648.539195 142.420636 
" clip-path="url(#p2248def12d)" style="fill: none; stroke: #000000"/>
    <path d="M 712.134964 135.399689 
L 616.053354 147.443219 
" clip-path="url(#p2248def12d)" style="fill: none; stroke: #000000"/>
    <path d="M 687.985004 203.284878 
L 773.592694 206.652134 
" clip-path="url(#p2248def12d)" style="fill: none; stroke: #000000"/>
    <path d="M 687.985004 203.284878 
L 582.727415 147.904114 
" clip-path="url(#p2248def12d)" style="fill: none; stroke: #000000"/>
    <path d="M 687.985004 203.284878 
L 576.724197 207.869937 
" clip-path="url(#p2248def12d)" style="fill: none; stroke: #000000"/>
    <path d="M 773.592694 206.652134 
L 576.724197 207.869937 
" clip-path="url(#p2248def12d)" style="fill: none; stroke: #000000"/>
    <path d="M 634.709555 37.487603 
L 659.733603 80.618126 
" clip-path="url(#p2248def12d)" style="fill: none; stroke: #000000"/>
    <path d="M 634.709555 37.487603 
L 616.053354 147.443219 
" clip-path="url(#p2248def12d)" style="fill: none; stroke: #000000"/>
    <path d="M 582.727415 147.904114 
L 616.053354 147.443219 
" clip-path="url(#p2248def12d)" style="fill: none; stroke: #000000"/>
    <path d="M 542.667157 228.898729 
L 576.724197 207.869937 
" clip-path="url(#p2248def12d)" style="fill: none; stroke: #000000"/>
    <path d="M 542.667157 228.898729 
L 616.053354 147.443219 
" clip-path="url(#p2248def12d)" style="fill: none; stroke: #000000"/>
    <path d="M 659.733603 80.618126 
L 648.539195 142.420636 
" clip-path="url(#p2248def12d)" style="fill: none; stroke: #000000"/>
    <path d="M 659.733603 80.618126 
L 616.053354 147.443219 
" clip-path="url(#p2248def12d)" style="fill: none; stroke: #000000"/>
    <path d="M 490.936453 121.744457 
L 648.539195 142.420636 
" clip-path="url(#p2248def12d)" style="fill: none; stroke: #000000"/>
    <path d="M 490.936453 121.744457 
L 616.053354 147.443219 
" clip-path="url(#p2248def12d)" style="fill: none; stroke: #000000"/>
    <path d="M 576.724197 207.869937 
L 648.539195 142.420636 
" clip-path="url(#p2248def12d)" style="fill: none; stroke: #000000"/>
    <path d="M 576.724197 207.869937 
L 616.053354 147.443219 
" clip-path="url(#p2248def12d)" style="fill: none; stroke: #000000"/>
    <path d="M 648.539195 142.420636 
L 616.053354 147.443219 
" clip-path="url(#p2248def12d)" style="fill: none; stroke: #000000"/>
   </g>
   <g id="PathCollection_1">
    <defs>
     <path id="C0_0_7a9d7a95e5" d="M 0 13.693064 
C 3.631443 13.693064 7.11464 12.250276 9.682458 9.682458 
C 12.250276 7.11464 13.693064 3.631443 13.693064 -0 
C 13.693064 -3.631443 12.250276 -7.11464 9.682458 -9.682458 
C 7.11464 -12.250276 3.631443 -13.693064 0 -13.693064 
C -3.631443 -13.693064 -7.11464 -12.250276 -9.682458 -9.682458 
C -12.250276 -7.11464 -13.693064 -3.631443 -13.693064 0 
C -13.693064 3.631443 -12.250276 7.11464 -9.682458 9.682458 
C -7.11464 12.250276 -3.631443 13.693064 0 13.693064 
z
"/>
    </defs>
    <g clip-path="url(#p2248def12d)">
     <use xlink:href="#C0_0_7a9d7a95e5" x="302.019675" y="240.194962" style="fill: #e91e63; stroke: #e91e63"/>
    </g>
    <g clip-path="url(#p2248def12d)">
     <use xlink:href="#C0_0_7a9d7a95e5" x="324.563106" y="166.503572" style="fill: #e91e63; stroke: #e91e63"/>
    </g>
    <g clip-path="url(#p2248def12d)">
     <use xlink:href="#C0_0_7a9d7a95e5" x="452.104793" y="198.06145" style="fill: #e91e63; stroke: #e91e63"/>
    </g>
    <g clip-path="url(#p2248def12d)">
     <use xlink:href="#C0_0_7a9d7a95e5" x="299.652226" y="213.052399" style="fill: #e91e63; stroke: #e91e63"/>
    </g>
    <g clip-path="url(#p2248def12d)">
     <use xlink:href="#C0_0_7a9d7a95e5" x="131.706986" y="286.196422" style="fill: #e91e63; stroke: #e91e63"/>
    </g>
    <g clip-path="url(#p2248def12d)">
     <use xlink:href="#C0_0_7a9d7a95e5" x="182.198789" y="345.842369" style="fill: #e91e63; stroke: #e91e63"/>
    </g>
    <g clip-path="url(#p2248def12d)">
     <use xlink:href="#C0_0_7a9d7a95e5" x="132.628132" y="328.273356" style="fill: #e91e63; stroke: #e91e63"/>
    </g>
    <g clip-path="url(#p2248def12d)">
     <use xlink:href="#C0_0_7a9d7a95e5" x="287.967671" y="188.010898" style="fill: #e91e63; stroke: #e91e63"/>
    </g>
    <g clip-path="url(#p2248def12d)">
     <use xlink:href="#C0_0_7a9d7a95e5" x="488.649393" y="171.102066" style="fill: #e91e63; stroke: #e91e63"/>
    </g>
    <g clip-path="url(#p2248def12d)">
     <use xlink:href="#C0_0_7a9d7a95e5" x="593.743125" y="241.598408" style="fill: #1e88e5; stroke: #1e88e5"/>
    </g>
    <g clip-path="url(#p2248def12d)">
     <use xlink:href="#C0_0_7a9d7a95e5" x="197.680664" y="307.075818" style="fill: #e91e63; stroke: #e91e63"/>
    </g>
    <g clip-path="url(#p2248def12d)">
     <use xlink:href="#C0_0_7a9d7a95e5" x="312.685445" y="339.243656" style="fill: #e91e63; stroke: #e91e63"/>
    </g>
    <g clip-path="url(#p2248def12d)">
     <use xlink:href="#C0_0_7a9d7a95e5" x="169.592989" y="234.447234" style="fill: #e91e63; stroke: #e91e63"/>
    </g>
    <g clip-path="url(#p2248def12d)">
     <use xlink:href="#C0_0_7a9d7a95e5" x="404.955003" y="193.266822" style="fill: #e91e63; stroke: #e91e63"/>
    </g>
    <g clip-path="url(#p2248def12d)">
     <use xlink:href="#C0_0_7a9d7a95e5" x="733.874165" y="208.450139" style="fill: #1e88e5; stroke: #1e88e5"/>
    </g>
    <g clip-path="url(#p2248def12d)">
     <use xlink:href="#C0_0_7a9d7a95e5" x="757.698142" y="93.386706" style="fill: #1e88e5; stroke: #1e88e5"/>
    </g>
    <g clip-path="url(#p2248def12d)">
     <use xlink:href="#C0_0_7a9d7a95e5" x="74.975207" y="394.512397" style="fill: #e91e63; stroke: #e91e63"/>
    </g>
    <g clip-path="url(#p2248def12d)">
     <use xlink:href="#C0_0_7a9d7a95e5" x="197.349922" y="159.026357" style="fill: #e91e63; stroke: #e91e63"/>
    </g>
    <g clip-path="url(#p2248def12d)">
     <use xlink:href="#C0_0_7a9d7a95e5" x="776.805109" y="159.701" style="fill: #1e88e5; stroke: #1e88e5"/>
    </g>
    <g clip-path="url(#p2248def12d)">
     <use xlink:href="#C0_0_7a9d7a95e5" x="407.340458" y="156.257491" style="fill: #e91e63; stroke: #e91e63"/>
    </g>
    <g clip-path="url(#p2248def12d)">
     <use xlink:href="#C0_0_7a9d7a95e5" x="789.024793" y="123.621812" style="fill: #1e88e5; stroke: #1e88e5"/>
    </g>
    <g clip-path="url(#p2248def12d)">
     <use xlink:href="#C0_0_7a9d7a95e5" x="177.487513" y="189.03574" style="fill: #e91e63; stroke: #e91e63"/>
    </g>
    <g clip-path="url(#p2248def12d)">
     <use xlink:href="#C0_0_7a9d7a95e5" x="712.069197" y="72.197787" style="fill: #1e88e5; stroke: #1e88e5"/>
    </g>
    <g clip-path="url(#p2248def12d)">
     <use xlink:href="#C0_0_7a9d7a95e5" x="712.134964" y="135.399689" style="fill: #1e88e5; stroke: #1e88e5"/>
    </g>
    <g clip-path="url(#p2248def12d)">
     <use xlink:href="#C0_0_7a9d7a95e5" x="687.985004" y="203.284878" style="fill: #1e88e5; stroke: #1e88e5"/>
    </g>
    <g clip-path="url(#p2248def12d)">
     <use xlink:href="#C0_0_7a9d7a95e5" x="773.592694" y="206.652134" style="fill: #1e88e5; stroke: #1e88e5"/>
    </g>
    <g clip-path="url(#p2248def12d)">
     <use xlink:href="#C0_0_7a9d7a95e5" x="634.709555" y="37.487603" style="fill: #1e88e5; stroke: #1e88e5"/>
    </g>
    <g clip-path="url(#p2248def12d)">
     <use xlink:href="#C0_0_7a9d7a95e5" x="582.727415" y="147.904114" style="fill: #1e88e5; stroke: #1e88e5"/>
    </g>
    <g clip-path="url(#p2248def12d)">
     <use xlink:href="#C0_0_7a9d7a95e5" x="542.667157" y="228.898729" style="fill: #1e88e5; stroke: #1e88e5"/>
    </g>
    <g clip-path="url(#p2248def12d)">
     <use xlink:href="#C0_0_7a9d7a95e5" x="659.733603" y="80.618126" style="fill: #1e88e5; stroke: #1e88e5"/>
    </g>
    <g clip-path="url(#p2248def12d)">
     <use xlink:href="#C0_0_7a9d7a95e5" x="490.936453" y="121.744457" style="fill: #1e88e5; stroke: #1e88e5"/>
    </g>
    <g clip-path="url(#p2248def12d)">
     <use xlink:href="#C0_0_7a9d7a95e5" x="576.724197" y="207.869937" style="fill: #1e88e5; stroke: #1e88e5"/>
    </g>
    <g clip-path="url(#p2248def12d)">
     <use xlink:href="#C0_0_7a9d7a95e5" x="648.539195" y="142.420636" style="fill: #1e88e5; stroke: #1e88e5"/>
    </g>
    <g clip-path="url(#p2248def12d)">
     <use xlink:href="#C0_0_7a9d7a95e5" x="616.053354" y="147.443219" style="fill: #1e88e5; stroke: #1e88e5"/>
    </g>
   </g>
   <g id="text_1">
    <g clip-path="url(#p2248def12d)">
     <!-- 1 -->
     <g style="fill: #ffffff" transform="translate(298.202175 243.506212) scale(0.12 -0.12)">
      <defs>
       <path id="DejaVuSans-31" d="M 794 531 
L 1825 531 
L 1825 4091 
L 703 3866 
L 703 4441 
L 1819 4666 
L 2450 4666 
L 2450 531 
L 3481 531 
L 3481 0 
L 794 0 
L 794 531 
z
" transform="scale(0.015625)"/>
      </defs>
      <use xlink:href="#DejaVuSans-31"/>
     </g>
    </g>
   </g>
   <g id="text_2">
    <g clip-path="url(#p2248def12d)">
     <!-- 2 -->
     <g style="fill: #ffffff" transform="translate(320.745606 169.814822) scale(0.12 -0.12)">
      <defs>
       <path id="DejaVuSans-32" d="M 1228 531 
L 3431 531 
L 3431 0 
L 469 0 
L 469 531 
Q 828 903 1448 1529 
Q 2069 2156 2228 2338 
Q 2531 2678 2651 2914 
Q 2772 3150 2772 3378 
Q 2772 3750 2511 3984 
Q 2250 4219 1831 4219 
Q 1534 4219 1204 4116 
Q 875 4013 500 3803 
L 500 4441 
Q 881 4594 1212 4672 
Q 1544 4750 1819 4750 
Q 2544 4750 2975 4387 
Q 3406 4025 3406 3419 
Q 3406 3131 3298 2873 
Q 3191 2616 2906 2266 
Q 2828 2175 2409 1742 
Q 1991 1309 1228 531 
z
" transform="scale(0.015625)"/>
      </defs>
      <use xlink:href="#DejaVuSans-32"/>
     </g>
    </g>
   </g>
   <g id="text_3">
    <g clip-path="url(#p2248def12d)">
     <!-- 3 -->
     <g style="fill: #ffffff" transform="translate(448.287293 201.3727) scale(0.12 -0.12)">
      <defs>
       <path id="DejaVuSans-33" d="M 2597 2516 
Q 3050 2419 3304 2112 
Q 3559 1806 3559 1356 
Q 3559 666 3084 287 
Q 2609 -91 1734 -91 
Q 1441 -91 1130 -33 
Q 819 25 488 141 
L 488 750 
Q 750 597 1062 519 
Q 1375 441 1716 441 
Q 2309 441 2620 675 
Q 2931 909 2931 1356 
Q 2931 1769 2642 2001 
Q 2353 2234 1838 2234 
L 1294 2234 
L 1294 2753 
L 1863 2753 
Q 2328 2753 2575 2939 
Q 2822 3125 2822 3475 
Q 2822 3834 2567 4026 
Q 2313 4219 1838 4219 
Q 1578 4219 1281 4162 
Q 984 4106 628 3988 
L 628 4550 
Q 988 4650 1302 4700 
Q 1616 4750 1894 4750 
Q 2613 4750 3031 4423 
Q 3450 4097 3450 3541 
Q 3450 3153 3228 2886 
Q 3006 2619 2597 2516 
z
" transform="scale(0.015625)"/>
      </defs>
      <use xlink:href="#DejaVuSans-33"/>
     </g>
    </g>
   </g>
   <g id="text_4">
    <g clip-path="url(#p2248def12d)">
     <!-- 4 -->
     <g style="fill: #ffffff" transform="translate(295.834726 216.363649) scale(0.12 -0.12)">
      <defs>
       <path id="DejaVuSans-34" d="M 2419 4116 
L 825 1625 
L 2419 1625 
L 2419 4116 
z
M 2253 4666 
L 3047 4666 
L 3047 1625 
L 3713 1625 
L 3713 1100 
L 3047 1100 
L 3047 0 
L 2419 0 
L 2419 1100 
L 313 1100 
L 313 1709 
L 2253 4666 
z
" transform="scale(0.015625)"/>
      </defs>
      <use xlink:href="#DejaVuSans-34"/>
     </g>
    </g>
   </g>
   <g id="text_5">
    <g clip-path="url(#p2248def12d)">
     <!-- 5 -->
     <g style="fill: #ffffff" transform="translate(127.889486 289.507672) scale(0.12 -0.12)">
      <defs>
       <path id="DejaVuSans-35" d="M 691 4666 
L 3169 4666 
L 3169 4134 
L 1269 4134 
L 1269 2991 
Q 1406 3038 1543 3061 
Q 1681 3084 1819 3084 
Q 2600 3084 3056 2656 
Q 3513 2228 3513 1497 
Q 3513 744 3044 326 
Q 2575 -91 1722 -91 
Q 1428 -91 1123 -41 
Q 819 9 494 109 
L 494 744 
Q 775 591 1075 516 
Q 1375 441 1709 441 
Q 2250 441 2565 725 
Q 2881 1009 2881 1497 
Q 2881 1984 2565 2268 
Q 2250 2553 1709 2553 
Q 1456 2553 1204 2497 
Q 953 2441 691 2322 
L 691 4666 
z
" transform="scale(0.015625)"/>
      </defs>
      <use xlink:href="#DejaVuSans-35"/>
     </g>
    </g>
   </g>
   <g id="text_6">
    <g clip-path="url(#p2248def12d)">
     <!-- 6 -->
     <g style="fill: #ffffff" transform="translate(178.381289 349.153619) scale(0.12 -0.12)">
      <defs>
       <path id="DejaVuSans-36" d="M 2113 2584 
Q 1688 2584 1439 2293 
Q 1191 2003 1191 1497 
Q 1191 994 1439 701 
Q 1688 409 2113 409 
Q 2538 409 2786 701 
Q 3034 994 3034 1497 
Q 3034 2003 2786 2293 
Q 2538 2584 2113 2584 
z
M 3366 4563 
L 3366 3988 
Q 3128 4100 2886 4159 
Q 2644 4219 2406 4219 
Q 1781 4219 1451 3797 
Q 1122 3375 1075 2522 
Q 1259 2794 1537 2939 
Q 1816 3084 2150 3084 
Q 2853 3084 3261 2657 
Q 3669 2231 3669 1497 
Q 3669 778 3244 343 
Q 2819 -91 2113 -91 
Q 1303 -91 875 529 
Q 447 1150 447 2328 
Q 447 3434 972 4092 
Q 1497 4750 2381 4750 
Q 2619 4750 2861 4703 
Q 3103 4656 3366 4563 
z
" transform="scale(0.015625)"/>
      </defs>
      <use xlink:href="#DejaVuSans-36"/>
     </g>
    </g>
   </g>
   <g id="text_7">
    <g clip-path="url(#p2248def12d)">
     <!-- 7 -->
     <g style="fill: #ffffff" transform="translate(128.810632 331.584606) scale(0.12 -0.12)">
      <defs>
       <path id="DejaVuSans-37" d="M 525 4666 
L 3525 4666 
L 3525 4397 
L 1831 0 
L 1172 0 
L 2766 4134 
L 525 4134 
L 525 4666 
z
" transform="scale(0.015625)"/>
      </defs>
      <use xlink:href="#DejaVuSans-37"/>
     </g>
    </g>
   </g>
   <g id="text_8">
    <g clip-path="url(#p2248def12d)">
     <!-- 8 -->
     <g style="fill: #ffffff" transform="translate(284.150171 191.322148) scale(0.12 -0.12)">
      <defs>
       <path id="DejaVuSans-38" d="M 2034 2216 
Q 1584 2216 1326 1975 
Q 1069 1734 1069 1313 
Q 1069 891 1326 650 
Q 1584 409 2034 409 
Q 2484 409 2743 651 
Q 3003 894 3003 1313 
Q 3003 1734 2745 1975 
Q 2488 2216 2034 2216 
z
M 1403 2484 
Q 997 2584 770 2862 
Q 544 3141 544 3541 
Q 544 4100 942 4425 
Q 1341 4750 2034 4750 
Q 2731 4750 3128 4425 
Q 3525 4100 3525 3541 
Q 3525 3141 3298 2862 
Q 3072 2584 2669 2484 
Q 3125 2378 3379 2068 
Q 3634 1759 3634 1313 
Q 3634 634 3220 271 
Q 2806 -91 2034 -91 
Q 1263 -91 848 271 
Q 434 634 434 1313 
Q 434 1759 690 2068 
Q 947 2378 1403 2484 
z
M 1172 3481 
Q 1172 3119 1398 2916 
Q 1625 2713 2034 2713 
Q 2441 2713 2670 2916 
Q 2900 3119 2900 3481 
Q 2900 3844 2670 4047 
Q 2441 4250 2034 4250 
Q 1625 4250 1398 4047 
Q 1172 3844 1172 3481 
z
" transform="scale(0.015625)"/>
      </defs>
      <use xlink:href="#DejaVuSans-38"/>
     </g>
    </g>
   </g>
   <g id="text_9">
    <g clip-path="url(#p2248def12d)">
     <!-- 9 -->
     <g style="fill: #ffffff" transform="translate(484.831893 174.413316) scale(0.12 -0.12)">
      <defs>
       <path id="DejaVuSans-39" d="M 703 97 
L 703 672 
Q 941 559 1184 500 
Q 1428 441 1663 441 
Q 2288 441 2617 861 
Q 2947 1281 2994 2138 
Q 2813 1869 2534 1725 
Q 2256 1581 1919 1581 
Q 1219 1581 811 2004 
Q 403 2428 403 3163 
Q 403 3881 828 4315 
Q 1253 4750 1959 4750 
Q 2769 4750 3195 4129 
Q 3622 3509 3622 2328 
Q 3622 1225 3098 567 
Q 2575 -91 1691 -91 
Q 1453 -91 1209 -44 
Q 966 3 703 97 
z
M 1959 2075 
Q 2384 2075 2632 2365 
Q 2881 2656 2881 3163 
Q 2881 3666 2632 3958 
Q 2384 4250 1959 4250 
Q 1534 4250 1286 3958 
Q 1038 3666 1038 3163 
Q 1038 2656 1286 2365 
Q 1534 2075 1959 2075 
z
" transform="scale(0.015625)"/>
      </defs>
      <use xlink:href="#DejaVuSans-39"/>
     </g>
    </g>
   </g>
   <g id="text_10">
    <g clip-path="url(#p2248def12d)">
     <!-- 10 -->
     <g style="fill: #ffffff" transform="translate(586.108125 244.909658) scale(0.12 -0.12)">
      <defs>
       <path id="DejaVuSans-30" d="M 2034 4250 
Q 1547 4250 1301 3770 
Q 1056 3291 1056 2328 
Q 1056 1369 1301 889 
Q 1547 409 2034 409 
Q 2525 409 2770 889 
Q 3016 1369 3016 2328 
Q 3016 3291 2770 3770 
Q 2525 4250 2034 4250 
z
M 2034 4750 
Q 2819 4750 3233 4129 
Q 3647 3509 3647 2328 
Q 3647 1150 3233 529 
Q 2819 -91 2034 -91 
Q 1250 -91 836 529 
Q 422 1150 422 2328 
Q 422 3509 836 4129 
Q 1250 4750 2034 4750 
z
" transform="scale(0.015625)"/>
      </defs>
      <use xlink:href="#DejaVuSans-31"/>
      <use xlink:href="#DejaVuSans-30" x="63.623047"/>
     </g>
    </g>
   </g>
   <g id="text_11">
    <g clip-path="url(#p2248def12d)">
     <!-- 11 -->
     <g style="fill: #ffffff" transform="translate(190.045664 310.387068) scale(0.12 -0.12)">
      <use xlink:href="#DejaVuSans-31"/>
      <use xlink:href="#DejaVuSans-31" x="63.623047"/>
     </g>
    </g>
   </g>
   <g id="text_12">
    <g clip-path="url(#p2248def12d)">
     <!-- 12 -->
     <g style="fill: #ffffff" transform="translate(305.050445 342.554906) scale(0.12 -0.12)">
      <use xlink:href="#DejaVuSans-31"/>
      <use xlink:href="#DejaVuSans-32" x="63.623047"/>
     </g>
    </g>
   </g>
   <g id="text_13">
    <g clip-path="url(#p2248def12d)">
     <!-- 13 -->
     <g style="fill: #ffffff" transform="translate(161.957989 237.758484) scale(0.12 -0.12)">
      <use xlink:href="#DejaVuSans-31"/>
      <use xlink:href="#DejaVuSans-33" x="63.623047"/>
     </g>
    </g>
   </g>
   <g id="text_14">
    <g clip-path="url(#p2248def12d)">
     <!-- 14 -->
     <g style="fill: #ffffff" transform="translate(397.320003 196.578072) scale(0.12 -0.12)">
      <use xlink:href="#DejaVuSans-31"/>
      <use xlink:href="#DejaVuSans-34" x="63.623047"/>
     </g>
    </g>
   </g>
   <g id="text_15">
    <g clip-path="url(#p2248def12d)">
     <!-- 15 -->
     <g style="fill: #ffffff" transform="translate(726.239165 211.761389) scale(0.12 -0.12)">
      <use xlink:href="#DejaVuSans-31"/>
      <use xlink:href="#DejaVuSans-35" x="63.623047"/>
     </g>
    </g>
   </g>
   <g id="text_16">
    <g clip-path="url(#p2248def12d)">
     <!-- 16 -->
     <g style="fill: #ffffff" transform="translate(750.063142 96.697956) scale(0.12 -0.12)">
      <use xlink:href="#DejaVuSans-31"/>
      <use xlink:href="#DejaVuSans-36" x="63.623047"/>
     </g>
    </g>
   </g>
   <g id="text_17">
    <g clip-path="url(#p2248def12d)">
     <!-- 17 -->
     <g style="fill: #ffffff" transform="translate(67.340207 397.823647) scale(0.12 -0.12)">
      <use xlink:href="#DejaVuSans-31"/>
      <use xlink:href="#DejaVuSans-37" x="63.623047"/>
     </g>
    </g>
   </g>
   <g id="text_18">
    <g clip-path="url(#p2248def12d)">
     <!-- 18 -->
     <g style="fill: #ffffff" transform="translate(189.714922 162.337607) scale(0.12 -0.12)">
      <use xlink:href="#DejaVuSans-31"/>
      <use xlink:href="#DejaVuSans-38" x="63.623047"/>
     </g>
    </g>
   </g>
   <g id="text_19">
    <g clip-path="url(#p2248def12d)">
     <!-- 19 -->
     <g style="fill: #ffffff" transform="translate(769.170109 163.01225) scale(0.12 -0.12)">
      <use xlink:href="#DejaVuSans-31"/>
      <use xlink:href="#DejaVuSans-39" x="63.623047"/>
     </g>
    </g>
   </g>
   <g id="text_20">
    <g clip-path="url(#p2248def12d)">
     <!-- 20 -->
     <g style="fill: #ffffff" transform="translate(399.705458 159.568741) scale(0.12 -0.12)">
      <use xlink:href="#DejaVuSans-32"/>
      <use xlink:href="#DejaVuSans-30" x="63.623047"/>
     </g>
    </g>
   </g>
   <g id="text_21">
    <g clip-path="url(#p2248def12d)">
     <!-- 21 -->
     <g style="fill: #ffffff" transform="translate(781.389793 126.933062) scale(0.12 -0.12)">
      <use xlink:href="#DejaVuSans-32"/>
      <use xlink:href="#DejaVuSans-31" x="63.623047"/>
     </g>
    </g>
   </g>
   <g id="text_22">
    <g clip-path="url(#p2248def12d)">
     <!-- 22 -->
     <g style="fill: #ffffff" transform="translate(169.852513 192.34699) scale(0.12 -0.12)">
      <use xlink:href="#DejaVuSans-32"/>
      <use xlink:href="#DejaVuSans-32" x="63.623047"/>
     </g>
    </g>
   </g>
   <g id="text_23">
    <g clip-path="url(#p2248def12d)">
     <!-- 23 -->
     <g style="fill: #ffffff" transform="translate(704.434197 75.509037) scale(0.12 -0.12)">
      <use xlink:href="#DejaVuSans-32"/>
      <use xlink:href="#DejaVuSans-33" x="63.623047"/>
     </g>
    </g>
   </g>
   <g id="text_24">
    <g clip-path="url(#p2248def12d)">
     <!-- 24 -->
     <g style="fill: #ffffff" transform="translate(704.499964 138.710939) scale(0.12 -0.12)">
      <use xlink:href="#DejaVuSans-32"/>
      <use xlink:href="#DejaVuSans-34" x="63.623047"/>
     </g>
    </g>
   </g>
   <g id="text_25">
    <g clip-path="url(#p2248def12d)">
     <!-- 25 -->
     <g style="fill: #ffffff" transform="translate(680.350004 206.596128) scale(0.12 -0.12)">
      <use xlink:href="#DejaVuSans-32"/>
      <use xlink:href="#DejaVuSans-35" x="63.623047"/>
     </g>
    </g>
   </g>
   <g id="text_26">
    <g clip-path="url(#p2248def12d)">
     <!-- 26 -->
     <g style="fill: #ffffff" transform="translate(765.957694 209.963384) scale(0.12 -0.12)">
      <use xlink:href="#DejaVuSans-32"/>
      <use xlink:href="#DejaVuSans-36" x="63.623047"/>
     </g>
    </g>
   </g>
   <g id="text_27">
    <g clip-path="url(#p2248def12d)">
     <!-- 27 -->
     <g style="fill: #ffffff" transform="translate(627.074555 40.798853) scale(0.12 -0.12)">
      <use xlink:href="#DejaVuSans-32"/>
      <use xlink:href="#DejaVuSans-37" x="63.623047"/>
     </g>
    </g>
   </g>
   <g id="text_28">
    <g clip-path="url(#p2248def12d)">
     <!-- 28 -->
     <g style="fill: #ffffff" transform="translate(575.092415 151.215364) scale(0.12 -0.12)">
      <use xlink:href="#DejaVuSans-32"/>
      <use xlink:href="#DejaVuSans-38" x="63.623047"/>
     </g>
    </g>
   </g>
   <g id="text_29">
    <g clip-path="url(#p2248def12d)">
     <!-- 29 -->
     <g style="fill: #ffffff" transform="translate(535.032157 232.209979) scale(0.12 -0.12)">
      <use xlink:href="#DejaVuSans-32"/>
      <use xlink:href="#DejaVuSans-39" x="63.623047"/>
     </g>
    </g>
   </g>
   <g id="text_30">
    <g clip-path="url(#p2248def12d)">
     <!-- 30 -->
     <g style="fill: #ffffff" transform="translate(652.098603 83.929376) scale(0.12 -0.12)">
      <use xlink:href="#DejaVuSans-33"/>
      <use xlink:href="#DejaVuSans-30" x="63.623047"/>
     </g>
    </g>
   </g>
   <g id="text_31">
    <g clip-path="url(#p2248def12d)">
     <!-- 31 -->
     <g style="fill: #ffffff" transform="translate(483.301453 125.055707) scale(0.12 -0.12)">
      <use xlink:href="#DejaVuSans-33"/>
      <use xlink:href="#DejaVuSans-31" x="63.623047"/>
     </g>
    </g>
   </g>
   <g id="text_32">
    <g clip-path="url(#p2248def12d)">
     <!-- 32 -->
     <g style="fill: #ffffff" transform="translate(569.089197 211.181187) scale(0.12 -0.12)">
      <use xlink:href="#DejaVuSans-33"/>
      <use xlink:href="#DejaVuSans-32" x="63.623047"/>
     </g>
    </g>
   </g>
   <g id="text_33">
    <g clip-path="url(#p2248def12d)">
     <!-- 33 -->
     <g style="fill: #ffffff" transform="translate(640.904195 145.731886) scale(0.12 -0.12)">
      <use xlink:href="#DejaVuSans-33"/>
      <use xlink:href="#DejaVuSans-33" x="63.623047"/>
     </g>
    </g>
   </g>
   <g id="text_34">
    <g clip-path="url(#p2248def12d)">
     <!-- 34 -->
     <g style="fill: #ffffff" transform="translate(608.418354 150.754469) scale(0.12 -0.12)">
      <use xlink:href="#DejaVuSans-33"/>
      <use xlink:href="#DejaVuSans-34" x="63.623047"/>
     </g>
    </g>
   </g>
  </g>
 </g>
 <defs>
  <clipPath id="p2248def12d">
   <rect x="0" y="0" width="864" height="432"/>
  </clipPath>
 </defs>
</svg>
