<?xml version="1.0" encoding="utf-8" standalone="no"?>
<!DOCTYPE svg PUBLIC "-//W3C//DTD SVG 1.1//EN"
  "http://www.w3.org/Graphics/SVG/1.1/DTD/svg11.dtd">
<svg xmlns:xlink="http://www.w3.org/1999/xlink" width="460.8pt" height="345.6pt" viewBox="0 0 460.8 345.6" xmlns="http://www.w3.org/2000/svg" version="1.1">
 <metadata>
  <rdf:RDF xmlns:dc="http://purl.org/dc/elements/1.1/" xmlns:cc="http://creativecommons.org/ns#" xmlns:rdf="http://www.w3.org/1999/02/22-rdf-syntax-ns#">
   <cc:Work>
    <dc:type rdf:resource="http://purl.org/dc/dcmitype/StillImage"/>
    <dc:date>2023-10-29T18:53:00.482273</dc:date>
    <dc:format>image/svg+xml</dc:format>
    <dc:creator>
     <cc:Agent>
      <dc:title>Matplotlib v3.8.0, https://matplotlib.org/</dc:title>
     </cc:Agent>
    </dc:creator>
   </cc:Work>
  </rdf:RDF>
 </metadata>
 <defs>
  <style type="text/css">*{stroke-linejoin: round; stroke-linecap: butt}</style>
 </defs>
 <g id="figure_1">
  <g id="patch_1">
   <path d="M 0 345.6 
L 460.8 345.6 
L 460.8 0 
L 0 0 
z
" style="fill: #ffffff"/>
  </g>
  <g id="axes_1">
   <g id="LineCollection_1">
    <path d="M 179.934063 189.421432 
L 189.750452 142.401133 
" clip-path="url(#pe1c2f0f1ca)" style="fill: none; stroke: #1a1a1a; stroke-opacity: 0.5; stroke-width: 2"/>
    <path d="M 179.934063 189.421432 
L 178.903172 172.102564 
" clip-path="url(#pe1c2f0f1ca)" style="fill: none; stroke: #1a1a1a; stroke-opacity: 0.5; stroke-width: 2"/>
    <path d="M 179.934063 189.421432 
L 105.772521 218.773605 
" clip-path="url(#pe1c2f0f1ca)" style="fill: none; stroke: #1a1a1a; stroke-opacity: 0.5; stroke-width: 2"/>
    <path d="M 179.934063 189.421432 
L 127.758845 256.831922 
" clip-path="url(#pe1c2f0f1ca)" style="fill: none; stroke: #1a1a1a; stroke-opacity: 0.5; stroke-width: 2"/>
    <path d="M 179.934063 189.421432 
L 106.173628 245.621654 
" clip-path="url(#pe1c2f0f1ca)" style="fill: none; stroke: #1a1a1a; stroke-opacity: 0.5; stroke-width: 2"/>
    <path d="M 179.934063 189.421432 
L 173.81521 156.124322 
" clip-path="url(#pe1c2f0f1ca)" style="fill: none; stroke: #1a1a1a; stroke-opacity: 0.5; stroke-width: 2"/>
    <path d="M 179.934063 189.421432 
L 134.500326 232.096131 
" clip-path="url(#pe1c2f0f1ca)" style="fill: none; stroke: #1a1a1a; stroke-opacity: 0.5; stroke-width: 2"/>
    <path d="M 179.934063 189.421432 
L 184.578402 252.621478 
" clip-path="url(#pe1c2f0f1ca)" style="fill: none; stroke: #1a1a1a; stroke-opacity: 0.5; stroke-width: 2"/>
    <path d="M 179.934063 189.421432 
L 122.269732 185.753977 
" clip-path="url(#pe1c2f0f1ca)" style="fill: none; stroke: #1a1a1a; stroke-opacity: 0.5; stroke-width: 2"/>
    <path d="M 179.934063 189.421432 
L 224.756575 159.477972 
" clip-path="url(#pe1c2f0f1ca)" style="fill: none; stroke: #1a1a1a; stroke-opacity: 0.5; stroke-width: 2"/>
    <path d="M 179.934063 189.421432 
L 81.069041 287.886829 
" clip-path="url(#pe1c2f0f1ca)" style="fill: none; stroke: #1a1a1a; stroke-opacity: 0.5; stroke-width: 2"/>
    <path d="M 179.934063 189.421432 
L 134.356306 137.630143 
" clip-path="url(#pe1c2f0f1ca)" style="fill: none; stroke: #1a1a1a; stroke-opacity: 0.5; stroke-width: 2"/>
    <path d="M 179.934063 189.421432 
L 225.795306 135.863411 
" clip-path="url(#pe1c2f0f1ca)" style="fill: none; stroke: #1a1a1a; stroke-opacity: 0.5; stroke-width: 2"/>
    <path d="M 179.934063 189.421432 
L 125.707351 156.778243 
" clip-path="url(#pe1c2f0f1ca)" style="fill: none; stroke: #1a1a1a; stroke-opacity: 0.5; stroke-width: 2"/>
   </g>
   <g id="LineCollection_2">
    <path d="M 316.677965 130.239284 
L 306.963123 190.316929 
" clip-path="url(#pe1c2f0f1ca)" style="fill: none; stroke: #1a1a1a; stroke-opacity: 0.5; stroke-width: 2"/>
    <path d="M 316.677965 130.239284 
L 367.982263 169.165998 
" clip-path="url(#pe1c2f0f1ca)" style="fill: none; stroke: #1a1a1a; stroke-opacity: 0.5; stroke-width: 2"/>
    <path d="M 316.677965 130.239284 
L 378.356258 95.74742 
" clip-path="url(#pe1c2f0f1ca)" style="fill: none; stroke: #1a1a1a; stroke-opacity: 0.5; stroke-width: 2"/>
    <path d="M 316.677965 130.239284 
L 386.676261 138.060612 
" clip-path="url(#pe1c2f0f1ca)" style="fill: none; stroke: #1a1a1a; stroke-opacity: 0.5; stroke-width: 2"/>
    <path d="M 316.677965 130.239284 
L 391.997242 115.039548 
" clip-path="url(#pe1c2f0f1ca)" style="fill: none; stroke: #1a1a1a; stroke-opacity: 0.5; stroke-width: 2"/>
    <path d="M 316.677965 130.239284 
L 358.487433 82.227397 
" clip-path="url(#pe1c2f0f1ca)" style="fill: none; stroke: #1a1a1a; stroke-opacity: 0.5; stroke-width: 2"/>
    <path d="M 316.677965 130.239284 
L 358.516071 122.554663 
" clip-path="url(#pe1c2f0f1ca)" style="fill: none; stroke: #1a1a1a; stroke-opacity: 0.5; stroke-width: 2"/>
    <path d="M 316.677965 130.239284 
L 348.00013 165.870197 
" clip-path="url(#pe1c2f0f1ca)" style="fill: none; stroke: #1a1a1a; stroke-opacity: 0.5; stroke-width: 2"/>
    <path d="M 316.677965 130.239284 
L 385.277436 168.018744 
" clip-path="url(#pe1c2f0f1ca)" style="fill: none; stroke: #1a1a1a; stroke-opacity: 0.5; stroke-width: 2"/>
    <path d="M 316.677965 130.239284 
L 324.801685 60.079854 
" clip-path="url(#pe1c2f0f1ca)" style="fill: none; stroke: #1a1a1a; stroke-opacity: 0.5; stroke-width: 2"/>
    <path d="M 316.677965 130.239284 
L 302.166404 130.533368 
" clip-path="url(#pe1c2f0f1ca)" style="fill: none; stroke: #1a1a1a; stroke-opacity: 0.5; stroke-width: 2"/>
    <path d="M 316.677965 130.239284 
L 284.722428 182.213639 
" clip-path="url(#pe1c2f0f1ca)" style="fill: none; stroke: #1a1a1a; stroke-opacity: 0.5; stroke-width: 2"/>
    <path d="M 316.677965 130.239284 
L 335.698243 87.600167 
" clip-path="url(#pe1c2f0f1ca)" style="fill: none; stroke: #1a1a1a; stroke-opacity: 0.5; stroke-width: 2"/>
    <path d="M 316.677965 130.239284 
L 262.196633 113.841664 
" clip-path="url(#pe1c2f0f1ca)" style="fill: none; stroke: #1a1a1a; stroke-opacity: 0.5; stroke-width: 2"/>
    <path d="M 316.677965 130.239284 
L 299.552342 168.795788 
" clip-path="url(#pe1c2f0f1ca)" style="fill: none; stroke: #1a1a1a; stroke-opacity: 0.5; stroke-width: 2"/>
    <path d="M 316.677965 130.239284 
L 330.823711 127.034523 
" clip-path="url(#pe1c2f0f1ca)" style="fill: none; stroke: #1a1a1a; stroke-opacity: 0.5; stroke-width: 2"/>
   </g>
   <g id="PathCollection_1">
    <defs>
     <path id="mb84859b293" d="M 0 7.071068 
C 1.875269 7.071068 3.673985 6.326016 5 5 
C 6.326016 3.673985 7.071068 1.875269 7.071068 0 
C 7.071068 -1.875269 6.326016 -3.673985 5 -5 
C 3.673985 -6.326016 1.875269 -7.071068 0 -7.071068 
C -1.875269 -7.071068 -3.673985 -6.326016 -5 -5 
C -6.326016 -3.673985 -7.071068 -1.875269 -7.071068 0 
C -7.071068 1.875269 -6.326016 3.673985 -5 5 
C -3.673985 6.326016 -1.875269 7.071068 0 7.071068 
z
" style="stroke: #7f7f7f; stroke-opacity: 0.9"/>
    </defs>
    <g clip-path="url(#pe1c2f0f1ca)">
     <use xlink:href="#mb84859b293" x="179.934063" y="189.421432" style="fill: #e91e63; fill-opacity: 0.9; stroke: #7f7f7f; stroke-opacity: 0.9"/>
     <use xlink:href="#mb84859b293" x="189.750452" y="142.401133" style="fill: #e91e63; fill-opacity: 0.9; stroke: #7f7f7f; stroke-opacity: 0.9"/>
     <use xlink:href="#mb84859b293" x="178.903172" y="172.102564" style="fill: #e91e63; fill-opacity: 0.9; stroke: #7f7f7f; stroke-opacity: 0.9"/>
     <use xlink:href="#mb84859b293" x="105.772521" y="218.773605" style="fill: #e91e63; fill-opacity: 0.9; stroke: #7f7f7f; stroke-opacity: 0.9"/>
     <use xlink:href="#mb84859b293" x="127.758845" y="256.831922" style="fill: #e91e63; fill-opacity: 0.9; stroke: #7f7f7f; stroke-opacity: 0.9"/>
     <use xlink:href="#mb84859b293" x="106.173628" y="245.621654" style="fill: #e91e63; fill-opacity: 0.9; stroke: #7f7f7f; stroke-opacity: 0.9"/>
     <use xlink:href="#mb84859b293" x="173.81521" y="156.124322" style="fill: #e91e63; fill-opacity: 0.9; stroke: #7f7f7f; stroke-opacity: 0.9"/>
     <use xlink:href="#mb84859b293" x="134.500326" y="232.096131" style="fill: #e91e63; fill-opacity: 0.9; stroke: #7f7f7f; stroke-opacity: 0.9"/>
     <use xlink:href="#mb84859b293" x="184.578402" y="252.621478" style="fill: #e91e63; fill-opacity: 0.9; stroke: #7f7f7f; stroke-opacity: 0.9"/>
     <use xlink:href="#mb84859b293" x="122.269732" y="185.753977" style="fill: #e91e63; fill-opacity: 0.9; stroke: #7f7f7f; stroke-opacity: 0.9"/>
     <use xlink:href="#mb84859b293" x="224.756575" y="159.477972" style="fill: #e91e63; fill-opacity: 0.9; stroke: #7f7f7f; stroke-opacity: 0.9"/>
     <use xlink:href="#mb84859b293" x="81.069041" y="287.886829" style="fill: #e91e63; fill-opacity: 0.9; stroke: #7f7f7f; stroke-opacity: 0.9"/>
     <use xlink:href="#mb84859b293" x="134.356306" y="137.630143" style="fill: #e91e63; fill-opacity: 0.9; stroke: #7f7f7f; stroke-opacity: 0.9"/>
     <use xlink:href="#mb84859b293" x="225.795306" y="135.863411" style="fill: #e91e63; fill-opacity: 0.9; stroke: #7f7f7f; stroke-opacity: 0.9"/>
     <use xlink:href="#mb84859b293" x="125.707351" y="156.778243" style="fill: #e91e63; fill-opacity: 0.9; stroke: #7f7f7f; stroke-opacity: 0.9"/>
    </g>
   </g>
   <g id="PathCollection_2">
    <defs>
     <path id="mfd483c0997" d="M 0 7.071068 
C 1.875269 7.071068 3.673985 6.326016 5 5 
C 6.326016 3.673985 7.071068 1.875269 7.071068 0 
C 7.071068 -1.875269 6.326016 -3.673985 5 -5 
C 3.673985 -6.326016 1.875269 -7.071068 0 -7.071068 
C -1.875269 -7.071068 -3.673985 -6.326016 -5 -5 
C -6.326016 -3.673985 -7.071068 -1.875269 -7.071068 0 
C -7.071068 1.875269 -6.326016 3.673985 -5 5 
C -3.673985 6.326016 -1.875269 7.071068 0 7.071068 
z
" style="stroke: #7f7f7f; stroke-opacity: 0.9"/>
    </defs>
    <g clip-path="url(#pe1c2f0f1ca)">
     <use xlink:href="#mfd483c0997" x="306.963123" y="190.316929" style="fill: #1e88e5; fill-opacity: 0.9; stroke: #7f7f7f; stroke-opacity: 0.9"/>
     <use xlink:href="#mfd483c0997" x="367.982263" y="169.165998" style="fill: #1e88e5; fill-opacity: 0.9; stroke: #7f7f7f; stroke-opacity: 0.9"/>
     <use xlink:href="#mfd483c0997" x="378.356258" y="95.74742" style="fill: #1e88e5; fill-opacity: 0.9; stroke: #7f7f7f; stroke-opacity: 0.9"/>
     <use xlink:href="#mfd483c0997" x="386.676261" y="138.060612" style="fill: #1e88e5; fill-opacity: 0.9; stroke: #7f7f7f; stroke-opacity: 0.9"/>
     <use xlink:href="#mfd483c0997" x="391.997242" y="115.039548" style="fill: #1e88e5; fill-opacity: 0.9; stroke: #7f7f7f; stroke-opacity: 0.9"/>
     <use xlink:href="#mfd483c0997" x="358.487433" y="82.227397" style="fill: #1e88e5; fill-opacity: 0.9; stroke: #7f7f7f; stroke-opacity: 0.9"/>
     <use xlink:href="#mfd483c0997" x="358.516071" y="122.554663" style="fill: #1e88e5; fill-opacity: 0.9; stroke: #7f7f7f; stroke-opacity: 0.9"/>
     <use xlink:href="#mfd483c0997" x="348.00013" y="165.870197" style="fill: #1e88e5; fill-opacity: 0.9; stroke: #7f7f7f; stroke-opacity: 0.9"/>
     <use xlink:href="#mfd483c0997" x="385.277436" y="168.018744" style="fill: #1e88e5; fill-opacity: 0.9; stroke: #7f7f7f; stroke-opacity: 0.9"/>
     <use xlink:href="#mfd483c0997" x="324.801685" y="60.079854" style="fill: #1e88e5; fill-opacity: 0.9; stroke: #7f7f7f; stroke-opacity: 0.9"/>
     <use xlink:href="#mfd483c0997" x="302.166404" y="130.533368" style="fill: #1e88e5; fill-opacity: 0.9; stroke: #7f7f7f; stroke-opacity: 0.9"/>
     <use xlink:href="#mfd483c0997" x="284.722428" y="182.213639" style="fill: #1e88e5; fill-opacity: 0.9; stroke: #7f7f7f; stroke-opacity: 0.9"/>
     <use xlink:href="#mfd483c0997" x="335.698243" y="87.600167" style="fill: #1e88e5; fill-opacity: 0.9; stroke: #7f7f7f; stroke-opacity: 0.9"/>
     <use xlink:href="#mfd483c0997" x="262.196633" y="113.841664" style="fill: #1e88e5; fill-opacity: 0.9; stroke: #7f7f7f; stroke-opacity: 0.9"/>
     <use xlink:href="#mfd483c0997" x="299.552342" y="168.795788" style="fill: #1e88e5; fill-opacity: 0.9; stroke: #7f7f7f; stroke-opacity: 0.9"/>
     <use xlink:href="#mfd483c0997" x="330.823711" y="127.034523" style="fill: #1e88e5; fill-opacity: 0.9; stroke: #7f7f7f; stroke-opacity: 0.9"/>
     <use xlink:href="#mfd483c0997" x="316.677965" y="130.239284" style="fill: #1e88e5; fill-opacity: 0.9; stroke: #7f7f7f; stroke-opacity: 0.9"/>
    </g>
   </g>
   <g id="PathCollection_3">
    <defs>
     <path id="m7918e362df" d="M 0 7.071068 
C 1.875269 7.071068 3.673985 6.326016 5 5 
C 6.326016 3.673985 7.071068 1.875269 7.071068 0 
C 7.071068 -1.875269 6.326016 -3.673985 5 -5 
C 3.673985 -6.326016 1.875269 -7.071068 0 -7.071068 
C -1.875269 -7.071068 -3.673985 -6.326016 -5 -5 
C -6.326016 -3.673985 -7.071068 -1.875269 -7.071068 0 
C -7.071068 1.875269 -6.326016 3.673985 -5 5 
C -3.673985 6.326016 -1.875269 7.071068 0 7.071068 
z
" style="stroke: #7f7f7f; stroke-opacity: 0.9"/>
    </defs>
    <g clip-path="url(#pe1c2f0f1ca)">
     <use xlink:href="#m7918e362df" x="261.200748" y="145.335296" style="fill: #f5e449; fill-opacity: 0.9; stroke: #7f7f7f; stroke-opacity: 0.9"/>
     <use xlink:href="#m7918e362df" x="245.287641" y="162.537282" style="fill: #f5e449; fill-opacity: 0.9; stroke: #7f7f7f; stroke-opacity: 0.9"/>
    </g>
   </g>
   <g id="PathCollection_4">
    <g clip-path="url(#pe1c2f0f1ca)">
     <use xlink:href="#m7918e362df" x="245.287641" y="162.537282" style="fill: #f5e449; fill-opacity: 0.9; stroke: #7f7f7f; stroke-opacity: 0.9"/>
     <use xlink:href="#m7918e362df" x="261.200748" y="145.335296" style="fill: #f5e449; fill-opacity: 0.9; stroke: #7f7f7f; stroke-opacity: 0.9"/>
    </g>
   </g>
   <g id="PathCollection_5">
    <defs>
     <path id="C0_0_6d90d4040e" d="M 0 7.905694 
C 2.096615 7.905694 4.10764 7.0727 5.59017 5.59017 
C 7.0727 4.10764 7.905694 2.096615 7.905694 -0 
C 7.905694 -2.096615 7.0727 -4.10764 5.59017 -5.59017 
C 4.10764 -7.0727 2.096615 -7.905694 0 -7.905694 
C -2.096615 -7.905694 -4.10764 -7.0727 -5.59017 -5.59017 
C -7.0727 -4.10764 -7.905694 -2.096615 -7.905694 0 
C -7.905694 2.096615 -7.0727 4.10764 -5.59017 5.59017 
C -4.10764 7.0727 -2.096615 7.905694 0 7.905694 
z
"/>
    </defs>
    <g clip-path="url(#pe1c2f0f1ca)">
     <use xlink:href="#C0_0_6d90d4040e" x="179.934063" y="189.421432" style="fill: #1e88e5; stroke: #1e88e5"/>
    </g>
    <g clip-path="url(#pe1c2f0f1ca)">
     <use xlink:href="#C0_0_6d90d4040e" x="189.750452" y="142.401133" style="fill: #1e88e5; stroke: #1e88e5"/>
    </g>
    <g clip-path="url(#pe1c2f0f1ca)">
     <use xlink:href="#C0_0_6d90d4040e" x="245.287641" y="162.537282" style="fill: #f5e449; stroke: #f5e449"/>
    </g>
    <g clip-path="url(#pe1c2f0f1ca)">
     <use xlink:href="#C0_0_6d90d4040e" x="178.903172" y="172.102564" style="fill: #1e88e5; stroke: #1e88e5"/>
    </g>
    <g clip-path="url(#pe1c2f0f1ca)">
     <use xlink:href="#C0_0_6d90d4040e" x="105.772521" y="218.773605" style="fill: #1e88e5; stroke: #1e88e5"/>
    </g>
    <g clip-path="url(#pe1c2f0f1ca)">
     <use xlink:href="#C0_0_6d90d4040e" x="127.758845" y="256.831922" style="fill: #1e88e5; stroke: #1e88e5"/>
    </g>
    <g clip-path="url(#pe1c2f0f1ca)">
     <use xlink:href="#C0_0_6d90d4040e" x="106.173628" y="245.621654" style="fill: #1e88e5; stroke: #1e88e5"/>
    </g>
    <g clip-path="url(#pe1c2f0f1ca)">
     <use xlink:href="#C0_0_6d90d4040e" x="173.81521" y="156.124322" style="fill: #1e88e5; stroke: #1e88e5"/>
    </g>
    <g clip-path="url(#pe1c2f0f1ca)">
     <use xlink:href="#C0_0_6d90d4040e" x="261.200748" y="145.335296" style="fill: #f5e449; stroke: #f5e449"/>
    </g>
    <g clip-path="url(#pe1c2f0f1ca)">
     <use xlink:href="#C0_0_6d90d4040e" x="306.963123" y="190.316929" style="fill: #e91e63; stroke: #e91e63"/>
    </g>
    <g clip-path="url(#pe1c2f0f1ca)">
     <use xlink:href="#C0_0_6d90d4040e" x="134.500326" y="232.096131" style="fill: #1e88e5; stroke: #1e88e5"/>
    </g>
    <g clip-path="url(#pe1c2f0f1ca)">
     <use xlink:href="#C0_0_6d90d4040e" x="184.578402" y="252.621478" style="fill: #1e88e5; stroke: #1e88e5"/>
    </g>
    <g clip-path="url(#pe1c2f0f1ca)">
     <use xlink:href="#C0_0_6d90d4040e" x="122.269732" y="185.753977" style="fill: #1e88e5; stroke: #1e88e5"/>
    </g>
    <g clip-path="url(#pe1c2f0f1ca)">
     <use xlink:href="#C0_0_6d90d4040e" x="224.756575" y="159.477972" style="fill: #1e88e5; stroke: #1e88e5"/>
    </g>
    <g clip-path="url(#pe1c2f0f1ca)">
     <use xlink:href="#C0_0_6d90d4040e" x="367.982263" y="169.165998" style="fill: #e91e63; stroke: #e91e63"/>
    </g>
    <g clip-path="url(#pe1c2f0f1ca)">
     <use xlink:href="#C0_0_6d90d4040e" x="378.356258" y="95.74742" style="fill: #e91e63; stroke: #e91e63"/>
    </g>
    <g clip-path="url(#pe1c2f0f1ca)">
     <use xlink:href="#C0_0_6d90d4040e" x="81.069041" y="287.886829" style="fill: #1e88e5; stroke: #1e88e5"/>
    </g>
    <g clip-path="url(#pe1c2f0f1ca)">
     <use xlink:href="#C0_0_6d90d4040e" x="134.356306" y="137.630143" style="fill: #1e88e5; stroke: #1e88e5"/>
    </g>
    <g clip-path="url(#pe1c2f0f1ca)">
     <use xlink:href="#C0_0_6d90d4040e" x="386.676261" y="138.060612" style="fill: #e91e63; stroke: #e91e63"/>
    </g>
    <g clip-path="url(#pe1c2f0f1ca)">
     <use xlink:href="#C0_0_6d90d4040e" x="225.795306" y="135.863411" style="fill: #1e88e5; stroke: #1e88e5"/>
    </g>
    <g clip-path="url(#pe1c2f0f1ca)">
     <use xlink:href="#C0_0_6d90d4040e" x="391.997242" y="115.039548" style="fill: #e91e63; stroke: #e91e63"/>
    </g>
    <g clip-path="url(#pe1c2f0f1ca)">
     <use xlink:href="#C0_0_6d90d4040e" x="125.707351" y="156.778243" style="fill: #1e88e5; stroke: #1e88e5"/>
    </g>
    <g clip-path="url(#pe1c2f0f1ca)">
     <use xlink:href="#C0_0_6d90d4040e" x="358.487433" y="82.227397" style="fill: #e91e63; stroke: #e91e63"/>
    </g>
    <g clip-path="url(#pe1c2f0f1ca)">
     <use xlink:href="#C0_0_6d90d4040e" x="358.516071" y="122.554663" style="fill: #e91e63; stroke: #e91e63"/>
    </g>
    <g clip-path="url(#pe1c2f0f1ca)">
     <use xlink:href="#C0_0_6d90d4040e" x="348.00013" y="165.870197" style="fill: #e91e63; stroke: #e91e63"/>
    </g>
    <g clip-path="url(#pe1c2f0f1ca)">
     <use xlink:href="#C0_0_6d90d4040e" x="385.277436" y="168.018744" style="fill: #e91e63; stroke: #e91e63"/>
    </g>
    <g clip-path="url(#pe1c2f0f1ca)">
     <use xlink:href="#C0_0_6d90d4040e" x="324.801685" y="60.079854" style="fill: #e91e63; stroke: #e91e63"/>
    </g>
    <g clip-path="url(#pe1c2f0f1ca)">
     <use xlink:href="#C0_0_6d90d4040e" x="302.166404" y="130.533368" style="fill: #e91e63; stroke: #e91e63"/>
    </g>
    <g clip-path="url(#pe1c2f0f1ca)">
     <use xlink:href="#C0_0_6d90d4040e" x="284.722428" y="182.213639" style="fill: #e91e63; stroke: #e91e63"/>
    </g>
    <g clip-path="url(#pe1c2f0f1ca)">
     <use xlink:href="#C0_0_6d90d4040e" x="335.698243" y="87.600167" style="fill: #e91e63; stroke: #e91e63"/>
    </g>
    <g clip-path="url(#pe1c2f0f1ca)">
     <use xlink:href="#C0_0_6d90d4040e" x="262.196633" y="113.841664" style="fill: #e91e63; stroke: #e91e63"/>
    </g>
    <g clip-path="url(#pe1c2f0f1ca)">
     <use xlink:href="#C0_0_6d90d4040e" x="299.552342" y="168.795788" style="fill: #e91e63; stroke: #e91e63"/>
    </g>
    <g clip-path="url(#pe1c2f0f1ca)">
     <use xlink:href="#C0_0_6d90d4040e" x="330.823711" y="127.034523" style="fill: #e91e63; stroke: #e91e63"/>
    </g>
    <g clip-path="url(#pe1c2f0f1ca)">
     <use xlink:href="#C0_0_6d90d4040e" x="316.677965" y="130.239284" style="fill: #e91e63; stroke: #e91e63"/>
    </g>
   </g>
   <g id="text_1">
    <g clip-path="url(#pe1c2f0f1ca)">
     <!-- 0 -->
     <g style="fill: #ffffff" transform="translate(176.752813 192.180807) scale(0.1 -0.1)">
      <defs>
       <path id="DejaVuSans-30" d="M 2034 4250 
Q 1547 4250 1301 3770 
Q 1056 3291 1056 2328 
Q 1056 1369 1301 889 
Q 1547 409 2034 409 
Q 2525 409 2770 889 
Q 3016 1369 3016 2328 
Q 3016 3291 2770 3770 
Q 2525 4250 2034 4250 
z
M 2034 4750 
Q 2819 4750 3233 4129 
Q 3647 3509 3647 2328 
Q 3647 1150 3233 529 
Q 2819 -91 2034 -91 
Q 1250 -91 836 529 
Q 422 1150 422 2328 
Q 422 3509 836 4129 
Q 1250 4750 2034 4750 
z
" transform="scale(0.015625)"/>
      </defs>
      <use xlink:href="#DejaVuSans-30"/>
     </g>
    </g>
   </g>
   <g id="text_2">
    <g clip-path="url(#pe1c2f0f1ca)">
     <!-- 1 -->
     <g style="fill: #ffffff" transform="translate(186.569202 145.160508) scale(0.1 -0.1)">
      <defs>
       <path id="DejaVuSans-31" d="M 794 531 
L 1825 531 
L 1825 4091 
L 703 3866 
L 703 4441 
L 1819 4666 
L 2450 4666 
L 2450 531 
L 3481 531 
L 3481 0 
L 794 0 
L 794 531 
z
" transform="scale(0.015625)"/>
      </defs>
      <use xlink:href="#DejaVuSans-31"/>
     </g>
    </g>
   </g>
   <g id="text_3">
    <g clip-path="url(#pe1c2f0f1ca)">
     <!-- 2 -->
     <g style="fill: #ffffff" transform="translate(242.106391 165.296657) scale(0.1 -0.1)">
      <defs>
       <path id="DejaVuSans-32" d="M 1228 531 
L 3431 531 
L 3431 0 
L 469 0 
L 469 531 
Q 828 903 1448 1529 
Q 2069 2156 2228 2338 
Q 2531 2678 2651 2914 
Q 2772 3150 2772 3378 
Q 2772 3750 2511 3984 
Q 2250 4219 1831 4219 
Q 1534 4219 1204 4116 
Q 875 4013 500 3803 
L 500 4441 
Q 881 4594 1212 4672 
Q 1544 4750 1819 4750 
Q 2544 4750 2975 4387 
Q 3406 4025 3406 3419 
Q 3406 3131 3298 2873 
Q 3191 2616 2906 2266 
Q 2828 2175 2409 1742 
Q 1991 1309 1228 531 
z
" transform="scale(0.015625)"/>
      </defs>
      <use xlink:href="#DejaVuSans-32"/>
     </g>
    </g>
   </g>
   <g id="text_4">
    <g clip-path="url(#pe1c2f0f1ca)">
     <!-- 3 -->
     <g style="fill: #ffffff" transform="translate(175.721922 174.861939) scale(0.1 -0.1)">
      <defs>
       <path id="DejaVuSans-33" d="M 2597 2516 
Q 3050 2419 3304 2112 
Q 3559 1806 3559 1356 
Q 3559 666 3084 287 
Q 2609 -91 1734 -91 
Q 1441 -91 1130 -33 
Q 819 25 488 141 
L 488 750 
Q 750 597 1062 519 
Q 1375 441 1716 441 
Q 2309 441 2620 675 
Q 2931 909 2931 1356 
Q 2931 1769 2642 2001 
Q 2353 2234 1838 2234 
L 1294 2234 
L 1294 2753 
L 1863 2753 
Q 2328 2753 2575 2939 
Q 2822 3125 2822 3475 
Q 2822 3834 2567 4026 
Q 2313 4219 1838 4219 
Q 1578 4219 1281 4162 
Q 984 4106 628 3988 
L 628 4550 
Q 988 4650 1302 4700 
Q 1616 4750 1894 4750 
Q 2613 4750 3031 4423 
Q 3450 4097 3450 3541 
Q 3450 3153 3228 2886 
Q 3006 2619 2597 2516 
z
" transform="scale(0.015625)"/>
      </defs>
      <use xlink:href="#DejaVuSans-33"/>
     </g>
    </g>
   </g>
   <g id="text_5">
    <g clip-path="url(#pe1c2f0f1ca)">
     <!-- 4 -->
     <g style="fill: #ffffff" transform="translate(102.591271 221.53298) scale(0.1 -0.1)">
      <defs>
       <path id="DejaVuSans-34" d="M 2419 4116 
L 825 1625 
L 2419 1625 
L 2419 4116 
z
M 2253 4666 
L 3047 4666 
L 3047 1625 
L 3713 1625 
L 3713 1100 
L 3047 1100 
L 3047 0 
L 2419 0 
L 2419 1100 
L 313 1100 
L 313 1709 
L 2253 4666 
z
" transform="scale(0.015625)"/>
      </defs>
      <use xlink:href="#DejaVuSans-34"/>
     </g>
    </g>
   </g>
   <g id="text_6">
    <g clip-path="url(#pe1c2f0f1ca)">
     <!-- 5 -->
     <g style="fill: #ffffff" transform="translate(124.577595 259.591297) scale(0.1 -0.1)">
      <defs>
       <path id="DejaVuSans-35" d="M 691 4666 
L 3169 4666 
L 3169 4134 
L 1269 4134 
L 1269 2991 
Q 1406 3038 1543 3061 
Q 1681 3084 1819 3084 
Q 2600 3084 3056 2656 
Q 3513 2228 3513 1497 
Q 3513 744 3044 326 
Q 2575 -91 1722 -91 
Q 1428 -91 1123 -41 
Q 819 9 494 109 
L 494 744 
Q 775 591 1075 516 
Q 1375 441 1709 441 
Q 2250 441 2565 725 
Q 2881 1009 2881 1497 
Q 2881 1984 2565 2268 
Q 2250 2553 1709 2553 
Q 1456 2553 1204 2497 
Q 953 2441 691 2322 
L 691 4666 
z
" transform="scale(0.015625)"/>
      </defs>
      <use xlink:href="#DejaVuSans-35"/>
     </g>
    </g>
   </g>
   <g id="text_7">
    <g clip-path="url(#pe1c2f0f1ca)">
     <!-- 6 -->
     <g style="fill: #ffffff" transform="translate(102.992378 248.381029) scale(0.1 -0.1)">
      <defs>
       <path id="DejaVuSans-36" d="M 2113 2584 
Q 1688 2584 1439 2293 
Q 1191 2003 1191 1497 
Q 1191 994 1439 701 
Q 1688 409 2113 409 
Q 2538 409 2786 701 
Q 3034 994 3034 1497 
Q 3034 2003 2786 2293 
Q 2538 2584 2113 2584 
z
M 3366 4563 
L 3366 3988 
Q 3128 4100 2886 4159 
Q 2644 4219 2406 4219 
Q 1781 4219 1451 3797 
Q 1122 3375 1075 2522 
Q 1259 2794 1537 2939 
Q 1816 3084 2150 3084 
Q 2853 3084 3261 2657 
Q 3669 2231 3669 1497 
Q 3669 778 3244 343 
Q 2819 -91 2113 -91 
Q 1303 -91 875 529 
Q 447 1150 447 2328 
Q 447 3434 972 4092 
Q 1497 4750 2381 4750 
Q 2619 4750 2861 4703 
Q 3103 4656 3366 4563 
z
" transform="scale(0.015625)"/>
      </defs>
      <use xlink:href="#DejaVuSans-36"/>
     </g>
    </g>
   </g>
   <g id="text_8">
    <g clip-path="url(#pe1c2f0f1ca)">
     <!-- 7 -->
     <g style="fill: #ffffff" transform="translate(170.63396 158.883697) scale(0.1 -0.1)">
      <defs>
       <path id="DejaVuSans-37" d="M 525 4666 
L 3525 4666 
L 3525 4397 
L 1831 0 
L 1172 0 
L 2766 4134 
L 525 4134 
L 525 4666 
z
" transform="scale(0.015625)"/>
      </defs>
      <use xlink:href="#DejaVuSans-37"/>
     </g>
    </g>
   </g>
   <g id="text_9">
    <g clip-path="url(#pe1c2f0f1ca)">
     <!-- 8 -->
     <g style="fill: #ffffff" transform="translate(258.019498 148.094671) scale(0.1 -0.1)">
      <defs>
       <path id="DejaVuSans-38" d="M 2034 2216 
Q 1584 2216 1326 1975 
Q 1069 1734 1069 1313 
Q 1069 891 1326 650 
Q 1584 409 2034 409 
Q 2484 409 2743 651 
Q 3003 894 3003 1313 
Q 3003 1734 2745 1975 
Q 2488 2216 2034 2216 
z
M 1403 2484 
Q 997 2584 770 2862 
Q 544 3141 544 3541 
Q 544 4100 942 4425 
Q 1341 4750 2034 4750 
Q 2731 4750 3128 4425 
Q 3525 4100 3525 3541 
Q 3525 3141 3298 2862 
Q 3072 2584 2669 2484 
Q 3125 2378 3379 2068 
Q 3634 1759 3634 1313 
Q 3634 634 3220 271 
Q 2806 -91 2034 -91 
Q 1263 -91 848 271 
Q 434 634 434 1313 
Q 434 1759 690 2068 
Q 947 2378 1403 2484 
z
M 1172 3481 
Q 1172 3119 1398 2916 
Q 1625 2713 2034 2713 
Q 2441 2713 2670 2916 
Q 2900 3119 2900 3481 
Q 2900 3844 2670 4047 
Q 2441 4250 2034 4250 
Q 1625 4250 1398 4047 
Q 1172 3844 1172 3481 
z
" transform="scale(0.015625)"/>
      </defs>
      <use xlink:href="#DejaVuSans-38"/>
     </g>
    </g>
   </g>
   <g id="text_10">
    <g clip-path="url(#pe1c2f0f1ca)">
     <!-- 9 -->
     <g style="fill: #ffffff" transform="translate(303.781873 193.076304) scale(0.1 -0.1)">
      <defs>
       <path id="DejaVuSans-39" d="M 703 97 
L 703 672 
Q 941 559 1184 500 
Q 1428 441 1663 441 
Q 2288 441 2617 861 
Q 2947 1281 2994 2138 
Q 2813 1869 2534 1725 
Q 2256 1581 1919 1581 
Q 1219 1581 811 2004 
Q 403 2428 403 3163 
Q 403 3881 828 4315 
Q 1253 4750 1959 4750 
Q 2769 4750 3195 4129 
Q 3622 3509 3622 2328 
Q 3622 1225 3098 567 
Q 2575 -91 1691 -91 
Q 1453 -91 1209 -44 
Q 966 3 703 97 
z
M 1959 2075 
Q 2384 2075 2632 2365 
Q 2881 2656 2881 3163 
Q 2881 3666 2632 3958 
Q 2384 4250 1959 4250 
Q 1534 4250 1286 3958 
Q 1038 3666 1038 3163 
Q 1038 2656 1286 2365 
Q 1534 2075 1959 2075 
z
" transform="scale(0.015625)"/>
      </defs>
      <use xlink:href="#DejaVuSans-39"/>
     </g>
    </g>
   </g>
   <g id="text_11">
    <g clip-path="url(#pe1c2f0f1ca)">
     <!-- 10 -->
     <g style="fill: #ffffff" transform="translate(128.137826 234.855506) scale(0.1 -0.1)">
      <use xlink:href="#DejaVuSans-31"/>
      <use xlink:href="#DejaVuSans-30" x="63.623047"/>
     </g>
    </g>
   </g>
   <g id="text_12">
    <g clip-path="url(#pe1c2f0f1ca)">
     <!-- 11 -->
     <g style="fill: #ffffff" transform="translate(178.215902 255.380853) scale(0.1 -0.1)">
      <use xlink:href="#DejaVuSans-31"/>
      <use xlink:href="#DejaVuSans-31" x="63.623047"/>
     </g>
    </g>
   </g>
   <g id="text_13">
    <g clip-path="url(#pe1c2f0f1ca)">
     <!-- 12 -->
     <g style="fill: #ffffff" transform="translate(115.907232 188.513352) scale(0.1 -0.1)">
      <use xlink:href="#DejaVuSans-31"/>
      <use xlink:href="#DejaVuSans-32" x="63.623047"/>
     </g>
    </g>
   </g>
   <g id="text_14">
    <g clip-path="url(#pe1c2f0f1ca)">
     <!-- 13 -->
     <g style="fill: #ffffff" transform="translate(218.394075 162.237347) scale(0.1 -0.1)">
      <use xlink:href="#DejaVuSans-31"/>
      <use xlink:href="#DejaVuSans-33" x="63.623047"/>
     </g>
    </g>
   </g>
   <g id="text_15">
    <g clip-path="url(#pe1c2f0f1ca)">
     <!-- 14 -->
     <g style="fill: #ffffff" transform="translate(361.619763 171.925373) scale(0.1 -0.1)">
      <use xlink:href="#DejaVuSans-31"/>
      <use xlink:href="#DejaVuSans-34" x="63.623047"/>
     </g>
    </g>
   </g>
   <g id="text_16">
    <g clip-path="url(#pe1c2f0f1ca)">
     <!-- 15 -->
     <g style="fill: #ffffff" transform="translate(371.993758 98.506795) scale(0.1 -0.1)">
      <use xlink:href="#DejaVuSans-31"/>
      <use xlink:href="#DejaVuSans-35" x="63.623047"/>
     </g>
    </g>
   </g>
   <g id="text_17">
    <g clip-path="url(#pe1c2f0f1ca)">
     <!-- 16 -->
     <g style="fill: #ffffff" transform="translate(74.706541 290.646204) scale(0.1 -0.1)">
      <use xlink:href="#DejaVuSans-31"/>
      <use xlink:href="#DejaVuSans-36" x="63.623047"/>
     </g>
    </g>
   </g>
   <g id="text_18">
    <g clip-path="url(#pe1c2f0f1ca)">
     <!-- 17 -->
     <g style="fill: #ffffff" transform="translate(127.993806 140.389518) scale(0.1 -0.1)">
      <use xlink:href="#DejaVuSans-31"/>
      <use xlink:href="#DejaVuSans-37" x="63.623047"/>
     </g>
    </g>
   </g>
   <g id="text_19">
    <g clip-path="url(#pe1c2f0f1ca)">
     <!-- 18 -->
     <g style="fill: #ffffff" transform="translate(380.313761 140.819987) scale(0.1 -0.1)">
      <use xlink:href="#DejaVuSans-31"/>
      <use xlink:href="#DejaVuSans-38" x="63.623047"/>
     </g>
    </g>
   </g>
   <g id="text_20">
    <g clip-path="url(#pe1c2f0f1ca)">
     <!-- 19 -->
     <g style="fill: #ffffff" transform="translate(219.432806 138.622786) scale(0.1 -0.1)">
      <use xlink:href="#DejaVuSans-31"/>
      <use xlink:href="#DejaVuSans-39" x="63.623047"/>
     </g>
    </g>
   </g>
   <g id="text_21">
    <g clip-path="url(#pe1c2f0f1ca)">
     <!-- 20 -->
     <g style="fill: #ffffff" transform="translate(385.634742 117.798923) scale(0.1 -0.1)">
      <use xlink:href="#DejaVuSans-32"/>
      <use xlink:href="#DejaVuSans-30" x="63.623047"/>
     </g>
    </g>
   </g>
   <g id="text_22">
    <g clip-path="url(#pe1c2f0f1ca)">
     <!-- 21 -->
     <g style="fill: #ffffff" transform="translate(119.344851 159.537618) scale(0.1 -0.1)">
      <use xlink:href="#DejaVuSans-32"/>
      <use xlink:href="#DejaVuSans-31" x="63.623047"/>
     </g>
    </g>
   </g>
   <g id="text_23">
    <g clip-path="url(#pe1c2f0f1ca)">
     <!-- 22 -->
     <g style="fill: #ffffff" transform="translate(352.124933 84.986772) scale(0.1 -0.1)">
      <use xlink:href="#DejaVuSans-32"/>
      <use xlink:href="#DejaVuSans-32" x="63.623047"/>
     </g>
    </g>
   </g>
   <g id="text_24">
    <g clip-path="url(#pe1c2f0f1ca)">
     <!-- 23 -->
     <g style="fill: #ffffff" transform="translate(352.153571 125.314038) scale(0.1 -0.1)">
      <use xlink:href="#DejaVuSans-32"/>
      <use xlink:href="#DejaVuSans-33" x="63.623047"/>
     </g>
    </g>
   </g>
   <g id="text_25">
    <g clip-path="url(#pe1c2f0f1ca)">
     <!-- 24 -->
     <g style="fill: #ffffff" transform="translate(341.63763 168.629572) scale(0.1 -0.1)">
      <use xlink:href="#DejaVuSans-32"/>
      <use xlink:href="#DejaVuSans-34" x="63.623047"/>
     </g>
    </g>
   </g>
   <g id="text_26">
    <g clip-path="url(#pe1c2f0f1ca)">
     <!-- 25 -->
     <g style="fill: #ffffff" transform="translate(378.914936 170.778119) scale(0.1 -0.1)">
      <use xlink:href="#DejaVuSans-32"/>
      <use xlink:href="#DejaVuSans-35" x="63.623047"/>
     </g>
    </g>
   </g>
   <g id="text_27">
    <g clip-path="url(#pe1c2f0f1ca)">
     <!-- 26 -->
     <g style="fill: #ffffff" transform="translate(318.439185 62.839229) scale(0.1 -0.1)">
      <use xlink:href="#DejaVuSans-32"/>
      <use xlink:href="#DejaVuSans-36" x="63.623047"/>
     </g>
    </g>
   </g>
   <g id="text_28">
    <g clip-path="url(#pe1c2f0f1ca)">
     <!-- 27 -->
     <g style="fill: #ffffff" transform="translate(295.803904 133.292743) scale(0.1 -0.1)">
      <use xlink:href="#DejaVuSans-32"/>
      <use xlink:href="#DejaVuSans-37" x="63.623047"/>
     </g>
    </g>
   </g>
   <g id="text_29">
    <g clip-path="url(#pe1c2f0f1ca)">
     <!-- 28 -->
     <g style="fill: #ffffff" transform="translate(278.359928 184.973014) scale(0.1 -0.1)">
      <use xlink:href="#DejaVuSans-32"/>
      <use xlink:href="#DejaVuSans-38" x="63.623047"/>
     </g>
    </g>
   </g>
   <g id="text_30">
    <g clip-path="url(#pe1c2f0f1ca)">
     <!-- 29 -->
     <g style="fill: #ffffff" transform="translate(329.335743 90.359542) scale(0.1 -0.1)">
      <use xlink:href="#DejaVuSans-32"/>
      <use xlink:href="#DejaVuSans-39" x="63.623047"/>
     </g>
    </g>
   </g>
   <g id="text_31">
    <g clip-path="url(#pe1c2f0f1ca)">
     <!-- 30 -->
     <g style="fill: #ffffff" transform="translate(255.834133 116.601039) scale(0.1 -0.1)">
      <use xlink:href="#DejaVuSans-33"/>
      <use xlink:href="#DejaVuSans-30" x="63.623047"/>
     </g>
    </g>
   </g>
   <g id="text_32">
    <g clip-path="url(#pe1c2f0f1ca)">
     <!-- 31 -->
     <g style="fill: #ffffff" transform="translate(293.189842 171.555163) scale(0.1 -0.1)">
      <use xlink:href="#DejaVuSans-33"/>
      <use xlink:href="#DejaVuSans-31" x="63.623047"/>
     </g>
    </g>
   </g>
   <g id="text_33">
    <g clip-path="url(#pe1c2f0f1ca)">
     <!-- 32 -->
     <g style="fill: #ffffff" transform="translate(324.461211 129.793898) scale(0.1 -0.1)">
      <use xlink:href="#DejaVuSans-33"/>
      <use xlink:href="#DejaVuSans-32" x="63.623047"/>
     </g>
    </g>
   </g>
   <g id="text_34">
    <g clip-path="url(#pe1c2f0f1ca)">
     <!-- 33 -->
     <g style="fill: #ffffff" transform="translate(310.315465 132.998659) scale(0.1 -0.1)">
      <use xlink:href="#DejaVuSans-33"/>
      <use xlink:href="#DejaVuSans-33" x="63.623047"/>
     </g>
    </g>
   </g>
  </g>
 </g>
 <defs>
  <clipPath id="pe1c2f0f1ca">
   <rect x="57.6" y="41.472" width="357.12" height="266.112"/>
  </clipPath>
 </defs>
</svg>
