<?xml version="1.0" encoding="utf-8" standalone="no"?>
<!DOCTYPE svg PUBLIC "-//W3C//DTD SVG 1.1//EN"
  "http://www.w3.org/Graphics/SVG/1.1/DTD/svg11.dtd">
<svg xmlns:xlink="http://www.w3.org/1999/xlink" width="460.8pt" height="345.6pt" viewBox="0 0 460.8 345.6" xmlns="http://www.w3.org/2000/svg" version="1.1">
 <metadata>
  <rdf:RDF xmlns:dc="http://purl.org/dc/elements/1.1/" xmlns:cc="http://creativecommons.org/ns#" xmlns:rdf="http://www.w3.org/1999/02/22-rdf-syntax-ns#">
   <cc:Work>
    <dc:type rdf:resource="http://purl.org/dc/dcmitype/StillImage"/>
    <dc:date>2023-10-29T18:52:56.698203</dc:date>
    <dc:format>image/svg+xml</dc:format>
    <dc:creator>
     <cc:Agent>
      <dc:title>Matplotlib v3.8.0, https://matplotlib.org/</dc:title>
     </cc:Agent>
    </dc:creator>
   </cc:Work>
  </rdf:RDF>
 </metadata>
 <defs>
  <style type="text/css">*{stroke-linejoin: round; stroke-linecap: butt}</style>
 </defs>
 <g id="figure_1">
  <g id="patch_1">
   <path d="M 0 345.6 
L 460.8 345.6 
L 460.8 0 
L 0 0 
z
" style="fill: #ffffff"/>
  </g>
  <g id="axes_1">
   <g id="patch_2">
    <path d="M 57.6 307.584 
L 414.72 307.584 
L 414.72 41.472 
L 57.6 41.472 
z
" style="fill: #ffffff"/>
   </g>
   <g id="LineCollection_1">
    <path d="M 209.965952 218.382573 
L 251.919398 241.732271 
" clip-path="url(#pdc9bf2a57e)" style="fill: none; stroke: #000000; stroke-opacity: 0.5; stroke-width: 2"/>
    <path d="M 209.965952 218.382573 
L 264.367805 184.603568 
" clip-path="url(#pdc9bf2a57e)" style="fill: none; stroke: #000000; stroke-opacity: 0.5; stroke-width: 2"/>
    <path d="M 209.965952 218.382573 
L 229.906481 238.730639 
" clip-path="url(#pdc9bf2a57e)" style="fill: none; stroke: #000000; stroke-opacity: 0.5; stroke-width: 2"/>
    <path d="M 209.965952 218.382573 
L 157.191912 204.121756 
" clip-path="url(#pdc9bf2a57e)" style="fill: none; stroke: #000000; stroke-opacity: 0.5; stroke-width: 2"/>
    <path d="M 209.965952 218.382573 
L 130.958444 213.394295 
" clip-path="url(#pdc9bf2a57e)" style="fill: none; stroke: #000000; stroke-opacity: 0.5; stroke-width: 2"/>
    <path d="M 209.965952 218.382573 
L 136.31463 190.417872 
" clip-path="url(#pdc9bf2a57e)" style="fill: none; stroke: #000000; stroke-opacity: 0.5; stroke-width: 2"/>
    <path d="M 209.965952 218.382573 
L 228.924275 212.947666 
" clip-path="url(#pdc9bf2a57e)" style="fill: none; stroke: #000000; stroke-opacity: 0.5; stroke-width: 2"/>
    <path d="M 209.965952 218.382573 
L 287.383525 195.883957 
" clip-path="url(#pdc9bf2a57e)" style="fill: none; stroke: #000000; stroke-opacity: 0.5; stroke-width: 2"/>
    <path d="M 209.965952 218.382573 
L 149.620096 233.981235 
" clip-path="url(#pdc9bf2a57e)" style="fill: none; stroke: #000000; stroke-opacity: 0.5; stroke-width: 2"/>
    <path d="M 209.965952 218.382573 
L 159.073209 274.936771 
" clip-path="url(#pdc9bf2a57e)" style="fill: none; stroke: #000000; stroke-opacity: 0.5; stroke-width: 2"/>
    <path d="M 209.965952 218.382573 
L 190.465603 267.893485 
" clip-path="url(#pdc9bf2a57e)" style="fill: none; stroke: #000000; stroke-opacity: 0.5; stroke-width: 2"/>
    <path d="M 209.965952 218.382573 
L 267.894422 219.222296 
" clip-path="url(#pdc9bf2a57e)" style="fill: none; stroke: #000000; stroke-opacity: 0.5; stroke-width: 2"/>
    <path d="M 209.965952 218.382573 
L 233.20136 284.491636 
" clip-path="url(#pdc9bf2a57e)" style="fill: none; stroke: #000000; stroke-opacity: 0.5; stroke-width: 2"/>
    <path d="M 209.965952 218.382573 
L 261.757277 202.928494 
" clip-path="url(#pdc9bf2a57e)" style="fill: none; stroke: #000000; stroke-opacity: 0.5; stroke-width: 2"/>
    <path d="M 209.965952 218.382573 
L 214.030994 280.350222 
" clip-path="url(#pdc9bf2a57e)" style="fill: none; stroke: #000000; stroke-opacity: 0.5; stroke-width: 2"/>
    <path d="M 209.965952 218.382573 
L 273.082978 132.117216 
" clip-path="url(#pdc9bf2a57e)" style="fill: none; stroke: #000000; stroke-opacity: 0.5; stroke-width: 2"/>
    <path d="M 251.919398 241.732271 
L 264.367805 184.603568 
" clip-path="url(#pdc9bf2a57e)" style="fill: none; stroke: #000000; stroke-opacity: 0.5; stroke-width: 2"/>
    <path d="M 251.919398 241.732271 
L 229.906481 238.730639 
" clip-path="url(#pdc9bf2a57e)" style="fill: none; stroke: #000000; stroke-opacity: 0.5; stroke-width: 2"/>
    <path d="M 251.919398 241.732271 
L 228.924275 212.947666 
" clip-path="url(#pdc9bf2a57e)" style="fill: none; stroke: #000000; stroke-opacity: 0.5; stroke-width: 2"/>
    <path d="M 251.919398 241.732271 
L 267.894422 219.222296 
" clip-path="url(#pdc9bf2a57e)" style="fill: none; stroke: #000000; stroke-opacity: 0.5; stroke-width: 2"/>
    <path d="M 251.919398 241.732271 
L 233.20136 284.491636 
" clip-path="url(#pdc9bf2a57e)" style="fill: none; stroke: #000000; stroke-opacity: 0.5; stroke-width: 2"/>
    <path d="M 251.919398 241.732271 
L 261.757277 202.928494 
" clip-path="url(#pdc9bf2a57e)" style="fill: none; stroke: #000000; stroke-opacity: 0.5; stroke-width: 2"/>
    <path d="M 251.919398 241.732271 
L 214.030994 280.350222 
" clip-path="url(#pdc9bf2a57e)" style="fill: none; stroke: #000000; stroke-opacity: 0.5; stroke-width: 2"/>
    <path d="M 251.919398 241.732271 
L 311.387611 214.844434 
" clip-path="url(#pdc9bf2a57e)" style="fill: none; stroke: #000000; stroke-opacity: 0.5; stroke-width: 2"/>
    <path d="M 264.367805 184.603568 
L 229.906481 238.730639 
" clip-path="url(#pdc9bf2a57e)" style="fill: none; stroke: #000000; stroke-opacity: 0.5; stroke-width: 2"/>
    <path d="M 264.367805 184.603568 
L 228.924275 212.947666 
" clip-path="url(#pdc9bf2a57e)" style="fill: none; stroke: #000000; stroke-opacity: 0.5; stroke-width: 2"/>
    <path d="M 264.367805 184.603568 
L 287.383525 195.883957 
" clip-path="url(#pdc9bf2a57e)" style="fill: none; stroke: #000000; stroke-opacity: 0.5; stroke-width: 2"/>
    <path d="M 264.367805 184.603568 
L 269.272914 149.115945 
" clip-path="url(#pdc9bf2a57e)" style="fill: none; stroke: #000000; stroke-opacity: 0.5; stroke-width: 2"/>
    <path d="M 264.367805 184.603568 
L 267.894422 219.222296 
" clip-path="url(#pdc9bf2a57e)" style="fill: none; stroke: #000000; stroke-opacity: 0.5; stroke-width: 2"/>
    <path d="M 264.367805 184.603568 
L 290.270055 112.776303 
" clip-path="url(#pdc9bf2a57e)" style="fill: none; stroke: #000000; stroke-opacity: 0.5; stroke-width: 2"/>
    <path d="M 264.367805 184.603568 
L 293.201449 147.199037 
" clip-path="url(#pdc9bf2a57e)" style="fill: none; stroke: #000000; stroke-opacity: 0.5; stroke-width: 2"/>
    <path d="M 264.367805 184.603568 
L 333.588454 164.240736 
" clip-path="url(#pdc9bf2a57e)" style="fill: none; stroke: #000000; stroke-opacity: 0.5; stroke-width: 2"/>
    <path d="M 229.906481 238.730639 
L 228.924275 212.947666 
" clip-path="url(#pdc9bf2a57e)" style="fill: none; stroke: #000000; stroke-opacity: 0.5; stroke-width: 2"/>
    <path d="M 229.906481 238.730639 
L 190.465603 267.893485 
" clip-path="url(#pdc9bf2a57e)" style="fill: none; stroke: #000000; stroke-opacity: 0.5; stroke-width: 2"/>
    <path d="M 229.906481 238.730639 
L 267.894422 219.222296 
" clip-path="url(#pdc9bf2a57e)" style="fill: none; stroke: #000000; stroke-opacity: 0.5; stroke-width: 2"/>
    <path d="M 157.191912 204.121756 
L 136.31463 190.417872 
" clip-path="url(#pdc9bf2a57e)" style="fill: none; stroke: #000000; stroke-opacity: 0.5; stroke-width: 2"/>
    <path d="M 157.191912 204.121756 
L 149.620096 233.981235 
" clip-path="url(#pdc9bf2a57e)" style="fill: none; stroke: #000000; stroke-opacity: 0.5; stroke-width: 2"/>
    <path d="M 130.958444 213.394295 
L 136.31463 190.417872 
" clip-path="url(#pdc9bf2a57e)" style="fill: none; stroke: #000000; stroke-opacity: 0.5; stroke-width: 2"/>
    <path d="M 130.958444 213.394295 
L 149.620096 233.981235 
" clip-path="url(#pdc9bf2a57e)" style="fill: none; stroke: #000000; stroke-opacity: 0.5; stroke-width: 2"/>
    <path d="M 130.958444 213.394295 
L 88.589752 192.361664 
" clip-path="url(#pdc9bf2a57e)" style="fill: none; stroke: #000000; stroke-opacity: 0.5; stroke-width: 2"/>
    <path d="M 136.31463 190.417872 
L 88.589752 192.361664 
" clip-path="url(#pdc9bf2a57e)" style="fill: none; stroke: #000000; stroke-opacity: 0.5; stroke-width: 2"/>
    <path d="M 287.383525 195.883957 
L 311.387611 214.844434 
" clip-path="url(#pdc9bf2a57e)" style="fill: none; stroke: #000000; stroke-opacity: 0.5; stroke-width: 2"/>
    <path d="M 287.383525 195.883957 
L 333.588454 164.240736 
" clip-path="url(#pdc9bf2a57e)" style="fill: none; stroke: #000000; stroke-opacity: 0.5; stroke-width: 2"/>
    <path d="M 287.383525 195.883957 
L 322.963846 159.892118 
" clip-path="url(#pdc9bf2a57e)" style="fill: none; stroke: #000000; stroke-opacity: 0.5; stroke-width: 2"/>
    <path d="M 269.272914 149.115945 
L 322.963846 159.892118 
" clip-path="url(#pdc9bf2a57e)" style="fill: none; stroke: #000000; stroke-opacity: 0.5; stroke-width: 2"/>
    <path d="M 267.894422 219.222296 
L 322.963846 159.892118 
" clip-path="url(#pdc9bf2a57e)" style="fill: none; stroke: #000000; stroke-opacity: 0.5; stroke-width: 2"/>
    <path d="M 371.543129 155.04034 
L 333.588454 164.240736 
" clip-path="url(#pdc9bf2a57e)" style="fill: none; stroke: #000000; stroke-opacity: 0.5; stroke-width: 2"/>
    <path d="M 371.543129 155.04034 
L 322.963846 159.892118 
" clip-path="url(#pdc9bf2a57e)" style="fill: none; stroke: #000000; stroke-opacity: 0.5; stroke-width: 2"/>
    <path d="M 375.051634 134.933324 
L 333.588454 164.240736 
" clip-path="url(#pdc9bf2a57e)" style="fill: none; stroke: #000000; stroke-opacity: 0.5; stroke-width: 2"/>
    <path d="M 375.051634 134.933324 
L 322.963846 159.892118 
" clip-path="url(#pdc9bf2a57e)" style="fill: none; stroke: #000000; stroke-opacity: 0.5; stroke-width: 2"/>
    <path d="M 383.730248 171.054964 
L 333.588454 164.240736 
" clip-path="url(#pdc9bf2a57e)" style="fill: none; stroke: #000000; stroke-opacity: 0.5; stroke-width: 2"/>
    <path d="M 383.730248 171.054964 
L 322.963846 159.892118 
" clip-path="url(#pdc9bf2a57e)" style="fill: none; stroke: #000000; stroke-opacity: 0.5; stroke-width: 2"/>
    <path d="M 261.757277 202.928494 
L 322.963846 159.892118 
" clip-path="url(#pdc9bf2a57e)" style="fill: none; stroke: #000000; stroke-opacity: 0.5; stroke-width: 2"/>
    <path d="M 372.910604 190.222561 
L 333.588454 164.240736 
" clip-path="url(#pdc9bf2a57e)" style="fill: none; stroke: #000000; stroke-opacity: 0.5; stroke-width: 2"/>
    <path d="M 372.910604 190.222561 
L 322.963846 159.892118 
" clip-path="url(#pdc9bf2a57e)" style="fill: none; stroke: #000000; stroke-opacity: 0.5; stroke-width: 2"/>
    <path d="M 359.18626 206.434468 
L 333.588454 164.240736 
" clip-path="url(#pdc9bf2a57e)" style="fill: none; stroke: #000000; stroke-opacity: 0.5; stroke-width: 2"/>
    <path d="M 359.18626 206.434468 
L 322.963846 159.892118 
" clip-path="url(#pdc9bf2a57e)" style="fill: none; stroke: #000000; stroke-opacity: 0.5; stroke-width: 2"/>
    <path d="M 325.429721 103.736029 
L 293.638808 64.564364 
" clip-path="url(#pdc9bf2a57e)" style="fill: none; stroke: #000000; stroke-opacity: 0.5; stroke-width: 2"/>
    <path d="M 325.429721 103.736029 
L 290.270055 112.776303 
" clip-path="url(#pdc9bf2a57e)" style="fill: none; stroke: #000000; stroke-opacity: 0.5; stroke-width: 2"/>
    <path d="M 325.429721 103.736029 
L 352.500795 114.64767 
" clip-path="url(#pdc9bf2a57e)" style="fill: none; stroke: #000000; stroke-opacity: 0.5; stroke-width: 2"/>
    <path d="M 325.429721 103.736029 
L 333.588454 164.240736 
" clip-path="url(#pdc9bf2a57e)" style="fill: none; stroke: #000000; stroke-opacity: 0.5; stroke-width: 2"/>
    <path d="M 325.429721 103.736029 
L 322.963846 159.892118 
" clip-path="url(#pdc9bf2a57e)" style="fill: none; stroke: #000000; stroke-opacity: 0.5; stroke-width: 2"/>
    <path d="M 268.045977 68.427497 
L 293.638808 64.564364 
" clip-path="url(#pdc9bf2a57e)" style="fill: none; stroke: #000000; stroke-opacity: 0.5; stroke-width: 2"/>
    <path d="M 268.045977 68.427497 
L 290.270055 112.776303 
" clip-path="url(#pdc9bf2a57e)" style="fill: none; stroke: #000000; stroke-opacity: 0.5; stroke-width: 2"/>
    <path d="M 268.045977 68.427497 
L 273.082978 132.117216 
" clip-path="url(#pdc9bf2a57e)" style="fill: none; stroke: #000000; stroke-opacity: 0.5; stroke-width: 2"/>
    <path d="M 293.638808 64.564364 
L 273.082978 132.117216 
" clip-path="url(#pdc9bf2a57e)" style="fill: none; stroke: #000000; stroke-opacity: 0.5; stroke-width: 2"/>
    <path d="M 373.460202 99.096363 
L 352.500795 114.64767 
" clip-path="url(#pdc9bf2a57e)" style="fill: none; stroke: #000000; stroke-opacity: 0.5; stroke-width: 2"/>
    <path d="M 373.460202 99.096363 
L 322.963846 159.892118 
" clip-path="url(#pdc9bf2a57e)" style="fill: none; stroke: #000000; stroke-opacity: 0.5; stroke-width: 2"/>
    <path d="M 290.270055 112.776303 
L 322.963846 159.892118 
" clip-path="url(#pdc9bf2a57e)" style="fill: none; stroke: #000000; stroke-opacity: 0.5; stroke-width: 2"/>
    <path d="M 293.201449 147.199037 
L 273.082978 132.117216 
" clip-path="url(#pdc9bf2a57e)" style="fill: none; stroke: #000000; stroke-opacity: 0.5; stroke-width: 2"/>
    <path d="M 293.201449 147.199037 
L 322.963846 159.892118 
" clip-path="url(#pdc9bf2a57e)" style="fill: none; stroke: #000000; stroke-opacity: 0.5; stroke-width: 2"/>
    <path d="M 352.500795 114.64767 
L 333.588454 164.240736 
" clip-path="url(#pdc9bf2a57e)" style="fill: none; stroke: #000000; stroke-opacity: 0.5; stroke-width: 2"/>
    <path d="M 352.500795 114.64767 
L 322.963846 159.892118 
" clip-path="url(#pdc9bf2a57e)" style="fill: none; stroke: #000000; stroke-opacity: 0.5; stroke-width: 2"/>
    <path d="M 311.387611 214.844434 
L 333.588454 164.240736 
" clip-path="url(#pdc9bf2a57e)" style="fill: none; stroke: #000000; stroke-opacity: 0.5; stroke-width: 2"/>
    <path d="M 311.387611 214.844434 
L 322.963846 159.892118 
" clip-path="url(#pdc9bf2a57e)" style="fill: none; stroke: #000000; stroke-opacity: 0.5; stroke-width: 2"/>
    <path d="M 273.082978 132.117216 
L 333.588454 164.240736 
" clip-path="url(#pdc9bf2a57e)" style="fill: none; stroke: #000000; stroke-opacity: 0.5; stroke-width: 2"/>
    <path d="M 273.082978 132.117216 
L 322.963846 159.892118 
" clip-path="url(#pdc9bf2a57e)" style="fill: none; stroke: #000000; stroke-opacity: 0.5; stroke-width: 2"/>
    <path d="M 333.588454 164.240736 
L 322.963846 159.892118 
" clip-path="url(#pdc9bf2a57e)" style="fill: none; stroke: #000000; stroke-opacity: 0.5; stroke-width: 2"/>
   </g>
   <g id="matplotlib.axis_1">
    <g id="xtick_1"/>
    <g id="xtick_2"/>
    <g id="xtick_3"/>
    <g id="xtick_4"/>
    <g id="xtick_5"/>
    <g id="xtick_6"/>
    <g id="xtick_7"/>
    <g id="xtick_8"/>
   </g>
   <g id="matplotlib.axis_2">
    <g id="ytick_1"/>
    <g id="ytick_2"/>
    <g id="ytick_3"/>
    <g id="ytick_4"/>
    <g id="ytick_5"/>
    <g id="ytick_6"/>
    <g id="ytick_7"/>
   </g>
   <g id="PathCollection_1">
    <path d="M 209.965952 229.927929 
C 213.027816 229.927929 215.964686 228.711437 218.129751 226.546373 
C 220.294816 224.381308 221.511307 221.444437 221.511307 218.382573 
C 221.511307 215.320709 220.294816 212.383839 218.129751 210.218774 
C 215.964686 208.05371 213.027816 206.837218 209.965952 206.837218 
C 206.904088 206.837218 203.967217 208.05371 201.802153 210.218774 
C 199.637088 212.383839 198.420596 215.320709 198.420596 218.382573 
C 198.420596 221.444437 199.637088 224.381308 201.802153 226.546373 
C 203.967217 228.711437 206.904088 229.927929 209.965952 229.927929 
z
" clip-path="url(#pdc9bf2a57e)" style="fill: #440154; fill-opacity: 0.9; stroke: #7f7f7f; stroke-opacity: 0.9"/>
    <path d="M 251.919398 251.718486 
C 254.567773 251.718486 257.108035 250.666276 258.980719 248.793592 
C 260.853403 246.920908 261.905613 244.380646 261.905613 241.732271 
C 261.905613 239.083896 260.853403 236.543635 258.980719 234.670951 
C 257.108035 232.798267 254.567773 231.746057 251.919398 231.746057 
C 249.271023 231.746057 246.730762 232.798267 244.858078 234.670951 
C 242.985394 236.543635 241.933184 239.083896 241.933184 241.732271 
C 241.933184 244.380646 242.985394 246.920908 244.858078 248.793592 
C 246.730762 250.666276 249.271023 251.718486 251.919398 251.718486 
z
" clip-path="url(#pdc9bf2a57e)" style="fill: #460b5e; fill-opacity: 0.9; stroke: #7f7f7f; stroke-opacity: 0.9"/>
    <path d="M 264.367805 195.50961 
C 267.26012 195.50961 270.034364 194.36048 272.07954 192.315304 
C 274.124716 190.270128 275.273846 187.495884 275.273846 184.603568 
C 275.273846 181.711253 274.124716 178.937009 272.07954 176.891833 
C 270.034364 174.846657 267.26012 173.697527 264.367805 173.697527 
C 261.475489 173.697527 258.701245 174.846657 256.656069 176.891833 
C 254.610893 178.937009 253.461763 181.711253 253.461763 184.603568 
C 253.461763 187.495884 254.610893 190.270128 256.656069 192.315304 
C 258.701245 194.36048 261.475489 195.50961 264.367805 195.50961 
z
" clip-path="url(#pdc9bf2a57e)" style="fill: #481769; fill-opacity: 0.9; stroke: #7f7f7f; stroke-opacity: 0.9"/>
    <path d="M 229.906481 247.629023 
C 232.26636 247.629023 234.529902 246.691433 236.198588 245.022747 
C 237.867275 243.35406 238.804865 241.090518 238.804865 238.730639 
C 238.804865 236.37076 237.867275 234.107218 236.198588 232.438532 
C 234.529902 230.769845 232.26636 229.832255 229.906481 229.832255 
C 227.546602 229.832255 225.283059 230.769845 223.614373 232.438532 
C 221.945686 234.107218 221.008097 236.37076 221.008097 238.730639 
C 221.008097 241.090518 221.945686 243.35406 223.614373 245.022747 
C 225.283059 246.691433 227.546602 247.629023 229.906481 247.629023 
z
" clip-path="url(#pdc9bf2a57e)" style="fill: #482173; fill-opacity: 0.9; stroke: #7f7f7f; stroke-opacity: 0.9"/>
    <path d="M 157.191912 209.458613 
C 158.607263 209.458613 159.964835 208.896288 160.965639 207.895484 
C 161.966443 206.894679 162.528768 205.537107 162.528768 204.121756 
C 162.528768 202.706406 161.966443 201.348833 160.965639 200.348029 
C 159.964835 199.347225 158.607263 198.7849 157.191912 198.7849 
C 155.776561 198.7849 154.418989 199.347225 153.418185 200.348029 
C 152.41738 201.348833 151.855056 202.706406 151.855056 204.121756 
C 151.855056 205.537107 152.41738 206.894679 153.418185 207.895484 
C 154.418989 208.896288 155.776561 209.458613 157.191912 209.458613 
z
" clip-path="url(#pdc9bf2a57e)" style="fill: #472c7a; fill-opacity: 0.9; stroke: #7f7f7f; stroke-opacity: 0.9"/>
    <path d="M 130.958444 218.853172 
C 132.406155 218.853172 133.794766 218.27799 134.818453 217.254304 
C 135.842139 216.230617 136.417321 214.842006 136.417321 213.394295 
C 136.417321 211.946584 135.842139 210.557973 134.818453 209.534286 
C 133.794766 208.5106 132.406155 207.935418 130.958444 207.935418 
C 129.510733 207.935418 128.122122 208.5106 127.098435 209.534286 
C 126.074749 210.557973 125.499567 211.946584 125.499567 213.394295 
C 125.499567 214.842006 126.074749 216.230617 127.098435 217.254304 
C 128.122122 218.27799 129.510733 218.853172 130.958444 218.853172 
z
" clip-path="url(#pdc9bf2a57e)" style="fill: #463480; fill-opacity: 0.9; stroke: #7f7f7f; stroke-opacity: 0.9"/>
    <path d="M 136.31463 195.876749 
C 137.762341 195.876749 139.150952 195.301567 140.174638 194.277881 
C 141.198325 193.254195 141.773506 191.865583 141.773506 190.417872 
C 141.773506 188.970161 141.198325 187.58155 140.174638 186.557864 
C 139.150952 185.534178 137.762341 184.958996 136.31463 184.958996 
C 134.866919 184.958996 133.478307 185.534178 132.454621 186.557864 
C 131.430935 187.58155 130.855753 188.970161 130.855753 190.417872 
C 130.855753 191.865583 131.430935 193.254195 132.454621 194.277881 
C 133.478307 195.301567 134.866919 195.876749 136.31463 195.876749 
z
" clip-path="url(#pdc9bf2a57e)" style="fill: #433e85; fill-opacity: 0.9; stroke: #7f7f7f; stroke-opacity: 0.9"/>
    <path d="M 228.924275 220.953905 
C 231.047554 220.953905 233.084156 220.110317 234.585541 218.608932 
C 236.086926 217.107547 236.930514 215.070945 236.930514 212.947666 
C 236.930514 210.824387 236.086926 208.787785 234.585541 207.2864 
C 233.084156 205.785015 231.047554 204.941427 228.924275 204.941427 
C 226.800995 204.941427 224.764394 205.785015 223.263009 207.2864 
C 221.761624 208.787785 220.918036 210.824387 220.918036 212.947666 
C 220.918036 215.070945 221.761624 217.107547 223.263009 218.608932 
C 224.764394 220.110317 226.800995 220.953905 228.924275 220.953905 
z
" clip-path="url(#pdc9bf2a57e)" style="fill: #3f4788; fill-opacity: 0.9; stroke: #7f7f7f; stroke-opacity: 0.9"/>
    <path d="M 287.383525 205.118504 
C 289.832556 205.118504 292.18161 204.145494 293.913336 202.413768 
C 295.645062 200.682042 296.618072 198.332988 296.618072 195.883957 
C 296.618072 193.434927 295.645062 191.085872 293.913336 189.354146 
C 292.18161 187.62242 289.832556 186.64941 287.383525 186.64941 
C 284.934495 186.64941 282.58544 187.62242 280.853714 189.354146 
C 279.121988 191.085872 278.148978 193.434927 278.148978 195.883957 
C 278.148978 198.332988 279.121988 200.682042 280.853714 202.413768 
C 282.58544 204.145494 284.934495 205.118504 287.383525 205.118504 
z
" clip-path="url(#pdc9bf2a57e)" style="fill: #3c508b; fill-opacity: 0.9; stroke: #7f7f7f; stroke-opacity: 0.9"/>
    <path d="M 269.272914 155.321094 
C 270.918539 155.321094 272.496984 154.66728 273.660617 153.503648 
C 274.824249 152.340016 275.478063 150.76157 275.478063 149.115945 
C 275.478063 147.470321 274.824249 145.891875 273.660617 144.728243 
C 272.496984 143.56461 270.918539 142.910797 269.272914 142.910797 
C 267.627289 142.910797 266.048844 143.56461 264.885211 144.728243 
C 263.721579 145.891875 263.067765 147.470321 263.067765 149.115945 
C 263.067765 150.76157 263.721579 152.340016 264.885211 153.503648 
C 266.048844 154.66728 267.627289 155.321094 269.272914 155.321094 
z
" clip-path="url(#pdc9bf2a57e)" style="fill: #38588c; fill-opacity: 0.9; stroke: #7f7f7f; stroke-opacity: 0.9"/>
    <path d="M 149.620096 239.318091 
C 151.035447 239.318091 152.393019 238.755766 153.393823 237.754962 
C 154.394627 236.754158 154.956952 235.396586 154.956952 233.981235 
C 154.956952 232.565884 154.394627 231.208312 153.393823 230.207508 
C 152.393019 229.206704 151.035447 228.644379 149.620096 228.644379 
C 148.204745 228.644379 146.847173 229.206704 145.846369 230.207508 
C 144.845565 231.208312 144.28324 232.565884 144.28324 233.981235 
C 144.28324 235.396586 144.845565 236.754158 145.846369 237.754962 
C 146.847173 238.755766 148.204745 239.318091 149.620096 239.318091 
z
" clip-path="url(#pdc9bf2a57e)" style="fill: #34608d; fill-opacity: 0.9; stroke: #7f7f7f; stroke-opacity: 0.9"/>
    <path d="M 159.073209 279.388386 
C 160.253791 279.388386 161.386178 278.919335 162.220976 278.084538 
C 163.055773 277.24974 163.524823 276.117353 163.524823 274.936771 
C 163.524823 273.756189 163.055773 272.623802 162.220976 271.789004 
C 161.386178 270.954207 160.253791 270.485157 159.073209 270.485157 
C 157.892627 270.485157 156.760239 270.954207 155.925442 271.789004 
C 155.090644 272.623802 154.621594 273.756189 154.621594 274.936771 
C 154.621594 276.117353 155.090644 277.24974 155.925442 278.084538 
C 156.760239 278.919335 157.892627 279.388386 159.073209 279.388386 
z
" clip-path="url(#pdc9bf2a57e)" style="fill: #31688e; fill-opacity: 0.9; stroke: #7f7f7f; stroke-opacity: 0.9"/>
    <path d="M 190.465603 273.51392 
C 191.95616 273.51392 193.385868 272.921715 194.439851 271.867733 
C 195.493833 270.81375 196.086038 269.384042 196.086038 267.893485 
C 196.086038 266.402929 195.493833 264.973221 194.439851 263.919238 
C 193.385868 262.865255 191.95616 262.273051 190.465603 262.273051 
C 188.975047 262.273051 187.545339 262.865255 186.491356 263.919238 
C 185.437373 264.973221 184.845169 266.402929 184.845169 267.893485 
C 184.845169 269.384042 185.437373 270.81375 186.491356 271.867733 
C 187.545339 272.921715 188.975047 273.51392 190.465603 273.51392 
z
" clip-path="url(#pdc9bf2a57e)" style="fill: #2d708e; fill-opacity: 0.9; stroke: #7f7f7f; stroke-opacity: 0.9"/>
    <path d="M 267.894422 228.437473 
C 270.338316 228.437473 272.682443 227.466504 274.410536 225.73841 
C 276.13863 224.010317 277.109599 221.66619 277.109599 219.222296 
C 277.109599 216.778403 276.13863 214.434276 274.410536 212.706182 
C 272.682443 210.978088 270.338316 210.007119 267.894422 210.007119 
C 265.450529 210.007119 263.106402 210.978088 261.378308 212.706182 
C 259.650214 214.434276 258.679245 216.778403 258.679245 219.222296 
C 258.679245 221.66619 259.650214 224.010317 261.378308 225.73841 
C 263.106402 227.466504 265.450529 228.437473 267.894422 228.437473 
z
" clip-path="url(#pdc9bf2a57e)" style="fill: #2a768e; fill-opacity: 0.9; stroke: #7f7f7f; stroke-opacity: 0.9"/>
    <path d="M 371.543129 161.207237 
C 373.178609 161.207237 374.747324 160.557454 375.903783 159.400995 
C 377.060243 158.244536 377.710026 156.67582 377.710026 155.04034 
C 377.710026 153.40486 377.060243 151.836145 375.903783 150.679685 
C 374.747324 149.523226 373.178609 148.873443 371.543129 148.873443 
C 369.907648 148.873443 368.338933 149.523226 367.182474 150.679685 
C 366.026015 151.836145 365.376232 153.40486 365.376232 155.04034 
C 365.376232 156.67582 366.026015 158.244536 367.182474 159.400995 
C 368.338933 160.557454 369.907648 161.207237 371.543129 161.207237 
z
" clip-path="url(#pdc9bf2a57e)" style="fill: #277e8e; fill-opacity: 0.9; stroke: #7f7f7f; stroke-opacity: 0.9"/>
    <path d="M 375.051634 141.100221 
C 376.687114 141.100221 378.25583 140.450438 379.412289 139.293978 
C 380.568748 138.137519 381.218531 136.568804 381.218531 134.933324 
C 381.218531 133.297844 380.568748 131.729128 379.412289 130.572669 
C 378.25583 129.41621 376.687114 128.766427 375.051634 128.766427 
C 373.416154 128.766427 371.847439 129.41621 370.690979 130.572669 
C 369.53452 131.729128 368.884737 133.297844 368.884737 134.933324 
C 368.884737 136.568804 369.53452 138.137519 370.690979 139.293978 
C 371.847439 140.450438 373.416154 141.100221 375.051634 141.100221 
z
" clip-path="url(#pdc9bf2a57e)" style="fill: #25858e; fill-opacity: 0.9; stroke: #7f7f7f; stroke-opacity: 0.9"/>
    <path d="M 88.589752 195.338411 
C 89.379195 195.338411 90.13641 195.024762 90.69463 194.466542 
C 91.25285 193.908322 91.566499 193.151107 91.566499 192.361664 
C 91.566499 191.572221 91.25285 190.815006 90.69463 190.256786 
C 90.13641 189.698566 89.379195 189.384917 88.589752 189.384917 
C 87.800309 189.384917 87.043094 189.698566 86.484874 190.256786 
C 85.926654 190.815006 85.613005 191.572221 85.613005 192.361664 
C 85.613005 193.151107 85.926654 193.908322 86.484874 194.466542 
C 87.043094 195.024762 87.800309 195.338411 88.589752 195.338411 
z
" clip-path="url(#pdc9bf2a57e)" style="fill: #228d8d; fill-opacity: 0.9; stroke: #7f7f7f; stroke-opacity: 0.9"/>
    <path d="M 233.20136 290.377484 
C 234.762305 290.377484 236.259528 289.757314 237.363283 288.653559 
C 238.467038 287.549805 239.087208 286.052582 239.087208 284.491636 
C 239.087208 282.930691 238.467038 281.433468 237.363283 280.329713 
C 236.259528 279.225958 234.762305 278.605788 233.20136 278.605788 
C 231.640415 278.605788 230.143192 279.225958 229.039437 280.329713 
C 227.935682 281.433468 227.315512 282.930691 227.315512 284.491636 
C 227.315512 286.052582 227.935682 287.549805 229.039437 288.653559 
C 230.143192 289.757314 231.640415 290.377484 233.20136 290.377484 
z
" clip-path="url(#pdc9bf2a57e)" style="fill: #20938c; fill-opacity: 0.9; stroke: #7f7f7f; stroke-opacity: 0.9"/>
    <path d="M 383.730248 177.221861 
C 385.365728 177.221861 386.934444 176.572077 388.090903 175.415618 
C 389.247362 174.259159 389.897145 172.690444 389.897145 171.054964 
C 389.897145 169.419483 389.247362 167.850768 388.090903 166.694309 
C 386.934444 165.53785 385.365728 164.888067 383.730248 164.888067 
C 382.094768 164.888067 380.526052 165.53785 379.369593 166.694309 
C 378.213134 167.850768 377.563351 169.419483 377.563351 171.054964 
C 377.563351 172.690444 378.213134 174.259159 379.369593 175.415618 
C 380.526052 176.572077 382.094768 177.221861 383.730248 177.221861 
z
" clip-path="url(#pdc9bf2a57e)" style="fill: #1e9b8a; fill-opacity: 0.9; stroke: #7f7f7f; stroke-opacity: 0.9"/>
    <path d="M 261.757277 210.375833 
C 263.732334 210.375833 265.626765 209.591135 267.023341 208.194558 
C 268.419918 206.797982 269.204616 204.903551 269.204616 202.928494 
C 269.204616 200.953436 268.419918 199.059006 267.023341 197.66243 
C 265.626765 196.265853 263.732334 195.481154 261.757277 195.481154 
C 259.782219 195.481154 257.887789 196.265853 256.491213 197.66243 
C 255.094636 199.059006 254.309937 200.953436 254.309937 202.928494 
C 254.309937 204.903551 255.094636 206.797982 256.491213 208.194558 
C 257.887789 209.591135 259.782219 210.375833 261.757277 210.375833 
z
" clip-path="url(#pdc9bf2a57e)" style="fill: #1fa287; fill-opacity: 0.9; stroke: #7f7f7f; stroke-opacity: 0.9"/>
    <path d="M 372.910604 196.389458 
C 374.546084 196.389458 376.1148 195.739675 377.271259 194.583216 
C 378.427718 193.426757 379.077501 191.858042 379.077501 190.222561 
C 379.077501 188.587081 378.427718 187.018366 377.271259 185.861907 
C 376.1148 184.705448 374.546084 184.055664 372.910604 184.055664 
C 371.275124 184.055664 369.706409 184.705448 368.549949 185.861907 
C 367.39349 187.018366 366.743707 188.587081 366.743707 190.222561 
C 366.743707 191.858042 367.39349 193.426757 368.549949 194.583216 
C 369.706409 195.739675 371.275124 196.389458 372.910604 196.389458 
z
" clip-path="url(#pdc9bf2a57e)" style="fill: #24aa83; fill-opacity: 0.9; stroke: #7f7f7f; stroke-opacity: 0.9"/>
    <path d="M 214.030994 286.23607 
C 215.591939 286.23607 217.089162 285.6159 218.192917 284.512145 
C 219.296672 283.40839 219.916842 281.911167 219.916842 280.350222 
C 219.916842 278.789277 219.296672 277.292054 218.192917 276.188299 
C 217.089162 275.084544 215.591939 274.464374 214.030994 274.464374 
C 212.470049 274.464374 210.972826 275.084544 209.869071 276.188299 
C 208.765316 277.292054 208.145146 278.789277 208.145146 280.350222 
C 208.145146 281.911167 208.765316 283.40839 209.869071 284.512145 
C 210.972826 285.6159 212.470049 286.23607 214.030994 286.23607 
z
" clip-path="url(#pdc9bf2a57e)" style="fill: #2ab07f; fill-opacity: 0.9; stroke: #7f7f7f; stroke-opacity: 0.9"/>
    <path d="M 359.18626 212.601365 
C 360.82174 212.601365 362.390455 211.951582 363.546914 210.795122 
C 364.703374 209.638663 365.353157 208.069948 365.353157 206.434468 
C 365.353157 204.798987 364.703374 203.230272 363.546914 202.073813 
C 362.390455 200.917354 360.82174 200.267571 359.18626 200.267571 
C 357.550779 200.267571 355.982064 200.917354 354.825605 202.073813 
C 353.669146 203.230272 353.019363 204.798987 353.019363 206.434468 
C 353.019363 208.069948 353.669146 209.638663 354.825605 210.795122 
C 355.982064 211.951582 357.550779 212.601365 359.18626 212.601365 
z
" clip-path="url(#pdc9bf2a57e)" style="fill: #35b779; fill-opacity: 0.9; stroke: #7f7f7f; stroke-opacity: 0.9"/>
    <path d="M 325.429721 111.239527 
C 327.419672 111.239527 329.328388 110.448911 330.735496 109.041804 
C 332.142604 107.634696 332.93322 105.72598 332.93322 103.736029 
C 332.93322 101.746078 332.142604 99.837362 330.735496 98.430254 
C 329.328388 97.023146 327.419672 96.23253 325.429721 96.23253 
C 323.43977 96.23253 321.531054 97.023146 320.123946 98.430254 
C 318.716838 99.837362 317.926223 101.746078 317.926223 103.736029 
C 317.926223 105.72598 318.716838 107.634696 320.123946 109.041804 
C 321.531054 110.448911 323.43977 111.239527 325.429721 111.239527 
z
" clip-path="url(#pdc9bf2a57e)" style="fill: #42be71; fill-opacity: 0.9; stroke: #7f7f7f; stroke-opacity: 0.9"/>
    <path d="M 268.045977 73.053264 
C 269.272745 73.053264 270.449432 72.565864 271.316888 71.698408 
C 272.184344 70.830952 272.671744 69.654265 272.671744 68.427497 
C 272.671744 67.200729 272.184344 66.024041 271.316888 65.156585 
C 270.449432 64.28913 269.272745 63.80173 268.045977 63.80173 
C 266.819209 63.80173 265.642521 64.28913 264.775066 65.156585 
C 263.90761 66.024041 263.42021 67.200729 263.42021 68.427497 
C 263.42021 69.654265 263.90761 70.830952 264.775066 71.698408 
C 265.642521 72.565864 266.819209 73.053264 268.045977 73.053264 
z
" clip-path="url(#pdc9bf2a57e)" style="fill: #52c569; fill-opacity: 0.9; stroke: #7f7f7f; stroke-opacity: 0.9"/>
    <path d="M 293.638808 69.276731 
C 294.888542 69.276731 296.087259 68.780207 296.970955 67.896511 
C 297.854651 67.012815 298.351175 65.814098 298.351175 64.564364 
C 298.351175 63.314629 297.854651 62.115912 296.970955 61.232216 
C 296.087259 60.348521 294.888542 59.851996 293.638808 59.851996 
C 292.389073 59.851996 291.190356 60.348521 290.306661 61.232216 
C 289.422965 62.115912 288.92644 63.314629 288.92644 64.564364 
C 288.92644 65.814098 289.422965 67.012815 290.306661 67.896511 
C 291.190356 68.780207 292.389073 69.276731 293.638808 69.276731 
z
" clip-path="url(#pdc9bf2a57e)" style="fill: #60ca60; fill-opacity: 0.9; stroke: #7f7f7f; stroke-opacity: 0.9"/>
    <path d="M 373.460202 104.420507 
C 374.872182 104.420507 376.22652 103.859521 377.224941 102.861101 
C 378.223361 101.862681 378.784346 100.508342 378.784346 99.096363 
C 378.784346 97.684383 378.223361 96.330045 377.224941 95.331625 
C 376.22652 94.333204 374.872182 93.772219 373.460202 93.772219 
C 372.048223 93.772219 370.693884 94.333204 369.695464 95.331625 
C 368.697044 96.330045 368.136058 97.684383 368.136058 99.096363 
C 368.136058 100.508342 368.697044 101.862681 369.695464 102.861101 
C 370.693884 103.859521 372.048223 104.420507 373.460202 104.420507 
z
" clip-path="url(#pdc9bf2a57e)" style="fill: #73d056; fill-opacity: 0.9; stroke: #7f7f7f; stroke-opacity: 0.9"/>
    <path d="M 290.270055 119.851444 
C 292.146404 119.851444 293.946155 119.105962 295.272935 117.779183 
C 296.599714 116.452404 297.345195 114.652652 297.345195 112.776303 
C 297.345195 110.899954 296.599714 109.100202 295.272935 107.773423 
C 293.946155 106.446644 292.146404 105.701162 290.270055 105.701162 
C 288.393705 105.701162 286.593954 106.446644 285.267174 107.773423 
C 283.940395 109.100202 283.194914 110.899954 283.194914 112.776303 
C 283.194914 114.652652 283.940395 116.452404 285.267174 117.779183 
C 286.593954 119.105962 288.393705 119.851444 290.270055 119.851444 
z
" clip-path="url(#pdc9bf2a57e)" style="fill: #86d549; fill-opacity: 0.9; stroke: #7f7f7f; stroke-opacity: 0.9"/>
    <path d="M 293.201449 154.210206 
C 295.060832 154.210206 296.844311 153.471465 298.159094 152.156682 
C 299.473877 150.8419 300.212618 149.058421 300.212618 147.199037 
C 300.212618 145.339653 299.473877 143.556175 298.159094 142.241392 
C 296.844311 140.926609 295.060832 140.187868 293.201449 140.187868 
C 291.342065 140.187868 289.558586 140.926609 288.243803 142.241392 
C 286.92902 143.556175 286.190279 145.339653 286.190279 147.199037 
C 286.190279 149.058421 286.92902 150.8419 288.243803 152.156682 
C 289.558586 153.471465 291.342065 154.210206 293.201449 154.210206 
z
" clip-path="url(#pdc9bf2a57e)" style="fill: #9bd93c; fill-opacity: 0.9; stroke: #7f7f7f; stroke-opacity: 0.9"/>
    <path d="M 352.500795 121.76232 
C 354.387623 121.76232 356.197424 121.012675 357.531612 119.678487 
C 358.865801 118.344299 359.615445 116.534497 359.615445 114.64767 
C 359.615445 112.760843 358.865801 110.951041 357.531612 109.616853 
C 356.197424 108.282665 354.387623 107.53302 352.500795 107.53302 
C 350.613968 107.53302 348.804166 108.282665 347.469978 109.616853 
C 346.13579 110.951041 345.386145 112.760843 345.386145 114.64767 
C 345.386145 116.534497 346.13579 118.344299 347.469978 119.678487 
C 348.804166 121.012675 350.613968 121.76232 352.500795 121.76232 
z
" clip-path="url(#pdc9bf2a57e)" style="fill: #addc30; fill-opacity: 0.9; stroke: #7f7f7f; stroke-opacity: 0.9"/>
    <path d="M 311.387611 222.939942 
C 313.534564 222.939942 315.593873 222.086948 317.111999 220.568822 
C 318.630124 219.050697 319.483118 216.991388 319.483118 214.844434 
C 319.483118 212.697481 318.630124 210.638172 317.111999 209.120046 
C 315.593873 207.601921 313.534564 206.748927 311.387611 206.748927 
C 309.240657 206.748927 307.181348 207.601921 305.663222 209.120046 
C 304.145097 210.638172 303.292103 212.697481 303.292103 214.844434 
C 303.292103 216.991388 304.145097 219.050697 305.663222 220.568822 
C 307.181348 222.086948 309.240657 222.939942 311.387611 222.939942 
z
" clip-path="url(#pdc9bf2a57e)" style="fill: #c2df23; fill-opacity: 0.9; stroke: #7f7f7f; stroke-opacity: 0.9"/>
    <path d="M 273.082978 140.581235 
C 275.327662 140.581235 277.480712 139.689413 279.067943 138.102181 
C 280.655174 136.51495 281.546997 134.3619 281.546997 132.117216 
C 281.546997 129.872532 280.655174 127.719482 279.067943 126.132251 
C 277.480712 124.54502 275.327662 123.653197 273.082978 123.653197 
C 270.838294 123.653197 268.685244 124.54502 267.098013 126.132251 
C 265.510781 127.719482 264.618959 129.872532 264.618959 132.117216 
C 264.618959 134.3619 265.510781 136.51495 267.098013 138.102181 
C 268.685244 139.689413 270.838294 140.581235 273.082978 140.581235 
z
" clip-path="url(#pdc9bf2a57e)" style="fill: #d8e219; fill-opacity: 0.9; stroke: #7f7f7f; stroke-opacity: 0.9"/>
    <path d="M 333.588454 174.999841 
C 336.441802 174.999841 339.178669 173.866194 341.196291 171.848572 
C 343.213913 169.83095 344.34756 167.094084 344.34756 164.240736 
C 344.34756 161.387387 343.213913 158.650521 341.196291 156.632899 
C 339.178669 154.615277 336.441802 153.48163 333.588454 153.48163 
C 330.735106 153.48163 327.998239 154.615277 325.980617 156.632899 
C 323.962996 158.650521 322.829348 161.387387 322.829348 164.240736 
C 322.829348 167.094084 323.962996 169.83095 325.980617 171.848572 
C 327.998239 173.866194 330.735106 174.999841 333.588454 174.999841 
z
" clip-path="url(#pdc9bf2a57e)" style="fill: #ece51b; fill-opacity: 0.9; stroke: #7f7f7f; stroke-opacity: 0.9"/>
    <path d="M 322.963846 171.725634 
C 326.102131 171.725634 329.112303 170.47878 331.331406 168.259677 
C 333.550508 166.040575 334.797362 163.030403 334.797362 159.892118 
C 334.797362 156.753833 333.550508 153.743661 331.331406 151.524558 
C 329.112303 149.305456 326.102131 148.058602 322.963846 148.058602 
C 319.825561 148.058602 316.815389 149.305456 314.596287 151.524558 
C 312.377184 153.743661 311.13033 156.753833 311.13033 159.892118 
C 311.13033 163.030403 312.377184 166.040575 314.596287 168.259677 
C 316.815389 170.47878 319.825561 171.725634 322.963846 171.725634 
z
" clip-path="url(#pdc9bf2a57e)" style="fill: #fde725; fill-opacity: 0.9; stroke: #7f7f7f; stroke-opacity: 0.9"/>
   </g>
   <g id="patch_3">
    <path d="M 57.6 307.584 
L 57.6 41.472 
" style="fill: none; stroke: #000000; stroke-width: 0.8; stroke-linejoin: miter; stroke-linecap: square"/>
   </g>
   <g id="patch_4">
    <path d="M 414.72 307.584 
L 414.72 41.472 
" style="fill: none; stroke: #000000; stroke-width: 0.8; stroke-linejoin: miter; stroke-linecap: square"/>
   </g>
   <g id="patch_5">
    <path d="M 57.6 307.584 
L 414.72 307.584 
" style="fill: none; stroke: #000000; stroke-width: 0.8; stroke-linejoin: miter; stroke-linecap: square"/>
   </g>
   <g id="patch_6">
    <path d="M 57.6 41.472 
L 414.72 41.472 
" style="fill: none; stroke: #000000; stroke-width: 0.8; stroke-linejoin: miter; stroke-linecap: square"/>
   </g>
   <g id="text_1">
    <g clip-path="url(#pdc9bf2a57e)">
     <!-- 0.36 -->
     <g transform="translate(203.286264 220.038198) scale(0.06 -0.06)">
      <defs>
       <path id="DejaVuSans-30" d="M 2034 4250 
Q 1547 4250 1301 3770 
Q 1056 3291 1056 2328 
Q 1056 1369 1301 889 
Q 1547 409 2034 409 
Q 2525 409 2770 889 
Q 3016 1369 3016 2328 
Q 3016 3291 2770 3770 
Q 2525 4250 2034 4250 
z
M 2034 4750 
Q 2819 4750 3233 4129 
Q 3647 3509 3647 2328 
Q 3647 1150 3233 529 
Q 2819 -91 2034 -91 
Q 1250 -91 836 529 
Q 422 1150 422 2328 
Q 422 3509 836 4129 
Q 1250 4750 2034 4750 
z
" transform="scale(0.015625)"/>
       <path id="DejaVuSans-2e" d="M 684 794 
L 1344 794 
L 1344 0 
L 684 0 
L 684 794 
z
" transform="scale(0.015625)"/>
       <path id="DejaVuSans-33" d="M 2597 2516 
Q 3050 2419 3304 2112 
Q 3559 1806 3559 1356 
Q 3559 666 3084 287 
Q 2609 -91 1734 -91 
Q 1441 -91 1130 -33 
Q 819 25 488 141 
L 488 750 
Q 750 597 1062 519 
Q 1375 441 1716 441 
Q 2309 441 2620 675 
Q 2931 909 2931 1356 
Q 2931 1769 2642 2001 
Q 2353 2234 1838 2234 
L 1294 2234 
L 1294 2753 
L 1863 2753 
Q 2328 2753 2575 2939 
Q 2822 3125 2822 3475 
Q 2822 3834 2567 4026 
Q 2313 4219 1838 4219 
Q 1578 4219 1281 4162 
Q 984 4106 628 3988 
L 628 4550 
Q 988 4650 1302 4700 
Q 1616 4750 1894 4750 
Q 2613 4750 3031 4423 
Q 3450 4097 3450 3541 
Q 3450 3153 3228 2886 
Q 3006 2619 2597 2516 
z
" transform="scale(0.015625)"/>
       <path id="DejaVuSans-36" d="M 2113 2584 
Q 1688 2584 1439 2293 
Q 1191 2003 1191 1497 
Q 1191 994 1439 701 
Q 1688 409 2113 409 
Q 2538 409 2786 701 
Q 3034 994 3034 1497 
Q 3034 2003 2786 2293 
Q 2538 2584 2113 2584 
z
M 3366 4563 
L 3366 3988 
Q 3128 4100 2886 4159 
Q 2644 4219 2406 4219 
Q 1781 4219 1451 3797 
Q 1122 3375 1075 2522 
Q 1259 2794 1537 2939 
Q 1816 3084 2150 3084 
Q 2853 3084 3261 2657 
Q 3669 2231 3669 1497 
Q 3669 778 3244 343 
Q 2819 -91 2113 -91 
Q 1303 -91 875 529 
Q 447 1150 447 2328 
Q 447 3434 972 4092 
Q 1497 4750 2381 4750 
Q 2619 4750 2861 4703 
Q 3103 4656 3366 4563 
z
" transform="scale(0.015625)"/>
      </defs>
      <use xlink:href="#DejaVuSans-30"/>
      <use xlink:href="#DejaVuSans-2e" x="63.623047"/>
      <use xlink:href="#DejaVuSans-33" x="95.410156"/>
      <use xlink:href="#DejaVuSans-36" x="159.033203"/>
     </g>
    </g>
   </g>
   <g id="text_2">
    <g clip-path="url(#pdc9bf2a57e)">
     <!-- 0.27 -->
     <g transform="translate(245.239711 243.387896) scale(0.06 -0.06)">
      <defs>
       <path id="DejaVuSans-32" d="M 1228 531 
L 3431 531 
L 3431 0 
L 469 0 
L 469 531 
Q 828 903 1448 1529 
Q 2069 2156 2228 2338 
Q 2531 2678 2651 2914 
Q 2772 3150 2772 3378 
Q 2772 3750 2511 3984 
Q 2250 4219 1831 4219 
Q 1534 4219 1204 4116 
Q 875 4013 500 3803 
L 500 4441 
Q 881 4594 1212 4672 
Q 1544 4750 1819 4750 
Q 2544 4750 2975 4387 
Q 3406 4025 3406 3419 
Q 3406 3131 3298 2873 
Q 3191 2616 2906 2266 
Q 2828 2175 2409 1742 
Q 1991 1309 1228 531 
z
" transform="scale(0.015625)"/>
       <path id="DejaVuSans-37" d="M 525 4666 
L 3525 4666 
L 3525 4397 
L 1831 0 
L 1172 0 
L 2766 4134 
L 525 4134 
L 525 4666 
z
" transform="scale(0.015625)"/>
      </defs>
      <use xlink:href="#DejaVuSans-30"/>
      <use xlink:href="#DejaVuSans-2e" x="63.623047"/>
      <use xlink:href="#DejaVuSans-32" x="95.410156"/>
      <use xlink:href="#DejaVuSans-37" x="159.033203"/>
     </g>
    </g>
   </g>
   <g id="text_3">
    <g clip-path="url(#pdc9bf2a57e)">
     <!-- 0.32 -->
     <g transform="translate(257.688117 186.259193) scale(0.06 -0.06)">
      <use xlink:href="#DejaVuSans-30"/>
      <use xlink:href="#DejaVuSans-2e" x="63.623047"/>
      <use xlink:href="#DejaVuSans-33" x="95.410156"/>
      <use xlink:href="#DejaVuSans-32" x="159.033203"/>
     </g>
    </g>
   </g>
   <g id="text_4">
    <g clip-path="url(#pdc9bf2a57e)">
     <!-- 0.21 -->
     <g transform="translate(223.226793 240.386264) scale(0.06 -0.06)">
      <defs>
       <path id="DejaVuSans-31" d="M 794 531 
L 1825 531 
L 1825 4091 
L 703 3866 
L 703 4441 
L 1819 4666 
L 2450 4666 
L 2450 531 
L 3481 531 
L 3481 0 
L 794 0 
L 794 531 
z
" transform="scale(0.015625)"/>
      </defs>
      <use xlink:href="#DejaVuSans-30"/>
      <use xlink:href="#DejaVuSans-2e" x="63.623047"/>
      <use xlink:href="#DejaVuSans-32" x="95.410156"/>
      <use xlink:href="#DejaVuSans-31" x="159.033203"/>
     </g>
    </g>
   </g>
   <g id="text_5">
    <g clip-path="url(#pdc9bf2a57e)">
     <!-- 0.08 -->
     <g transform="translate(150.512224 205.777381) scale(0.06 -0.06)">
      <defs>
       <path id="DejaVuSans-38" d="M 2034 2216 
Q 1584 2216 1326 1975 
Q 1069 1734 1069 1313 
Q 1069 891 1326 650 
Q 1584 409 2034 409 
Q 2484 409 2743 651 
Q 3003 894 3003 1313 
Q 3003 1734 2745 1975 
Q 2488 2216 2034 2216 
z
M 1403 2484 
Q 997 2584 770 2862 
Q 544 3141 544 3541 
Q 544 4100 942 4425 
Q 1341 4750 2034 4750 
Q 2731 4750 3128 4425 
Q 3525 4100 3525 3541 
Q 3525 3141 3298 2862 
Q 3072 2584 2669 2484 
Q 3125 2378 3379 2068 
Q 3634 1759 3634 1313 
Q 3634 634 3220 271 
Q 2806 -91 2034 -91 
Q 1263 -91 848 271 
Q 434 634 434 1313 
Q 434 1759 690 2068 
Q 947 2378 1403 2484 
z
M 1172 3481 
Q 1172 3119 1398 2916 
Q 1625 2713 2034 2713 
Q 2441 2713 2670 2916 
Q 2900 3119 2900 3481 
Q 2900 3844 2670 4047 
Q 2441 4250 2034 4250 
Q 1625 4250 1398 4047 
Q 1172 3844 1172 3481 
z
" transform="scale(0.015625)"/>
      </defs>
      <use xlink:href="#DejaVuSans-30"/>
      <use xlink:href="#DejaVuSans-2e" x="63.623047"/>
      <use xlink:href="#DejaVuSans-30" x="95.410156"/>
      <use xlink:href="#DejaVuSans-38" x="159.033203"/>
     </g>
    </g>
   </g>
   <g id="text_6">
    <g clip-path="url(#pdc9bf2a57e)">
     <!-- 0.08 -->
     <g transform="translate(124.278756 215.04992) scale(0.06 -0.06)">
      <use xlink:href="#DejaVuSans-30"/>
      <use xlink:href="#DejaVuSans-2e" x="63.623047"/>
      <use xlink:href="#DejaVuSans-30" x="95.410156"/>
      <use xlink:href="#DejaVuSans-38" x="159.033203"/>
     </g>
    </g>
   </g>
   <g id="text_7">
    <g clip-path="url(#pdc9bf2a57e)">
     <!-- 0.08 -->
     <g transform="translate(129.634942 192.073497) scale(0.06 -0.06)">
      <use xlink:href="#DejaVuSans-30"/>
      <use xlink:href="#DejaVuSans-2e" x="63.623047"/>
      <use xlink:href="#DejaVuSans-30" x="95.410156"/>
      <use xlink:href="#DejaVuSans-38" x="159.033203"/>
     </g>
    </g>
   </g>
   <g id="text_8">
    <g clip-path="url(#pdc9bf2a57e)">
     <!-- 0.17 -->
     <g transform="translate(222.244587 214.603291) scale(0.06 -0.06)">
      <use xlink:href="#DejaVuSans-30"/>
      <use xlink:href="#DejaVuSans-2e" x="63.623047"/>
      <use xlink:href="#DejaVuSans-31" x="95.410156"/>
      <use xlink:href="#DejaVuSans-37" x="159.033203"/>
     </g>
    </g>
   </g>
   <g id="text_9">
    <g clip-path="url(#pdc9bf2a57e)">
     <!-- 0.23 -->
     <g transform="translate(280.703838 197.539582) scale(0.06 -0.06)">
      <use xlink:href="#DejaVuSans-30"/>
      <use xlink:href="#DejaVuSans-2e" x="63.623047"/>
      <use xlink:href="#DejaVuSans-32" x="95.410156"/>
      <use xlink:href="#DejaVuSans-33" x="159.033203"/>
     </g>
    </g>
   </g>
   <g id="text_10">
    <g clip-path="url(#pdc9bf2a57e)">
     <!-- 0.1 -->
     <g transform="translate(264.501976 150.77157) scale(0.06 -0.06)">
      <use xlink:href="#DejaVuSans-30"/>
      <use xlink:href="#DejaVuSans-2e" x="63.623047"/>
      <use xlink:href="#DejaVuSans-31" x="95.410156"/>
     </g>
    </g>
   </g>
   <g id="text_11">
    <g clip-path="url(#pdc9bf2a57e)">
     <!-- 0.08 -->
     <g transform="translate(142.940409 235.63686) scale(0.06 -0.06)">
      <use xlink:href="#DejaVuSans-30"/>
      <use xlink:href="#DejaVuSans-2e" x="63.623047"/>
      <use xlink:href="#DejaVuSans-30" x="95.410156"/>
      <use xlink:href="#DejaVuSans-38" x="159.033203"/>
     </g>
    </g>
   </g>
   <g id="text_12">
    <g clip-path="url(#pdc9bf2a57e)">
     <!-- 0.05 -->
     <g transform="translate(152.393521 276.592396) scale(0.06 -0.06)">
      <defs>
       <path id="DejaVuSans-35" d="M 691 4666 
L 3169 4666 
L 3169 4134 
L 1269 4134 
L 1269 2991 
Q 1406 3038 1543 3061 
Q 1681 3084 1819 3084 
Q 2600 3084 3056 2656 
Q 3513 2228 3513 1497 
Q 3513 744 3044 326 
Q 2575 -91 1722 -91 
Q 1428 -91 1123 -41 
Q 819 9 494 109 
L 494 744 
Q 775 591 1075 516 
Q 1375 441 1709 441 
Q 2250 441 2565 725 
Q 2881 1009 2881 1497 
Q 2881 1984 2565 2268 
Q 2250 2553 1709 2553 
Q 1456 2553 1204 2497 
Q 953 2441 691 2322 
L 691 4666 
z
" transform="scale(0.015625)"/>
      </defs>
      <use xlink:href="#DejaVuSans-30"/>
      <use xlink:href="#DejaVuSans-2e" x="63.623047"/>
      <use xlink:href="#DejaVuSans-30" x="95.410156"/>
      <use xlink:href="#DejaVuSans-35" x="159.033203"/>
     </g>
    </g>
   </g>
   <g id="text_13">
    <g clip-path="url(#pdc9bf2a57e)">
     <!-- 0.08 -->
     <g transform="translate(183.785916 269.54911) scale(0.06 -0.06)">
      <use xlink:href="#DejaVuSans-30"/>
      <use xlink:href="#DejaVuSans-2e" x="63.623047"/>
      <use xlink:href="#DejaVuSans-30" x="95.410156"/>
      <use xlink:href="#DejaVuSans-38" x="159.033203"/>
     </g>
    </g>
   </g>
   <g id="text_14">
    <g clip-path="url(#pdc9bf2a57e)">
     <!-- 0.23 -->
     <g transform="translate(261.214735 220.877921) scale(0.06 -0.06)">
      <use xlink:href="#DejaVuSans-30"/>
      <use xlink:href="#DejaVuSans-2e" x="63.623047"/>
      <use xlink:href="#DejaVuSans-32" x="95.410156"/>
      <use xlink:href="#DejaVuSans-33" x="159.033203"/>
     </g>
    </g>
   </g>
   <g id="text_15">
    <g clip-path="url(#pdc9bf2a57e)">
     <!-- 0.1 -->
     <g transform="translate(366.772191 156.695965) scale(0.06 -0.06)">
      <use xlink:href="#DejaVuSans-30"/>
      <use xlink:href="#DejaVuSans-2e" x="63.623047"/>
      <use xlink:href="#DejaVuSans-31" x="95.410156"/>
     </g>
    </g>
   </g>
   <g id="text_16">
    <g clip-path="url(#pdc9bf2a57e)">
     <!-- 0.1 -->
     <g transform="translate(370.280697 136.588949) scale(0.06 -0.06)">
      <use xlink:href="#DejaVuSans-30"/>
      <use xlink:href="#DejaVuSans-2e" x="63.623047"/>
      <use xlink:href="#DejaVuSans-31" x="95.410156"/>
     </g>
    </g>
   </g>
   <g id="text_17">
    <g clip-path="url(#pdc9bf2a57e)">
     <!-- 0.02 -->
     <g transform="translate(81.910065 194.017289) scale(0.06 -0.06)">
      <use xlink:href="#DejaVuSans-30"/>
      <use xlink:href="#DejaVuSans-2e" x="63.623047"/>
      <use xlink:href="#DejaVuSans-30" x="95.410156"/>
      <use xlink:href="#DejaVuSans-32" x="159.033203"/>
     </g>
    </g>
   </g>
   <g id="text_18">
    <g clip-path="url(#pdc9bf2a57e)">
     <!-- 0.09 -->
     <g transform="translate(226.521673 286.147261) scale(0.06 -0.06)">
      <defs>
       <path id="DejaVuSans-39" d="M 703 97 
L 703 672 
Q 941 559 1184 500 
Q 1428 441 1663 441 
Q 2288 441 2617 861 
Q 2947 1281 2994 2138 
Q 2813 1869 2534 1725 
Q 2256 1581 1919 1581 
Q 1219 1581 811 2004 
Q 403 2428 403 3163 
Q 403 3881 828 4315 
Q 1253 4750 1959 4750 
Q 2769 4750 3195 4129 
Q 3622 3509 3622 2328 
Q 3622 1225 3098 567 
Q 2575 -91 1691 -91 
Q 1453 -91 1209 -44 
Q 966 3 703 97 
z
M 1959 2075 
Q 2384 2075 2632 2365 
Q 2881 2656 2881 3163 
Q 2881 3666 2632 3958 
Q 2384 4250 1959 4250 
Q 1534 4250 1286 3958 
Q 1038 3666 1038 3163 
Q 1038 2656 1286 2365 
Q 1534 2075 1959 2075 
z
" transform="scale(0.015625)"/>
      </defs>
      <use xlink:href="#DejaVuSans-30"/>
      <use xlink:href="#DejaVuSans-2e" x="63.623047"/>
      <use xlink:href="#DejaVuSans-30" x="95.410156"/>
      <use xlink:href="#DejaVuSans-39" x="159.033203"/>
     </g>
    </g>
   </g>
   <g id="text_19">
    <g clip-path="url(#pdc9bf2a57e)">
     <!-- 0.1 -->
     <g transform="translate(378.95931 172.710589) scale(0.06 -0.06)">
      <use xlink:href="#DejaVuSans-30"/>
      <use xlink:href="#DejaVuSans-2e" x="63.623047"/>
      <use xlink:href="#DejaVuSans-31" x="95.410156"/>
     </g>
    </g>
   </g>
   <g id="text_20">
    <g clip-path="url(#pdc9bf2a57e)">
     <!-- 0.15 -->
     <g transform="translate(255.077589 204.584119) scale(0.06 -0.06)">
      <use xlink:href="#DejaVuSans-30"/>
      <use xlink:href="#DejaVuSans-2e" x="63.623047"/>
      <use xlink:href="#DejaVuSans-31" x="95.410156"/>
      <use xlink:href="#DejaVuSans-35" x="159.033203"/>
     </g>
    </g>
   </g>
   <g id="text_21">
    <g clip-path="url(#pdc9bf2a57e)">
     <!-- 0.1 -->
     <g transform="translate(368.139667 191.878186) scale(0.06 -0.06)">
      <use xlink:href="#DejaVuSans-30"/>
      <use xlink:href="#DejaVuSans-2e" x="63.623047"/>
      <use xlink:href="#DejaVuSans-31" x="95.410156"/>
     </g>
    </g>
   </g>
   <g id="text_22">
    <g clip-path="url(#pdc9bf2a57e)">
     <!-- 0.09 -->
     <g transform="translate(207.351307 282.005847) scale(0.06 -0.06)">
      <use xlink:href="#DejaVuSans-30"/>
      <use xlink:href="#DejaVuSans-2e" x="63.623047"/>
      <use xlink:href="#DejaVuSans-30" x="95.410156"/>
      <use xlink:href="#DejaVuSans-39" x="159.033203"/>
     </g>
    </g>
   </g>
   <g id="text_23">
    <g clip-path="url(#pdc9bf2a57e)">
     <!-- 0.1 -->
     <g transform="translate(354.415322 208.090093) scale(0.06 -0.06)">
      <use xlink:href="#DejaVuSans-30"/>
      <use xlink:href="#DejaVuSans-2e" x="63.623047"/>
      <use xlink:href="#DejaVuSans-31" x="95.410156"/>
     </g>
    </g>
   </g>
   <g id="text_24">
    <g clip-path="url(#pdc9bf2a57e)">
     <!-- 0.15 -->
     <g transform="translate(318.750034 105.391654) scale(0.06 -0.06)">
      <use xlink:href="#DejaVuSans-30"/>
      <use xlink:href="#DejaVuSans-2e" x="63.623047"/>
      <use xlink:href="#DejaVuSans-31" x="95.410156"/>
      <use xlink:href="#DejaVuSans-35" x="159.033203"/>
     </g>
    </g>
   </g>
   <g id="text_25">
    <g clip-path="url(#pdc9bf2a57e)">
     <!-- 0.06 -->
     <g transform="translate(261.366289 70.083122) scale(0.06 -0.06)">
      <use xlink:href="#DejaVuSans-30"/>
      <use xlink:href="#DejaVuSans-2e" x="63.623047"/>
      <use xlink:href="#DejaVuSans-30" x="95.410156"/>
      <use xlink:href="#DejaVuSans-36" x="159.033203"/>
     </g>
    </g>
   </g>
   <g id="text_26">
    <g clip-path="url(#pdc9bf2a57e)">
     <!-- 0.06 -->
     <g transform="translate(286.95912 66.219989) scale(0.06 -0.06)">
      <use xlink:href="#DejaVuSans-30"/>
      <use xlink:href="#DejaVuSans-2e" x="63.623047"/>
      <use xlink:href="#DejaVuSans-30" x="95.410156"/>
      <use xlink:href="#DejaVuSans-36" x="159.033203"/>
     </g>
    </g>
   </g>
   <g id="text_27">
    <g clip-path="url(#pdc9bf2a57e)">
     <!-- 0.08 -->
     <g transform="translate(366.780515 100.751988) scale(0.06 -0.06)">
      <use xlink:href="#DejaVuSans-30"/>
      <use xlink:href="#DejaVuSans-2e" x="63.623047"/>
      <use xlink:href="#DejaVuSans-30" x="95.410156"/>
      <use xlink:href="#DejaVuSans-38" x="159.033203"/>
     </g>
    </g>
   </g>
   <g id="text_28">
    <g clip-path="url(#pdc9bf2a57e)">
     <!-- 0.13 -->
     <g transform="translate(283.590367 114.431928) scale(0.06 -0.06)">
      <use xlink:href="#DejaVuSans-30"/>
      <use xlink:href="#DejaVuSans-2e" x="63.623047"/>
      <use xlink:href="#DejaVuSans-31" x="95.410156"/>
      <use xlink:href="#DejaVuSans-33" x="159.033203"/>
     </g>
    </g>
   </g>
   <g id="text_29">
    <g clip-path="url(#pdc9bf2a57e)">
     <!-- 0.13 -->
     <g transform="translate(286.521761 148.854662) scale(0.06 -0.06)">
      <use xlink:href="#DejaVuSans-30"/>
      <use xlink:href="#DejaVuSans-2e" x="63.623047"/>
      <use xlink:href="#DejaVuSans-31" x="95.410156"/>
      <use xlink:href="#DejaVuSans-33" x="159.033203"/>
     </g>
    </g>
   </g>
   <g id="text_30">
    <g clip-path="url(#pdc9bf2a57e)">
     <!-- 0.13 -->
     <g transform="translate(345.821108 116.303295) scale(0.06 -0.06)">
      <use xlink:href="#DejaVuSans-30"/>
      <use xlink:href="#DejaVuSans-2e" x="63.623047"/>
      <use xlink:href="#DejaVuSans-31" x="95.410156"/>
      <use xlink:href="#DejaVuSans-33" x="159.033203"/>
     </g>
    </g>
   </g>
   <g id="text_31">
    <g clip-path="url(#pdc9bf2a57e)">
     <!-- 0.17 -->
     <g transform="translate(304.707923 216.500059) scale(0.06 -0.06)">
      <use xlink:href="#DejaVuSans-30"/>
      <use xlink:href="#DejaVuSans-2e" x="63.623047"/>
      <use xlink:href="#DejaVuSans-31" x="95.410156"/>
      <use xlink:href="#DejaVuSans-37" x="159.033203"/>
     </g>
    </g>
   </g>
   <g id="text_32">
    <g clip-path="url(#pdc9bf2a57e)">
     <!-- 0.19 -->
     <g transform="translate(266.40329 133.772841) scale(0.06 -0.06)">
      <use xlink:href="#DejaVuSans-30"/>
      <use xlink:href="#DejaVuSans-2e" x="63.623047"/>
      <use xlink:href="#DejaVuSans-31" x="95.410156"/>
      <use xlink:href="#DejaVuSans-39" x="159.033203"/>
     </g>
    </g>
   </g>
   <g id="text_33">
    <g clip-path="url(#pdc9bf2a57e)">
     <!-- 0.31 -->
     <g transform="translate(326.908767 165.896361) scale(0.06 -0.06)">
      <use xlink:href="#DejaVuSans-30"/>
      <use xlink:href="#DejaVuSans-2e" x="63.623047"/>
      <use xlink:href="#DejaVuSans-33" x="95.410156"/>
      <use xlink:href="#DejaVuSans-31" x="159.033203"/>
     </g>
    </g>
   </g>
   <g id="text_34">
    <g clip-path="url(#pdc9bf2a57e)">
     <!-- 0.37 -->
     <g transform="translate(316.284159 161.547743) scale(0.06 -0.06)">
      <use xlink:href="#DejaVuSans-30"/>
      <use xlink:href="#DejaVuSans-2e" x="63.623047"/>
      <use xlink:href="#DejaVuSans-33" x="95.410156"/>
      <use xlink:href="#DejaVuSans-37" x="159.033203"/>
     </g>
    </g>
   </g>
  </g>
 </g>
 <defs>
  <clipPath id="pdc9bf2a57e">
   <rect x="57.6" y="41.472" width="357.12" height="266.112"/>
  </clipPath>
 </defs>
</svg>
