<?xml version="1.0" encoding="utf-8" standalone="no"?>
<!DOCTYPE svg PUBLIC "-//W3C//DTD SVG 1.1//EN"
  "http://www.w3.org/Graphics/SVG/1.1/DTD/svg11.dtd">
<svg xmlns:xlink="http://www.w3.org/1999/xlink" width="720pt" height="360pt" viewBox="0 0 720 360" xmlns="http://www.w3.org/2000/svg" version="1.1">
 <metadata>
  <rdf:RDF xmlns:dc="http://purl.org/dc/elements/1.1/" xmlns:cc="http://creativecommons.org/ns#" xmlns:rdf="http://www.w3.org/1999/02/22-rdf-syntax-ns#">
   <cc:Work>
    <dc:type rdf:resource="http://purl.org/dc/dcmitype/StillImage"/>
    <dc:date>2023-10-29T18:52:58.626181</dc:date>
    <dc:format>image/svg+xml</dc:format>
    <dc:creator>
     <cc:Agent>
      <dc:title>Matplotlib v3.8.0, https://matplotlib.org/</dc:title>
     </cc:Agent>
    </dc:creator>
   </cc:Work>
  </rdf:RDF>
 </metadata>
 <defs>
  <style type="text/css">*{stroke-linejoin: round; stroke-linecap: butt}</style>
 </defs>
 <g id="figure_1">
  <g id="patch_1">
   <path d="M 0 360 
L 720 360 
L 720 0 
L 0 0 
z
" style="fill: #ffffff"/>
  </g>
  <g id="axes_1">
   <g id="LineCollection_1">
    <path d="M 251.683063 200.162469 
L 270.469255 138.752977 
" clip-path="url(#p646241eb89)" style="fill: none; stroke: #1a1a1a"/>
    <path d="M 251.683063 200.162469 
L 376.753994 165.051208 
" clip-path="url(#p646241eb89)" style="fill: none; stroke: #1a1a1a"/>
    <path d="M 251.683063 200.162469 
L 249.710188 177.543666 
" clip-path="url(#p646241eb89)" style="fill: none; stroke: #1a1a1a"/>
    <path d="M 251.683063 200.162469 
L 109.755822 238.497018 
" clip-path="url(#p646241eb89)" style="fill: none; stroke: #1a1a1a"/>
    <path d="M 251.683063 200.162469 
L 151.832324 288.201974 
" clip-path="url(#p646241eb89)" style="fill: none; stroke: #1a1a1a"/>
    <path d="M 251.683063 200.162469 
L 110.523443 273.56113 
" clip-path="url(#p646241eb89)" style="fill: none; stroke: #1a1a1a"/>
    <path d="M 251.683063 200.162469 
L 239.973059 156.675748 
" clip-path="url(#p646241eb89)" style="fill: none; stroke: #1a1a1a"/>
    <path d="M 251.683063 200.162469 
L 407.207828 142.585055 
" clip-path="url(#p646241eb89)" style="fill: none; stroke: #1a1a1a"/>
    <path d="M 251.683063 200.162469 
L 164.733887 255.896515 
" clip-path="url(#p646241eb89)" style="fill: none; stroke: #1a1a1a"/>
    <path d="M 251.683063 200.162469 
L 260.571204 282.703047 
" clip-path="url(#p646241eb89)" style="fill: none; stroke: #1a1a1a"/>
    <path d="M 251.683063 200.162469 
L 141.327491 195.372695 
" clip-path="url(#p646241eb89)" style="fill: none; stroke: #1a1a1a"/>
    <path d="M 251.683063 200.162469 
L 337.462502 161.055685 
" clip-path="url(#p646241eb89)" style="fill: none; stroke: #1a1a1a"/>
    <path d="M 251.683063 200.162469 
L 164.458268 132.521964 
" clip-path="url(#p646241eb89)" style="fill: none; stroke: #1a1a1a"/>
    <path d="M 251.683063 200.162469 
L 339.450381 130.214576 
" clip-path="url(#p646241eb89)" style="fill: none; stroke: #1a1a1a"/>
    <path d="M 251.683063 200.162469 
L 147.906261 157.529783 
" clip-path="url(#p646241eb89)" style="fill: none; stroke: #1a1a1a"/>
    <path d="M 251.683063 200.162469 
L 480.603498 173.224947 
" clip-path="url(#p646241eb89)" style="fill: none; stroke: #1a1a1a"/>
    <path d="M 270.469255 138.752977 
L 376.753994 165.051208 
" clip-path="url(#p646241eb89)" style="fill: none; stroke: #1a1a1a"/>
    <path d="M 270.469255 138.752977 
L 249.710188 177.543666 
" clip-path="url(#p646241eb89)" style="fill: none; stroke: #1a1a1a"/>
    <path d="M 270.469255 138.752977 
L 239.973059 156.675748 
" clip-path="url(#p646241eb89)" style="fill: none; stroke: #1a1a1a"/>
    <path d="M 270.469255 138.752977 
L 337.462502 161.055685 
" clip-path="url(#p646241eb89)" style="fill: none; stroke: #1a1a1a"/>
    <path d="M 270.469255 138.752977 
L 164.458268 132.521964 
" clip-path="url(#p646241eb89)" style="fill: none; stroke: #1a1a1a"/>
    <path d="M 270.469255 138.752977 
L 339.450381 130.214576 
" clip-path="url(#p646241eb89)" style="fill: none; stroke: #1a1a1a"/>
    <path d="M 270.469255 138.752977 
L 147.906261 157.529783 
" clip-path="url(#p646241eb89)" style="fill: none; stroke: #1a1a1a"/>
    <path d="M 270.469255 138.752977 
L 409.113711 101.453714 
" clip-path="url(#p646241eb89)" style="fill: none; stroke: #1a1a1a"/>
    <path d="M 376.753994 165.051208 
L 249.710188 177.543666 
" clip-path="url(#p646241eb89)" style="fill: none; stroke: #1a1a1a"/>
    <path d="M 376.753994 165.051208 
L 239.973059 156.675748 
" clip-path="url(#p646241eb89)" style="fill: none; stroke: #1a1a1a"/>
    <path d="M 376.753994 165.051208 
L 407.207828 142.585055 
" clip-path="url(#p646241eb89)" style="fill: none; stroke: #1a1a1a"/>
    <path d="M 376.753994 165.051208 
L 494.785938 201.332007 
" clip-path="url(#p646241eb89)" style="fill: none; stroke: #1a1a1a"/>
    <path d="M 376.753994 165.051208 
L 337.462502 161.055685 
" clip-path="url(#p646241eb89)" style="fill: none; stroke: #1a1a1a"/>
    <path d="M 376.753994 165.051208 
L 485.606179 123.253428 
" clip-path="url(#p646241eb89)" style="fill: none; stroke: #1a1a1a"/>
    <path d="M 376.753994 165.051208 
L 452.222631 190.748941 
" clip-path="url(#p646241eb89)" style="fill: none; stroke: #1a1a1a"/>
    <path d="M 376.753994 165.051208 
L 540.449329 118.683863 
" clip-path="url(#p646241eb89)" style="fill: none; stroke: #1a1a1a"/>
    <path d="M 249.710188 177.543666 
L 239.973059 156.675748 
" clip-path="url(#p646241eb89)" style="fill: none; stroke: #1a1a1a"/>
    <path d="M 249.710188 177.543666 
L 141.327491 195.372695 
" clip-path="url(#p646241eb89)" style="fill: none; stroke: #1a1a1a"/>
    <path d="M 249.710188 177.543666 
L 337.462502 161.055685 
" clip-path="url(#p646241eb89)" style="fill: none; stroke: #1a1a1a"/>
    <path d="M 109.755822 238.497018 
L 110.523443 273.56113 
" clip-path="url(#p646241eb89)" style="fill: none; stroke: #1a1a1a"/>
    <path d="M 109.755822 238.497018 
L 164.733887 255.896515 
" clip-path="url(#p646241eb89)" style="fill: none; stroke: #1a1a1a"/>
    <path d="M 151.832324 288.201974 
L 110.523443 273.56113 
" clip-path="url(#p646241eb89)" style="fill: none; stroke: #1a1a1a"/>
    <path d="M 151.832324 288.201974 
L 164.733887 255.896515 
" clip-path="url(#p646241eb89)" style="fill: none; stroke: #1a1a1a"/>
    <path d="M 151.832324 288.201974 
L 62.479339 328.760331 
" clip-path="url(#p646241eb89)" style="fill: none; stroke: #1a1a1a"/>
    <path d="M 110.523443 273.56113 
L 62.479339 328.760331 
" clip-path="url(#p646241eb89)" style="fill: none; stroke: #1a1a1a"/>
    <path d="M 407.207828 142.585055 
L 409.113711 101.453714 
" clip-path="url(#p646241eb89)" style="fill: none; stroke: #1a1a1a"/>
    <path d="M 407.207828 142.585055 
L 540.449329 118.683863 
" clip-path="url(#p646241eb89)" style="fill: none; stroke: #1a1a1a"/>
    <path d="M 407.207828 142.585055 
L 513.377795 122.869349 
" clip-path="url(#p646241eb89)" style="fill: none; stroke: #1a1a1a"/>
    <path d="M 494.785938 201.332007 
L 513.377795 122.869349 
" clip-path="url(#p646241eb89)" style="fill: none; stroke: #1a1a1a"/>
    <path d="M 337.462502 161.055685 
L 513.377795 122.869349 
" clip-path="url(#p646241eb89)" style="fill: none; stroke: #1a1a1a"/>
    <path d="M 611.561804 173.70845 
L 540.449329 118.683863 
" clip-path="url(#p646241eb89)" style="fill: none; stroke: #1a1a1a"/>
    <path d="M 611.561804 173.70845 
L 513.377795 122.869349 
" clip-path="url(#p646241eb89)" style="fill: none; stroke: #1a1a1a"/>
    <path d="M 631.415118 77.822255 
L 540.449329 118.683863 
" clip-path="url(#p646241eb89)" style="fill: none; stroke: #1a1a1a"/>
    <path d="M 631.415118 77.822255 
L 513.377795 122.869349 
" clip-path="url(#p646241eb89)" style="fill: none; stroke: #1a1a1a"/>
    <path d="M 647.337591 133.084166 
L 540.449329 118.683863 
" clip-path="url(#p646241eb89)" style="fill: none; stroke: #1a1a1a"/>
    <path d="M 647.337591 133.084166 
L 513.377795 122.869349 
" clip-path="url(#p646241eb89)" style="fill: none; stroke: #1a1a1a"/>
    <path d="M 339.450381 130.214576 
L 513.377795 122.869349 
" clip-path="url(#p646241eb89)" style="fill: none; stroke: #1a1a1a"/>
    <path d="M 657.520661 103.018177 
L 540.449329 118.683863 
" clip-path="url(#p646241eb89)" style="fill: none; stroke: #1a1a1a"/>
    <path d="M 657.520661 103.018177 
L 513.377795 122.869349 
" clip-path="url(#p646241eb89)" style="fill: none; stroke: #1a1a1a"/>
    <path d="M 593.390997 60.164822 
L 540.449329 118.683863 
" clip-path="url(#p646241eb89)" style="fill: none; stroke: #1a1a1a"/>
    <path d="M 593.390997 60.164822 
L 513.377795 122.869349 
" clip-path="url(#p646241eb89)" style="fill: none; stroke: #1a1a1a"/>
    <path d="M 593.445803 112.833074 
L 644.660578 172.210112 
" clip-path="url(#p646241eb89)" style="fill: none; stroke: #1a1a1a"/>
    <path d="M 593.445803 112.833074 
L 485.606179 123.253428 
" clip-path="url(#p646241eb89)" style="fill: none; stroke: #1a1a1a"/>
    <path d="M 593.445803 112.833074 
L 549.778002 67.181772 
" clip-path="url(#p646241eb89)" style="fill: none; stroke: #1a1a1a"/>
    <path d="M 593.445803 112.833074 
L 540.449329 118.683863 
" clip-path="url(#p646241eb89)" style="fill: none; stroke: #1a1a1a"/>
    <path d="M 593.445803 112.833074 
L 513.377795 122.869349 
" clip-path="url(#p646241eb89)" style="fill: none; stroke: #1a1a1a"/>
    <path d="M 573.320836 169.404065 
L 644.660578 172.210112 
" clip-path="url(#p646241eb89)" style="fill: none; stroke: #1a1a1a"/>
    <path d="M 573.320836 169.404065 
L 485.606179 123.253428 
" clip-path="url(#p646241eb89)" style="fill: none; stroke: #1a1a1a"/>
    <path d="M 573.320836 169.404065 
L 480.603498 173.224947 
" clip-path="url(#p646241eb89)" style="fill: none; stroke: #1a1a1a"/>
    <path d="M 644.660578 172.210112 
L 480.603498 173.224947 
" clip-path="url(#p646241eb89)" style="fill: none; stroke: #1a1a1a"/>
    <path d="M 528.924629 31.239669 
L 549.778002 67.181772 
" clip-path="url(#p646241eb89)" style="fill: none; stroke: #1a1a1a"/>
    <path d="M 528.924629 31.239669 
L 513.377795 122.869349 
" clip-path="url(#p646241eb89)" style="fill: none; stroke: #1a1a1a"/>
    <path d="M 485.606179 123.253428 
L 513.377795 122.869349 
" clip-path="url(#p646241eb89)" style="fill: none; stroke: #1a1a1a"/>
    <path d="M 452.222631 190.748941 
L 480.603498 173.224947 
" clip-path="url(#p646241eb89)" style="fill: none; stroke: #1a1a1a"/>
    <path d="M 452.222631 190.748941 
L 513.377795 122.869349 
" clip-path="url(#p646241eb89)" style="fill: none; stroke: #1a1a1a"/>
    <path d="M 549.778002 67.181772 
L 540.449329 118.683863 
" clip-path="url(#p646241eb89)" style="fill: none; stroke: #1a1a1a"/>
    <path d="M 549.778002 67.181772 
L 513.377795 122.869349 
" clip-path="url(#p646241eb89)" style="fill: none; stroke: #1a1a1a"/>
    <path d="M 409.113711 101.453714 
L 540.449329 118.683863 
" clip-path="url(#p646241eb89)" style="fill: none; stroke: #1a1a1a"/>
    <path d="M 409.113711 101.453714 
L 513.377795 122.869349 
" clip-path="url(#p646241eb89)" style="fill: none; stroke: #1a1a1a"/>
    <path d="M 480.603498 173.224947 
L 540.449329 118.683863 
" clip-path="url(#p646241eb89)" style="fill: none; stroke: #1a1a1a"/>
    <path d="M 480.603498 173.224947 
L 513.377795 122.869349 
" clip-path="url(#p646241eb89)" style="fill: none; stroke: #1a1a1a"/>
    <path d="M 540.449329 118.683863 
L 513.377795 122.869349 
" clip-path="url(#p646241eb89)" style="fill: none; stroke: #1a1a1a"/>
   </g>
   <g id="PathCollection_1">
    <defs>
     <path id="C0_0_d502e7b57d" d="M 0 13.693064 
C 3.631443 13.693064 7.11464 12.250276 9.682458 9.682458 
C 12.250276 7.11464 13.693064 3.631443 13.693064 -0 
C 13.693064 -3.631443 12.250276 -7.11464 9.682458 -9.682458 
C 7.11464 -12.250276 3.631443 -13.693064 0 -13.693064 
C -3.631443 -13.693064 -7.11464 -12.250276 -9.682458 -9.682458 
C -12.250276 -7.11464 -13.693064 -3.631443 -13.693064 0 
C -13.693064 3.631443 -12.250276 7.11464 -9.682458 9.682458 
C -7.11464 12.250276 -3.631443 13.693064 0 13.693064 
z
"/>
    </defs>
    <g clip-path="url(#p646241eb89)">
     <use xlink:href="#C0_0_d502e7b57d" x="251.683063" y="200.162469" style="fill: #e91e63; stroke: #e91e63"/>
    </g>
    <g clip-path="url(#p646241eb89)">
     <use xlink:href="#C0_0_d502e7b57d" x="270.469255" y="138.752977" style="fill: #e91e63; stroke: #e91e63"/>
    </g>
    <g clip-path="url(#p646241eb89)">
     <use xlink:href="#C0_0_d502e7b57d" x="376.753994" y="165.051208" style="fill: #1e88e5; stroke: #1e88e5"/>
    </g>
    <g clip-path="url(#p646241eb89)">
     <use xlink:href="#C0_0_d502e7b57d" x="249.710188" y="177.543666" style="fill: #e91e63; stroke: #e91e63"/>
    </g>
    <g clip-path="url(#p646241eb89)">
     <use xlink:href="#C0_0_d502e7b57d" x="109.755822" y="238.497018" style="fill: #e91e63; stroke: #e91e63"/>
    </g>
    <g clip-path="url(#p646241eb89)">
     <use xlink:href="#C0_0_d502e7b57d" x="151.832324" y="288.201974" style="fill: #e91e63; stroke: #e91e63"/>
    </g>
    <g clip-path="url(#p646241eb89)">
     <use xlink:href="#C0_0_d502e7b57d" x="110.523443" y="273.56113" style="fill: #e91e63; stroke: #e91e63"/>
    </g>
    <g clip-path="url(#p646241eb89)">
     <use xlink:href="#C0_0_d502e7b57d" x="239.973059" y="156.675748" style="fill: #e91e63; stroke: #e91e63"/>
    </g>
    <g clip-path="url(#p646241eb89)">
     <use xlink:href="#C0_0_d502e7b57d" x="407.207828" y="142.585055" style="fill: #1e88e5; stroke: #1e88e5"/>
    </g>
    <g clip-path="url(#p646241eb89)">
     <use xlink:href="#C0_0_d502e7b57d" x="494.785938" y="201.332007" style="fill: #1e88e5; stroke: #1e88e5"/>
    </g>
    <g clip-path="url(#p646241eb89)">
     <use xlink:href="#C0_0_d502e7b57d" x="164.733887" y="255.896515" style="fill: #e91e63; stroke: #e91e63"/>
    </g>
    <g clip-path="url(#p646241eb89)">
     <use xlink:href="#C0_0_d502e7b57d" x="260.571204" y="282.703047" style="fill: #e91e63; stroke: #e91e63"/>
    </g>
    <g clip-path="url(#p646241eb89)">
     <use xlink:href="#C0_0_d502e7b57d" x="141.327491" y="195.372695" style="fill: #e91e63; stroke: #e91e63"/>
    </g>
    <g clip-path="url(#p646241eb89)">
     <use xlink:href="#C0_0_d502e7b57d" x="337.462502" y="161.055685" style="fill: #e91e63; stroke: #e91e63"/>
    </g>
    <g clip-path="url(#p646241eb89)">
     <use xlink:href="#C0_0_d502e7b57d" x="611.561804" y="173.70845" style="fill: #1e88e5; stroke: #1e88e5"/>
    </g>
    <g clip-path="url(#p646241eb89)">
     <use xlink:href="#C0_0_d502e7b57d" x="631.415118" y="77.822255" style="fill: #1e88e5; stroke: #1e88e5"/>
    </g>
    <g clip-path="url(#p646241eb89)">
     <use xlink:href="#C0_0_d502e7b57d" x="62.479339" y="328.760331" style="fill: #e91e63; stroke: #e91e63"/>
    </g>
    <g clip-path="url(#p646241eb89)">
     <use xlink:href="#C0_0_d502e7b57d" x="164.458268" y="132.521964" style="fill: #e91e63; stroke: #e91e63"/>
    </g>
    <g clip-path="url(#p646241eb89)">
     <use xlink:href="#C0_0_d502e7b57d" x="647.337591" y="133.084166" style="fill: #1e88e5; stroke: #1e88e5"/>
    </g>
    <g clip-path="url(#p646241eb89)">
     <use xlink:href="#C0_0_d502e7b57d" x="339.450381" y="130.214576" style="fill: #e91e63; stroke: #e91e63"/>
    </g>
    <g clip-path="url(#p646241eb89)">
     <use xlink:href="#C0_0_d502e7b57d" x="657.520661" y="103.018177" style="fill: #1e88e5; stroke: #1e88e5"/>
    </g>
    <g clip-path="url(#p646241eb89)">
     <use xlink:href="#C0_0_d502e7b57d" x="147.906261" y="157.529783" style="fill: #e91e63; stroke: #e91e63"/>
    </g>
    <g clip-path="url(#p646241eb89)">
     <use xlink:href="#C0_0_d502e7b57d" x="593.390997" y="60.164822" style="fill: #1e88e5; stroke: #1e88e5"/>
    </g>
    <g clip-path="url(#p646241eb89)">
     <use xlink:href="#C0_0_d502e7b57d" x="593.445803" y="112.833074" style="fill: #1e88e5; stroke: #1e88e5"/>
    </g>
    <g clip-path="url(#p646241eb89)">
     <use xlink:href="#C0_0_d502e7b57d" x="573.320836" y="169.404065" style="fill: #1e88e5; stroke: #1e88e5"/>
    </g>
    <g clip-path="url(#p646241eb89)">
     <use xlink:href="#C0_0_d502e7b57d" x="644.660578" y="172.210112" style="fill: #1e88e5; stroke: #1e88e5"/>
    </g>
    <g clip-path="url(#p646241eb89)">
     <use xlink:href="#C0_0_d502e7b57d" x="528.924629" y="31.239669" style="fill: #1e88e5; stroke: #1e88e5"/>
    </g>
    <g clip-path="url(#p646241eb89)">
     <use xlink:href="#C0_0_d502e7b57d" x="485.606179" y="123.253428" style="fill: #1e88e5; stroke: #1e88e5"/>
    </g>
    <g clip-path="url(#p646241eb89)">
     <use xlink:href="#C0_0_d502e7b57d" x="452.222631" y="190.748941" style="fill: #1e88e5; stroke: #1e88e5"/>
    </g>
    <g clip-path="url(#p646241eb89)">
     <use xlink:href="#C0_0_d502e7b57d" x="549.778002" y="67.181772" style="fill: #1e88e5; stroke: #1e88e5"/>
    </g>
    <g clip-path="url(#p646241eb89)">
     <use xlink:href="#C0_0_d502e7b57d" x="409.113711" y="101.453714" style="fill: #1e88e5; stroke: #1e88e5"/>
    </g>
    <g clip-path="url(#p646241eb89)">
     <use xlink:href="#C0_0_d502e7b57d" x="480.603498" y="173.224947" style="fill: #1e88e5; stroke: #1e88e5"/>
    </g>
    <g clip-path="url(#p646241eb89)">
     <use xlink:href="#C0_0_d502e7b57d" x="540.449329" y="118.683863" style="fill: #1e88e5; stroke: #1e88e5"/>
    </g>
    <g clip-path="url(#p646241eb89)">
     <use xlink:href="#C0_0_d502e7b57d" x="513.377795" y="122.869349" style="fill: #1e88e5; stroke: #1e88e5"/>
    </g>
   </g>
   <g id="text_1">
    <g clip-path="url(#p646241eb89)">
     <!-- 0 -->
     <g style="fill: #ffffff" transform="translate(247.865563 203.473719) scale(0.12 -0.12)">
      <defs>
       <path id="DejaVuSans-30" d="M 2034 4250 
Q 1547 4250 1301 3770 
Q 1056 3291 1056 2328 
Q 1056 1369 1301 889 
Q 1547 409 2034 409 
Q 2525 409 2770 889 
Q 3016 1369 3016 2328 
Q 3016 3291 2770 3770 
Q 2525 4250 2034 4250 
z
M 2034 4750 
Q 2819 4750 3233 4129 
Q 3647 3509 3647 2328 
Q 3647 1150 3233 529 
Q 2819 -91 2034 -91 
Q 1250 -91 836 529 
Q 422 1150 422 2328 
Q 422 3509 836 4129 
Q 1250 4750 2034 4750 
z
" transform="scale(0.015625)"/>
      </defs>
      <use xlink:href="#DejaVuSans-30"/>
     </g>
    </g>
   </g>
   <g id="text_2">
    <g clip-path="url(#p646241eb89)">
     <!-- 1 -->
     <g style="fill: #ffffff" transform="translate(266.651755 142.064227) scale(0.12 -0.12)">
      <defs>
       <path id="DejaVuSans-31" d="M 794 531 
L 1825 531 
L 1825 4091 
L 703 3866 
L 703 4441 
L 1819 4666 
L 2450 4666 
L 2450 531 
L 3481 531 
L 3481 0 
L 794 0 
L 794 531 
z
" transform="scale(0.015625)"/>
      </defs>
      <use xlink:href="#DejaVuSans-31"/>
     </g>
    </g>
   </g>
   <g id="text_3">
    <g clip-path="url(#p646241eb89)">
     <!-- 2 -->
     <g style="fill: #ffffff" transform="translate(372.936494 168.362458) scale(0.12 -0.12)">
      <defs>
       <path id="DejaVuSans-32" d="M 1228 531 
L 3431 531 
L 3431 0 
L 469 0 
L 469 531 
Q 828 903 1448 1529 
Q 2069 2156 2228 2338 
Q 2531 2678 2651 2914 
Q 2772 3150 2772 3378 
Q 2772 3750 2511 3984 
Q 2250 4219 1831 4219 
Q 1534 4219 1204 4116 
Q 875 4013 500 3803 
L 500 4441 
Q 881 4594 1212 4672 
Q 1544 4750 1819 4750 
Q 2544 4750 2975 4387 
Q 3406 4025 3406 3419 
Q 3406 3131 3298 2873 
Q 3191 2616 2906 2266 
Q 2828 2175 2409 1742 
Q 1991 1309 1228 531 
z
" transform="scale(0.015625)"/>
      </defs>
      <use xlink:href="#DejaVuSans-32"/>
     </g>
    </g>
   </g>
   <g id="text_4">
    <g clip-path="url(#p646241eb89)">
     <!-- 3 -->
     <g style="fill: #ffffff" transform="translate(245.892688 180.854916) scale(0.12 -0.12)">
      <defs>
       <path id="DejaVuSans-33" d="M 2597 2516 
Q 3050 2419 3304 2112 
Q 3559 1806 3559 1356 
Q 3559 666 3084 287 
Q 2609 -91 1734 -91 
Q 1441 -91 1130 -33 
Q 819 25 488 141 
L 488 750 
Q 750 597 1062 519 
Q 1375 441 1716 441 
Q 2309 441 2620 675 
Q 2931 909 2931 1356 
Q 2931 1769 2642 2001 
Q 2353 2234 1838 2234 
L 1294 2234 
L 1294 2753 
L 1863 2753 
Q 2328 2753 2575 2939 
Q 2822 3125 2822 3475 
Q 2822 3834 2567 4026 
Q 2313 4219 1838 4219 
Q 1578 4219 1281 4162 
Q 984 4106 628 3988 
L 628 4550 
Q 988 4650 1302 4700 
Q 1616 4750 1894 4750 
Q 2613 4750 3031 4423 
Q 3450 4097 3450 3541 
Q 3450 3153 3228 2886 
Q 3006 2619 2597 2516 
z
" transform="scale(0.015625)"/>
      </defs>
      <use xlink:href="#DejaVuSans-33"/>
     </g>
    </g>
   </g>
   <g id="text_5">
    <g clip-path="url(#p646241eb89)">
     <!-- 4 -->
     <g style="fill: #ffffff" transform="translate(105.938322 241.808268) scale(0.12 -0.12)">
      <defs>
       <path id="DejaVuSans-34" d="M 2419 4116 
L 825 1625 
L 2419 1625 
L 2419 4116 
z
M 2253 4666 
L 3047 4666 
L 3047 1625 
L 3713 1625 
L 3713 1100 
L 3047 1100 
L 3047 0 
L 2419 0 
L 2419 1100 
L 313 1100 
L 313 1709 
L 2253 4666 
z
" transform="scale(0.015625)"/>
      </defs>
      <use xlink:href="#DejaVuSans-34"/>
     </g>
    </g>
   </g>
   <g id="text_6">
    <g clip-path="url(#p646241eb89)">
     <!-- 5 -->
     <g style="fill: #ffffff" transform="translate(148.014824 291.513224) scale(0.12 -0.12)">
      <defs>
       <path id="DejaVuSans-35" d="M 691 4666 
L 3169 4666 
L 3169 4134 
L 1269 4134 
L 1269 2991 
Q 1406 3038 1543 3061 
Q 1681 3084 1819 3084 
Q 2600 3084 3056 2656 
Q 3513 2228 3513 1497 
Q 3513 744 3044 326 
Q 2575 -91 1722 -91 
Q 1428 -91 1123 -41 
Q 819 9 494 109 
L 494 744 
Q 775 591 1075 516 
Q 1375 441 1709 441 
Q 2250 441 2565 725 
Q 2881 1009 2881 1497 
Q 2881 1984 2565 2268 
Q 2250 2553 1709 2553 
Q 1456 2553 1204 2497 
Q 953 2441 691 2322 
L 691 4666 
z
" transform="scale(0.015625)"/>
      </defs>
      <use xlink:href="#DejaVuSans-35"/>
     </g>
    </g>
   </g>
   <g id="text_7">
    <g clip-path="url(#p646241eb89)">
     <!-- 6 -->
     <g style="fill: #ffffff" transform="translate(106.705943 276.87238) scale(0.12 -0.12)">
      <defs>
       <path id="DejaVuSans-36" d="M 2113 2584 
Q 1688 2584 1439 2293 
Q 1191 2003 1191 1497 
Q 1191 994 1439 701 
Q 1688 409 2113 409 
Q 2538 409 2786 701 
Q 3034 994 3034 1497 
Q 3034 2003 2786 2293 
Q 2538 2584 2113 2584 
z
M 3366 4563 
L 3366 3988 
Q 3128 4100 2886 4159 
Q 2644 4219 2406 4219 
Q 1781 4219 1451 3797 
Q 1122 3375 1075 2522 
Q 1259 2794 1537 2939 
Q 1816 3084 2150 3084 
Q 2853 3084 3261 2657 
Q 3669 2231 3669 1497 
Q 3669 778 3244 343 
Q 2819 -91 2113 -91 
Q 1303 -91 875 529 
Q 447 1150 447 2328 
Q 447 3434 972 4092 
Q 1497 4750 2381 4750 
Q 2619 4750 2861 4703 
Q 3103 4656 3366 4563 
z
" transform="scale(0.015625)"/>
      </defs>
      <use xlink:href="#DejaVuSans-36"/>
     </g>
    </g>
   </g>
   <g id="text_8">
    <g clip-path="url(#p646241eb89)">
     <!-- 7 -->
     <g style="fill: #ffffff" transform="translate(236.155559 159.986998) scale(0.12 -0.12)">
      <defs>
       <path id="DejaVuSans-37" d="M 525 4666 
L 3525 4666 
L 3525 4397 
L 1831 0 
L 1172 0 
L 2766 4134 
L 525 4134 
L 525 4666 
z
" transform="scale(0.015625)"/>
      </defs>
      <use xlink:href="#DejaVuSans-37"/>
     </g>
    </g>
   </g>
   <g id="text_9">
    <g clip-path="url(#p646241eb89)">
     <!-- 8 -->
     <g style="fill: #ffffff" transform="translate(403.390328 145.896305) scale(0.12 -0.12)">
      <defs>
       <path id="DejaVuSans-38" d="M 2034 2216 
Q 1584 2216 1326 1975 
Q 1069 1734 1069 1313 
Q 1069 891 1326 650 
Q 1584 409 2034 409 
Q 2484 409 2743 651 
Q 3003 894 3003 1313 
Q 3003 1734 2745 1975 
Q 2488 2216 2034 2216 
z
M 1403 2484 
Q 997 2584 770 2862 
Q 544 3141 544 3541 
Q 544 4100 942 4425 
Q 1341 4750 2034 4750 
Q 2731 4750 3128 4425 
Q 3525 4100 3525 3541 
Q 3525 3141 3298 2862 
Q 3072 2584 2669 2484 
Q 3125 2378 3379 2068 
Q 3634 1759 3634 1313 
Q 3634 634 3220 271 
Q 2806 -91 2034 -91 
Q 1263 -91 848 271 
Q 434 634 434 1313 
Q 434 1759 690 2068 
Q 947 2378 1403 2484 
z
M 1172 3481 
Q 1172 3119 1398 2916 
Q 1625 2713 2034 2713 
Q 2441 2713 2670 2916 
Q 2900 3119 2900 3481 
Q 2900 3844 2670 4047 
Q 2441 4250 2034 4250 
Q 1625 4250 1398 4047 
Q 1172 3844 1172 3481 
z
" transform="scale(0.015625)"/>
      </defs>
      <use xlink:href="#DejaVuSans-38"/>
     </g>
    </g>
   </g>
   <g id="text_10">
    <g clip-path="url(#p646241eb89)">
     <!-- 9 -->
     <g style="fill: #ffffff" transform="translate(490.968438 204.643257) scale(0.12 -0.12)">
      <defs>
       <path id="DejaVuSans-39" d="M 703 97 
L 703 672 
Q 941 559 1184 500 
Q 1428 441 1663 441 
Q 2288 441 2617 861 
Q 2947 1281 2994 2138 
Q 2813 1869 2534 1725 
Q 2256 1581 1919 1581 
Q 1219 1581 811 2004 
Q 403 2428 403 3163 
Q 403 3881 828 4315 
Q 1253 4750 1959 4750 
Q 2769 4750 3195 4129 
Q 3622 3509 3622 2328 
Q 3622 1225 3098 567 
Q 2575 -91 1691 -91 
Q 1453 -91 1209 -44 
Q 966 3 703 97 
z
M 1959 2075 
Q 2384 2075 2632 2365 
Q 2881 2656 2881 3163 
Q 2881 3666 2632 3958 
Q 2384 4250 1959 4250 
Q 1534 4250 1286 3958 
Q 1038 3666 1038 3163 
Q 1038 2656 1286 2365 
Q 1534 2075 1959 2075 
z
" transform="scale(0.015625)"/>
      </defs>
      <use xlink:href="#DejaVuSans-39"/>
     </g>
    </g>
   </g>
   <g id="text_11">
    <g clip-path="url(#p646241eb89)">
     <!-- 10 -->
     <g style="fill: #ffffff" transform="translate(157.098887 259.207765) scale(0.12 -0.12)">
      <use xlink:href="#DejaVuSans-31"/>
      <use xlink:href="#DejaVuSans-30" x="63.623047"/>
     </g>
    </g>
   </g>
   <g id="text_12">
    <g clip-path="url(#p646241eb89)">
     <!-- 11 -->
     <g style="fill: #ffffff" transform="translate(252.936204 286.014297) scale(0.12 -0.12)">
      <use xlink:href="#DejaVuSans-31"/>
      <use xlink:href="#DejaVuSans-31" x="63.623047"/>
     </g>
    </g>
   </g>
   <g id="text_13">
    <g clip-path="url(#p646241eb89)">
     <!-- 12 -->
     <g style="fill: #ffffff" transform="translate(133.692491 198.683945) scale(0.12 -0.12)">
      <use xlink:href="#DejaVuSans-31"/>
      <use xlink:href="#DejaVuSans-32" x="63.623047"/>
     </g>
    </g>
   </g>
   <g id="text_14">
    <g clip-path="url(#p646241eb89)">
     <!-- 13 -->
     <g style="fill: #ffffff" transform="translate(329.827502 164.366935) scale(0.12 -0.12)">
      <use xlink:href="#DejaVuSans-31"/>
      <use xlink:href="#DejaVuSans-33" x="63.623047"/>
     </g>
    </g>
   </g>
   <g id="text_15">
    <g clip-path="url(#p646241eb89)">
     <!-- 14 -->
     <g style="fill: #ffffff" transform="translate(603.926804 177.0197) scale(0.12 -0.12)">
      <use xlink:href="#DejaVuSans-31"/>
      <use xlink:href="#DejaVuSans-34" x="63.623047"/>
     </g>
    </g>
   </g>
   <g id="text_16">
    <g clip-path="url(#p646241eb89)">
     <!-- 15 -->
     <g style="fill: #ffffff" transform="translate(623.780118 81.133505) scale(0.12 -0.12)">
      <use xlink:href="#DejaVuSans-31"/>
      <use xlink:href="#DejaVuSans-35" x="63.623047"/>
     </g>
    </g>
   </g>
   <g id="text_17">
    <g clip-path="url(#p646241eb89)">
     <!-- 16 -->
     <g style="fill: #ffffff" transform="translate(54.844339 332.071581) scale(0.12 -0.12)">
      <use xlink:href="#DejaVuSans-31"/>
      <use xlink:href="#DejaVuSans-36" x="63.623047"/>
     </g>
    </g>
   </g>
   <g id="text_18">
    <g clip-path="url(#p646241eb89)">
     <!-- 17 -->
     <g style="fill: #ffffff" transform="translate(156.823268 135.833214) scale(0.12 -0.12)">
      <use xlink:href="#DejaVuSans-31"/>
      <use xlink:href="#DejaVuSans-37" x="63.623047"/>
     </g>
    </g>
   </g>
   <g id="text_19">
    <g clip-path="url(#p646241eb89)">
     <!-- 18 -->
     <g style="fill: #ffffff" transform="translate(639.702591 136.395416) scale(0.12 -0.12)">
      <use xlink:href="#DejaVuSans-31"/>
      <use xlink:href="#DejaVuSans-38" x="63.623047"/>
     </g>
    </g>
   </g>
   <g id="text_20">
    <g clip-path="url(#p646241eb89)">
     <!-- 19 -->
     <g style="fill: #ffffff" transform="translate(331.815381 133.525826) scale(0.12 -0.12)">
      <use xlink:href="#DejaVuSans-31"/>
      <use xlink:href="#DejaVuSans-39" x="63.623047"/>
     </g>
    </g>
   </g>
   <g id="text_21">
    <g clip-path="url(#p646241eb89)">
     <!-- 20 -->
     <g style="fill: #ffffff" transform="translate(649.885661 106.329427) scale(0.12 -0.12)">
      <use xlink:href="#DejaVuSans-32"/>
      <use xlink:href="#DejaVuSans-30" x="63.623047"/>
     </g>
    </g>
   </g>
   <g id="text_22">
    <g clip-path="url(#p646241eb89)">
     <!-- 21 -->
     <g style="fill: #ffffff" transform="translate(140.271261 160.841033) scale(0.12 -0.12)">
      <use xlink:href="#DejaVuSans-32"/>
      <use xlink:href="#DejaVuSans-31" x="63.623047"/>
     </g>
    </g>
   </g>
   <g id="text_23">
    <g clip-path="url(#p646241eb89)">
     <!-- 22 -->
     <g style="fill: #ffffff" transform="translate(585.755997 63.476072) scale(0.12 -0.12)">
      <use xlink:href="#DejaVuSans-32"/>
      <use xlink:href="#DejaVuSans-32" x="63.623047"/>
     </g>
    </g>
   </g>
   <g id="text_24">
    <g clip-path="url(#p646241eb89)">
     <!-- 23 -->
     <g style="fill: #ffffff" transform="translate(585.810803 116.144324) scale(0.12 -0.12)">
      <use xlink:href="#DejaVuSans-32"/>
      <use xlink:href="#DejaVuSans-33" x="63.623047"/>
     </g>
    </g>
   </g>
   <g id="text_25">
    <g clip-path="url(#p646241eb89)">
     <!-- 24 -->
     <g style="fill: #ffffff" transform="translate(565.685836 172.715315) scale(0.12 -0.12)">
      <use xlink:href="#DejaVuSans-32"/>
      <use xlink:href="#DejaVuSans-34" x="63.623047"/>
     </g>
    </g>
   </g>
   <g id="text_26">
    <g clip-path="url(#p646241eb89)">
     <!-- 25 -->
     <g style="fill: #ffffff" transform="translate(637.025578 175.521362) scale(0.12 -0.12)">
      <use xlink:href="#DejaVuSans-32"/>
      <use xlink:href="#DejaVuSans-35" x="63.623047"/>
     </g>
    </g>
   </g>
   <g id="text_27">
    <g clip-path="url(#p646241eb89)">
     <!-- 26 -->
     <g style="fill: #ffffff" transform="translate(521.289629 34.550919) scale(0.12 -0.12)">
      <use xlink:href="#DejaVuSans-32"/>
      <use xlink:href="#DejaVuSans-36" x="63.623047"/>
     </g>
    </g>
   </g>
   <g id="text_28">
    <g clip-path="url(#p646241eb89)">
     <!-- 27 -->
     <g style="fill: #ffffff" transform="translate(477.971179 126.564678) scale(0.12 -0.12)">
      <use xlink:href="#DejaVuSans-32"/>
      <use xlink:href="#DejaVuSans-37" x="63.623047"/>
     </g>
    </g>
   </g>
   <g id="text_29">
    <g clip-path="url(#p646241eb89)">
     <!-- 28 -->
     <g style="fill: #ffffff" transform="translate(444.587631 194.060191) scale(0.12 -0.12)">
      <use xlink:href="#DejaVuSans-32"/>
      <use xlink:href="#DejaVuSans-38" x="63.623047"/>
     </g>
    </g>
   </g>
   <g id="text_30">
    <g clip-path="url(#p646241eb89)">
     <!-- 29 -->
     <g style="fill: #ffffff" transform="translate(542.143002 70.493022) scale(0.12 -0.12)">
      <use xlink:href="#DejaVuSans-32"/>
      <use xlink:href="#DejaVuSans-39" x="63.623047"/>
     </g>
    </g>
   </g>
   <g id="text_31">
    <g clip-path="url(#p646241eb89)">
     <!-- 30 -->
     <g style="fill: #ffffff" transform="translate(401.478711 104.764964) scale(0.12 -0.12)">
      <use xlink:href="#DejaVuSans-33"/>
      <use xlink:href="#DejaVuSans-30" x="63.623047"/>
     </g>
    </g>
   </g>
   <g id="text_32">
    <g clip-path="url(#p646241eb89)">
     <!-- 31 -->
     <g style="fill: #ffffff" transform="translate(472.968498 176.536197) scale(0.12 -0.12)">
      <use xlink:href="#DejaVuSans-33"/>
      <use xlink:href="#DejaVuSans-31" x="63.623047"/>
     </g>
    </g>
   </g>
   <g id="text_33">
    <g clip-path="url(#p646241eb89)">
     <!-- 32 -->
     <g style="fill: #ffffff" transform="translate(532.814329 121.995113) scale(0.12 -0.12)">
      <use xlink:href="#DejaVuSans-33"/>
      <use xlink:href="#DejaVuSans-32" x="63.623047"/>
     </g>
    </g>
   </g>
   <g id="text_34">
    <g clip-path="url(#p646241eb89)">
     <!-- 33 -->
     <g style="fill: #ffffff" transform="translate(505.742795 126.180599) scale(0.12 -0.12)">
      <use xlink:href="#DejaVuSans-33"/>
      <use xlink:href="#DejaVuSans-33" x="63.623047"/>
     </g>
    </g>
   </g>
  </g>
 </g>
 <defs>
  <clipPath id="p646241eb89">
   <rect x="0" y="0" width="720" height="360"/>
  </clipPath>
 </defs>
</svg>
